<svg id="Capa_1" data-name="Capa 1" xmlns="http://www.w3.org/2000/svg" viewBox="0 0 621.15 601.4"><title>logo-beerly</title><path d="M310.72,0h-.21C481.72,0,620.37,134.87,620.29,300.87c0,116.07-67.95,216.7-167.27,266.87v.33c99.81-50,168-150.8,168.13-267.08C621.24,134.79,482.26,0,310.72,0Z"/><polygon points="240.92 500.24 240.72 500.24 240.68 551.32 271.1 570.78 271.1 570.78 271.14 551.36 271.14 519.58 271.14 519.58 240.92 500.24"/><path d="M359,482.87h0v81.21h0l48.28-30.79v-6.86a503.81,503.81,0,0,1-7.31-69.8Z"/><polygon points="240.96 432.17 240.72 432.17 240.72 483.24 271.14 502.7 271.14 502.7 271.14 483.28 271.18 451.5 271.18 451.5 240.96 432.17"/><path d="M399.53,430.69a664.76,664.76,0,0,1,5.91-83.14L359,377.15h0v79.36h0Z"/><path d="M202.62,408.15c.66,16.42.78,33.42,0,51.24l24.92,15.93h0V424.08h0Z"/><polygon points="240.96 364.71 240.76 364.71 240.76 414.6 271.18 434.06 271.18 434.06 271.18 414.64 271.22 384.01 271.18 384.01 240.96 364.71"/><path d="M197.36,337.28h-.29v9c1.77,13.1,3.37,27.84,4.48,43.81l25.95,16.42h0V356.58h0Z"/><path d="M310.52,0h-.21C139,0,0,134.46,0,300.54,0,416.89,68.07,517.85,167.8,567.9v0h0c39.33-135.82,0-283,0-283a68.57,68.57,0,0,0,17.74,6.32h0l1.27.25h.37a68.94,68.94,0,0,0,33.46-2.18,59.45,59.45,0,0,0,66.76,24.14v65a22.7,22.7,0,0,0,18.89,22.29V601.32h7.8V400.76A22.7,22.7,0,0,0,333,378.46V340.77a17.45,17.45,0,0,0,31.61-10v-14A55.55,55.55,0,0,0,392.75,291a81.13,81.13,0,0,0,16.79,1.77,54.17,54.17,0,0,0,5.79-.21h2.13a80.43,80.43,0,0,0,35.88-12.32v5.17S414,432.37,453,568.15v-.08C552.34,518,620.21,417.35,620.29,301.2,620.41,134.87,481.72,0,310.52,0ZM452.41,272.29a73.45,73.45,0,0,1-35.31,13.3h0a72.14,72.14,0,0,1-27.06-2.3l-1.15-.33-.45,1.11a48.82,48.82,0,0,1-29.81,28l-.9.33V331a10.67,10.67,0,0,1-21.35,0V314.17h-1.15a48.61,48.61,0,0,1-7.39-1.72l-1.77-.57v66.64a16.05,16.05,0,0,1-32.11,0V303.82l-1.89.86a52.68,52.68,0,0,1-67.74-22.38l-.57-1-1.11.45a62.78,62.78,0,0,1-54-4.11A61.59,61.59,0,0,1,221.71,167l1.93.74v-6.08a86.84,86.84,0,0,1,170.51-22l.33,1.19,1.23-.25a74.81,74.81,0,0,1,13.88-1.31,73.25,73.25,0,0,1,42.95,133Zm32.27,135.78L454.87,427c-.78-5.26-1.31-10.63-1.72-16v-2l15.36-9.81v-73.9l-12.73,8.21c1-8.21,2.09-15.52,3-21L484.35,296h.33Z"/><path d="M201.67,475.65c-1,13.3-2.46,26.85-4.6,40.48v7.8l30.42,19.46h0V492.15h0Z"/></svg>