<svg id="Capa_1" data-name="Capa 1" xmlns="http://www.w3.org/2000/svg" viewBox="0 0 1280.59 361.51"><title>logo-beerly</title><path d="M.82,219.26H30.5l.09-159.49H.91V0L133.68.07c23,0,36.32,0,52.33,4.68,32.81,10.51,54.27,34.51,54.26,68.71,0,22.9-10.56,47-32.83,59.36v.78c35.53,10.5,44.11,38.45,44.1,62.51,0,45-32.45,71.78-67.6,79.91-15.23,3.1-26.55,3.1-41.78,3.09L.8,279Zm144.1-5c15.62,0,22.65-10.46,22.65-24,0-12.42-5.85-21.35-21.85-21.36H114.87v45.41Zm-7.33-110.57c13.67,0,19.14-8.92,19.15-19.4,0-11.26-5.85-19.41-20.3-19.42H114.92v38.81Z"/><path d="M377,73.14c62.09,0,98.38,41.58,98.35,95.53,0,5.82-.4,10.87-.79,15.14l-.79,7-121-.07c6.24,21.35,22.63,26.79,38.25,26.8,13.67,0,27.34-4.65,37.89-8.91a181.93,181.93,0,0,0,17.57-8.53l28.48,55.52a159.18,159.18,0,0,1-24.22,14,153.93,153.93,0,0,1-66,14.32c-78.1,0-114-54.4-114-107.18C270.73,122.38,309,73.11,377,73.14Zm14.79,82.68c0-13.58-2.72-28.33-17.56-28.34-17.18,0-18.75,20.56-19.93,28.32Z"/><path d="M597.59,73.26c62.09,0,98.38,41.58,98.35,95.53,0,5.82-.4,10.87-.79,15.14l-.79,7-121-.07c6.24,21.35,22.63,26.79,38.25,26.8,13.67,0,27.34-4.65,37.89-8.91a181.93,181.93,0,0,0,17.57-8.53l28.48,55.52a159.18,159.18,0,0,1-24.22,14,153.93,153.93,0,0,1-66,14.32c-78.1,0-114-54.4-114-107.18C491.37,122.49,529.66,73.26,597.59,73.26Zm14.79,82.68c0-13.58-2.72-28.33-17.56-28.34-17.18,0-18.75,20.56-19.93,28.32Z"/><path d="M717.43,222h26.16V144c0-5.82-2.74-8.53-8.59-8.53H719V78h72.63c18.75,0,30.07,7,30.06,26.8v9.7c0,3.11,0,5-.39,6.21a6.76,6.76,0,0,0-.39,2.33h.78c8.21-26.39,35.16-48.89,64.45-48.87h4.68a5,5,0,0,1,2.35.4v79.56l-3.91-.78a87.35,87.35,0,0,0-10.93-.39c-35.92,0-53.12,14.72-53.13,50.43V222h26.16v57.44l-133.94-.07Z"/><path d="M920.59,57.9H896V.46L1002.2.51,1002.1,193c0,19.8,3.11,24.45,17.56,24.46,1.56,0,3.12-.38,4.68-.38h2.34v63.65l-6.25.78c-4.29.38-9.38.38-15.62.37-39.44,0-84.34-7.42-84.3-84.65Z"/><path d="M1057.94,287.35a32.78,32.78,0,0,0,9,4.66c5.86,2.72,14.45,4.66,26.55,4.67,12.89,0,26.95-4.26,30.08-12l-66-149.08h-21.48V78.16l116.76.06v57.44h-13.28L1155.18,190c2.73,6.6,3.12,14.36,4.28,20.19a86.74,86.74,0,0,1,.78,9.7h1.56l2-9.7c1.18-5.82,2.35-13.58,5.09-20.18l14.48-54.33h-11.71V78.24l108.93,0V135.7h-19.14l-58.26,155.22c-20.73,54.33-62.52,70.21-105.08,70.19a131,131,0,0,1-46.85-8.56,123.31,123.31,0,0,1-17.57-8.55Z"/><rect x="517.71" y="1.68" width="58.2" height="56.05"/><rect x="613.63" y="1.73" width="58.2" height="56.05"/></svg>