<svg id="Capa_1" data-name="Capa 1" xmlns="http://www.w3.org/2000/svg" viewBox="0 0 2037.04 668.94"><defs><style>.cls-1{fill:#f9f9f9;}</style></defs><title>logo-beerly</title><path class="cls-1" d="M765,508.29h6V480h-7.59v6.19h-7V473.86H793.3v12.32h-7V480h-7.59v28.3h6v6.13H765Z"/><path class="cls-1" d="M812.67,500.64V480h-5.46v-6.13h18.64V480h-5.46v19.9c0,6.19,4.06,8.39,9.06,8.39s9-2.27,9-8.46V480h-5.66v-6.13H851.1V480h-5.46v20c0,9.59-6.33,15.25-16.45,15.25C820.66,515.22,812.67,511.15,812.67,500.64Z"/><path class="cls-1" d="M891.76,508.29h5.46V480h-5.46v-6.13H911c14.72,0,21.78,8.26,21.78,20.31s-7.06,20.25-21.78,20.25H891.76Zm19.25,0c9.59,0,13.85-5.33,13.85-14.12S920.6,480,911,480h-6.06v28.3Z"/><path class="cls-1" d="M948.53,508.29H954V480h-5.46v-6.13h18.65V480h-5.46v28.3h5.46v6.13H948.53Z"/><path class="cls-1" d="M984,513V502.9h6.92v5.33a31.16,31.16,0,0,0,7,.86c4.33,0,8.39-1.07,8.39-5.06,0-9.26-21.78-4.26-21.78-19.18,0-8.52,7.19-11.78,15.18-11.78a43.32,43.32,0,0,1,12.92,2.2v9.92h-7.06v-5.46a38.84,38.84,0,0,0-5.66-.54c-3.93,0-7.92,1.14-7.92,4.87,0,8.65,21.78,4,21.78,19.44,0,8.85-7.26,11.72-15.38,11.72A58.4,58.4,0,0,1,984,513Z"/><path class="cls-1" d="M1037.47,508.29h6V480h-7.59v6.19h-7V473.86h36.89v12.32h-7V480h-7.59v28.3h6v6.13h-19.72Z"/><path class="cls-1" d="M1081,508.29h5.46V480H1081v-6.13h19.58c12,0,16.52,6.59,16.52,12.79,0,4.73-2.67,9.06-8.19,10.86l6.13,10.79h5v6.13h-10.25l-8.32-14.85h-7.26v8.72h5.46v6.13H1081Zm19.71-14.72c6.46,0,8.59-3.26,8.59-6.79s-2.2-6.79-8.59-6.79h-6.52v13.59Z"/><path class="cls-1" d="M1135.62,508.29h5.46V480h-5.46v-6.13h18.65V480h-5.46v28.3h5.46v6.13h-18.65Z"/><path class="cls-1" d="M1178.06,508.29h6V480h-7.59v6.19h-7V473.86h36.89v12.32h-7V480h-7.59v28.3h6v6.13h-19.72Z"/><path class="cls-1" d="M1221.1,494.17c0-12.45,8.79-21.11,21.11-21.11s21.11,8.66,21.11,21.11-8.86,21-21.11,21S1221.1,506.62,1221.1,494.17Zm34.3,0c0-9.06-5.66-14.65-13.19-14.65s-13.18,5.6-13.18,14.65,5.59,14.59,13.18,14.59S1255.4,503.29,1255.4,494.17Z"/><path class="cls-1" d="M1304.53,494.37c0-13.45,9-21.31,21.64-21.31a38.85,38.85,0,0,1,15.12,3.26V488h-7.39v-7.46a30.08,30.08,0,0,0-7.33-1c-8.32,0-14.05,5.13-14.05,14.45,0,9.59,6.13,14.58,14.52,14.58a28.51,28.51,0,0,0,14.18-4.26v7.4a32.56,32.56,0,0,1-14.85,3.53C1313.06,515.22,1304.53,507.42,1304.53,494.37Z"/><path class="cls-1" d="M1357.76,508.29h5.46V480h-5.46v-6.13h33.43v11.92h-7.12V480H1371v11h15.25v6.13H1371v11.19h13.32v-6.06h7.2v12.19h-33.7Z"/><path class="cls-1" d="M1408.27,508.29h5.46V480h-5.46v-6.13h19.58c12,0,16.52,6.59,16.52,12.79,0,4.73-2.67,9.06-8.19,10.86l6.13,10.79h5v6.13H1437l-8.32-14.85h-7.26v8.72h5.46v6.13h-18.65ZM1428,493.58c6.46,0,8.59-3.26,8.59-6.79s-2.2-6.79-8.59-6.79h-6.52v13.59Z"/><path class="cls-1" d="M1463.63,480h-4.79v-6.13h18.45V480h-5.46l9.26,25.31,9.32-25.31h-5.46v-6.13h18.12V480h-4.8l-13.38,34.43H1477Z"/><path class="cls-1" d="M1516.81,508.29h5.46V480h-5.46v-6.13h33.43v11.92h-7.12V480H1530v11h15.25v6.13H1530v11.19h13.32v-6.06h7.2v12.19h-33.7Z"/><path class="cls-1" d="M1566.91,494.37c0-13.45,9-21.31,21.64-21.31a38.85,38.85,0,0,1,15.12,3.26V488h-7.39v-7.46a30.08,30.08,0,0,0-7.33-1c-8.33,0-14.05,5.13-14.05,14.45,0,9.59,6.13,14.58,14.52,14.58a28.51,28.51,0,0,0,14.18-4.26v7.4a32.54,32.54,0,0,1-14.85,3.53C1575.44,515.22,1566.91,507.42,1566.91,494.37Z"/><path class="cls-1" d="M1620.15,508.29h5.46V480h-5.46v-6.13h33.43v11.92h-7.12V480h-13.12v11h15.25v6.13h-15.25v11.19h13.32v-6.06h7.2v12.19h-33.7Z"/><path class="cls-1" d="M1670.66,508.29h5.46V480h-5.46v-6.13h19.58c12,0,16.52,6.59,16.52,12.79,0,4.73-2.67,9.06-8.19,10.86l6.13,10.79h5v6.13h-10.25l-8.32-14.85h-7.26v8.72h5.46v6.13h-18.65Zm19.71-14.72c6.46,0,8.59-3.26,8.59-6.79s-2.2-6.79-8.59-6.79h-6.52v13.59Z"/><path class="cls-1" d="M1724.42,494.17c0-12.45,8.79-21.11,21.11-21.11s21.11,8.66,21.11,21.11-8.86,21-21.11,21S1724.42,506.62,1724.42,494.17Zm34.3,0c0-9.06-5.66-14.65-13.19-14.65s-13.18,5.6-13.18,14.65,5.59,14.59,13.18,14.59,13.19-5.47,13.19-14.59Z"/><path class="cls-1" d="M757.23,373h29.68L787,213.51H757.32V153.74l132.77.07c23,0,36.32,0,52.33,4.68C975.23,169,996.69,193,996.68,227.2c0,22.9-10.56,47-32.83,59.36v.78c35.53,10.5,44.11,38.45,44.1,62.51,0,45-32.45,71.78-67.6,79.91-15.23,3.1-26.55,3.1-41.78,3.09l-141.36-.07Zm144.1-5c15.62,0,22.65-10.46,22.65-24,0-12.42-5.85-21.35-21.85-21.36H871.28v45.41ZM894,257.43c13.67,0,19.14-8.92,19.15-19.4,0-11.26-5.85-19.41-20.3-19.42H871.33v38.81Z"/><path class="cls-1" d="M1133.38,226.88c62.09,0,98.38,41.58,98.35,95.53,0,5.82-.4,10.87-.79,15.14l-.79,7-121-.07c6.24,21.35,22.63,26.79,38.25,26.8,13.67,0,27.34-4.65,37.89-8.91a181.93,181.93,0,0,0,17.57-8.53l28.48,55.52a159.18,159.18,0,0,1-24.22,14,153.93,153.93,0,0,1-66,14.32c-78.1,0-114-54.4-114-107.18C1027.14,276.12,1065.43,226.85,1133.38,226.88Zm14.79,82.68c0-13.58-2.72-28.33-17.56-28.34-17.18,0-18.75,20.56-19.93,28.32Z"/><path class="cls-1" d="M1354,227c62.09,0,98.38,41.58,98.35,95.53,0,5.82-.4,10.87-.79,15.14l-.79,7-121-.07C1336,366,1352.4,371.39,1368,371.4c13.67,0,27.34-4.65,37.89-8.91a181.93,181.93,0,0,0,17.57-8.53L1452,409.48a159.18,159.18,0,0,1-24.22,14,153.93,153.93,0,0,1-66,14.32c-78.1,0-114-54.4-114-107.18C1247.78,276.23,1286.07,227,1354,227Zm14.79,82.68c0-13.58-2.72-28.33-17.56-28.34-17.18,0-18.75,20.56-19.93,28.32Z"/><path class="cls-1" d="M1473.84,375.71H1500v-78c0-5.82-2.74-8.53-8.59-8.53h-16V231.74H1548c18.75,0,30.07,7,30.06,26.8v9.7c0,3.11,0,5-.39,6.21a6.76,6.76,0,0,0-.39,2.33h.78c8.21-26.39,35.16-48.89,64.45-48.87h4.68a5,5,0,0,1,2.35.4v79.56l-3.91-.78a87.35,87.35,0,0,0-10.93-.39c-35.92,0-53.12,14.72-53.13,50.43v18.63h26.16V433.2l-133.94-.07Z"/><path class="cls-1" d="M1677,211.64h-24.6V154.2l106.21.05-.1,192.51c0,19.8,3.11,24.45,17.56,24.46,1.56,0,3.12-.38,4.68-.38h2.34v63.65l-6.25.78c-4.29.38-9.38.38-15.62.37-39.44,0-84.34-7.42-84.3-84.65Z"/><path class="cls-1" d="M1814.35,441.09a32.78,32.78,0,0,0,9,4.66c5.86,2.72,14.45,4.66,26.55,4.67,12.89,0,26.95-4.26,30.08-12l-66-149.08h-21.48V231.9l116.76.06V289.4H1896l15.59,54.34c2.73,6.6,3.12,14.36,4.28,20.19a86.74,86.74,0,0,1,.78,9.7h1.56l2-9.7c1.18-5.82,2.35-13.58,5.09-20.18l14.48-54.33h-11.71V232L2037,232v57.44h-19.14L1959.6,444.66c-20.73,54.33-62.52,70.21-105.08,70.19a131,131,0,0,1-46.85-8.56,123.31,123.31,0,0,1-17.57-8.55Z"/><rect class="cls-1" x="1274.12" y="155.42" width="58.2" height="56.05"/><rect class="cls-1" x="1370.04" y="155.47" width="58.2" height="56.05"/><path class="cls-1" d="M345,668.94h4C347.71,668.91,346.39,668.94,345,668.94Z"/><path class="cls-1" d="M345.64,0h-.24C535.82.23,690.07,150,690,334.65c-.07,129.08-75.56,241-186,296.74v.36C615,576.17,690.93,464,691,334.66,691,149.93,536.43.1,345.64,0Z"/><path class="cls-1" d="M464,317l-.18.71H464Z"/><path class="cls-1" d="M463.79,317.67v.07h.2v-.1Z"/><polygon class="cls-1" points="267.96 556.43 267.73 556.43 267.7 613.24 301.55 634.88 301.56 634.87 301.57 613.26 301.59 577.91 301.57 577.92 267.96 556.43"/><path class="cls-1" d="M399.33,537.11h0v90.33h0L453,593.18v-7.6a560.38,560.38,0,0,1-8.14-77.51Z"/><polygon class="cls-1" points="268 480.71 267.77 480.71 267.74 537.53 301.58 559.17 301.6 559.16 301.61 537.54 301.63 502.2 301.61 502.21 268 480.71"/><path class="cls-1" d="M444.4,479.06A739.4,739.4,0,0,1,451,386.6l-51.62,32.93h0v88.28h0Z"/><path class="cls-1" d="M225.39,454c.75,18,.86,37.2,0,57l27.7,17.71h0V471.66h0Z"/><polygon class="cls-1" points="268.04 405.65 267.81 405.65 267.78 461.17 301.62 482.81 301.64 482.8 301.65 461.18 301.67 427.13 301.65 427.14 268.04 405.65"/><path class="cls-1" d="M219.54,375.15h-.23v10c2,14.57,3.74,31,5,48.73l28.85,18.45h0V396.64h0Z"/><path class="cls-1" d="M345.4,0h-.24C154.63-.1.1,149.57,0,334.29-.07,463.73,75.72,576,186.64,631.69v.37l.09-.32v-.12c43.74-151.06,0-314.8,0-314.8a76.27,76.27,0,0,0,19.73,7h0l1.41.27h.41a76.67,76.67,0,0,0,37.24-2.43,66.14,66.14,0,0,0,73.87,26.87v72.33a25.27,25.27,0,0,0,21,24.82l-.12,223.06h0c1.48,0,3,.06,4.44.06H349l.12-223.07a25.27,25.27,0,0,0,21-24.8v-42A19.39,19.39,0,0,0,405.39,368V352.41a61.77,61.77,0,0,0,31.26-28.79,90.25,90.25,0,0,0,18.69,2q3.26,0,6.45-.23h.29l1.88-.16h.23v0a89.45,89.45,0,0,0,39.9-13.87V317s-43.81,163.49-.37,314.51l.09.31.12.42v-.83c110.48-55.7,186-167.65,186-296.74C690.07,150,535.82.23,345.4,0ZM503.23,302.85A81.7,81.7,0,0,1,464,317.64v.1h-.2v-.07a80.23,80.23,0,0,1-30.12-2.44l-1.28-.35-.5,1.22a54.28,54.28,0,0,1-33,30.77l-1,.34V368a11.87,11.87,0,0,1-23.73,0V349.22l-1.27-.2a54.06,54.06,0,0,1-8.21-1.91l-2-.63V421A17.86,17.86,0,0,1,327,421V337.75l-2.12,1a58.58,58.58,0,0,1-75.35-24.91l-.64-1.15-1.23.49a69.84,69.84,0,0,1-60.11-4.4,68.57,68.57,0,0,1-34.21-59.12c0-37.7,30.9-68.35,68.83-68.33a68.88,68.88,0,0,1,24.39,4.45l2.14.81-.17-3.54c-.06-1.06-.12-2.12-.12-3.19C248.41,127,291.76,84,345,84a96.46,96.46,0,0,1,93.27,71.36l.36,1.34,1.38-.26A83.22,83.22,0,0,1,455.43,155c45.28,0,82.1,36.65,82.08,81.65A81.7,81.7,0,0,1,503.23,302.85Zm35.89,151L506,475c-.85-5.84-1.48-11.81-1.93-17.83V455l17.08-10.9V362L507,371c1.12-9.28,2.31-17.27,3.3-23.38l28.51-18.19h.37Z"/><path class="cls-1" d="M224.33,529c-1.09,14.8-2.75,29.87-5.12,45v8.66L253,604.39h0v-57h0Z"/></svg>