<svg id="Capa_1" data-name="Capa 1" xmlns="http://www.w3.org/2000/svg" viewBox="0 0 621.15 821.1"><defs><style>.cls-1{fill:#f9f9f9;}</style></defs><title>logo-beerly</title><path class="cls-1" d="M.29,752.62H14.62V675.55H.33V646.81H64.46a84.29,84.29,0,0,1,25.29,2.26c15.85,5.09,26.19,16.71,26.19,33.22A32.39,32.39,0,0,1,100.1,711v.37c17.16,5.09,21.31,18.56,21.31,30.22,0,21.76-15.68,34.69-32.85,38.59a91.35,91.35,0,0,1-20.2,1.48H.25Zm69.8-2.42a10.39,10.39,0,0,0,11-11.62A9.28,9.28,0,0,0,70.5,728.27H55.39V750.2Zm-3.57-53.37a9.48,9.48,0,1,0-.82-18.8H55.39v18.76Z"/><path class="cls-1" d="M182,682c30,0,47.54,20.08,47.5,46.15a43.51,43.51,0,0,1-.37,7.31l-.37,3.37H170.26a17.37,17.37,0,0,0,18.6,12.93,50.46,50.46,0,0,0,18.31-4.11,87.9,87.9,0,0,0,8.5-4.11l13.75,26.81a76.9,76.9,0,0,1-11.82,6.57,74.35,74.35,0,0,1-31.9,6.94c-37.73,0-55.06-26.28-55.06-51.77C130.68,705.81,149.16,682,182,682Zm7.14,39.95c0-6.57-1.31-13.67-8.5-13.71-8.21,0-9.07,9.94-9.61,13.67Z"/><path class="cls-1" d="M288.59,682.08c30,0,47.54,20.08,47.5,46.15a43.51,43.51,0,0,1-.37,7.31l-.37,3.37H276.89a17.37,17.37,0,0,0,18.48,12.93,50.46,50.46,0,0,0,18.31-4.11,87.9,87.9,0,0,0,8.5-4.11l13.75,26.81A76.9,76.9,0,0,1,324.35,777a74.35,74.35,0,0,1-31.9,6.94c-37.73,0-55.06-26.28-55.06-51.77C237.27,705.85,255.79,682,288.59,682.08Zm7,39.95c0-6.57-1.31-13.67-8.5-13.71-8.21,0-9.07,9.94-9.61,13.67Z"/><path class="cls-1" d="M346.48,753.93h12.65V716.24a3.61,3.61,0,0,0-4.11-4.11h-7.76V684.38h35.1c9.07,0,14.53,3.37,14.53,12.93v4.76a11.62,11.62,0,0,1,0,3,3.28,3.28,0,0,0,0,1.11h.37a34.24,34.24,0,0,1,31.12-23.61h2.26a2.42,2.42,0,0,1,1.15,0V721l-1.89-.37a42.2,42.2,0,0,0-5.3,0c-17.37,0-25.66,7.1-25.66,24.35v9H411.6v27.75H346.48Z"/><path class="cls-1" d="M444.65,674.65H432.74V646.9h51.32v93c0,9.57,1.52,11.82,8.5,11.82H496v30.75l-3,.37h-7.55c-19.05,0-40.73-3.57-40.73-41.06Z"/><path class="cls-1" d="M511,785.5a15.85,15.85,0,0,0,4.35,2.26A30.75,30.75,0,0,0,528.16,790c6.24,0,13-2.05,14.53-5.79l-31.86-72H500.49v-27.8H556.9v27.75h-6.4L558,738.41a50,50,0,0,1,2.05,9.77,41.93,41.93,0,0,1,.37,4.68h.74l.94-4.68a52.88,52.88,0,0,1,2.46-9.73l7-26.24h-5.67V684.46h52.64v27.75h-9.24l-28.17,75c-10,26.24-30.22,33.91-50.79,33.91A63.27,63.27,0,0,1,507.75,817a59.57,59.57,0,0,1-8.5-4.11Z"/><rect class="cls-1" x="250" y="647.47" width="28.12" height="27.1"/><rect class="cls-1" x="296.35" y="647.51" width="28.12" height="27.1"/><path class="cls-1" d="M310.72,0h-.21C481.72,0,620.37,134.87,620.29,300.87c0,116.07-67.95,216.7-167.27,266.87v.33c99.81-50,168-150.8,168.13-267.08C621.24,134.79,482.26,0,310.72,0Z"/><polygon class="cls-1" points="240.92 500.24 240.72 500.24 240.68 551.32 271.1 570.78 271.1 570.78 271.14 551.36 271.14 519.58 271.14 519.58 240.92 500.24"/><path class="cls-1" d="M359,482.87h0v81.21h0l48.28-30.79v-6.86a503.81,503.81,0,0,1-7.31-69.8Z"/><polygon class="cls-1" points="240.96 432.17 240.72 432.17 240.72 483.24 271.14 502.7 271.14 502.7 271.14 483.28 271.18 451.5 271.18 451.5 240.96 432.17"/><path class="cls-1" d="M399.53,430.69a664.76,664.76,0,0,1,5.91-83.14L359,377.15h0v79.36h0Z"/><path class="cls-1" d="M202.62,408.15c.66,16.42.78,33.42,0,51.24l24.92,15.93h0V424.08h0Z"/><polygon class="cls-1" points="240.96 364.71 240.76 364.71 240.76 414.6 271.18 434.06 271.18 434.06 271.18 414.64 271.22 384.01 271.18 384.01 240.96 364.71"/><path class="cls-1" d="M197.36,337.28h-.29v9c1.77,13.1,3.37,27.84,4.48,43.81l25.95,16.42h0V356.58h0Z"/><path class="cls-1" d="M310.52,0h-.21C139,0,0,134.46,0,300.54,0,416.89,68.07,517.85,167.8,567.9v0h0c39.33-135.82,0-283,0-283a68.57,68.57,0,0,0,17.74,6.32h0l1.27.25h.37a68.94,68.94,0,0,0,33.46-2.18,59.45,59.45,0,0,0,66.76,24.14v65a22.7,22.7,0,0,0,18.89,22.29V601.32h7.8V400.76A22.7,22.7,0,0,0,333,378.46V340.77a17.45,17.45,0,0,0,31.61-10v-14A55.55,55.55,0,0,0,392.75,291a81.13,81.13,0,0,0,16.79,1.77,54.17,54.17,0,0,0,5.79-.21h2.13a80.43,80.43,0,0,0,35.88-12.32v5.17S414,432.37,453,568.15v-.08C552.34,518,620.21,417.35,620.29,301.2,620.41,134.87,481.72,0,310.52,0ZM452.41,272.29a73.45,73.45,0,0,1-35.31,13.3h0a72.14,72.14,0,0,1-27.06-2.3l-1.15-.33-.45,1.11a48.82,48.82,0,0,1-29.81,28l-.9.33V331a10.67,10.67,0,0,1-21.35,0V314.17h-1.15a48.61,48.61,0,0,1-7.39-1.72l-1.77-.57v66.64a16.05,16.05,0,0,1-32.11,0V303.82l-1.89.86a52.68,52.68,0,0,1-67.74-22.38l-.57-1-1.11.45a62.78,62.78,0,0,1-54-4.11A61.59,61.59,0,0,1,221.71,167l1.93.74v-6.08a86.84,86.84,0,0,1,170.51-22l.33,1.19,1.23-.25a74.81,74.81,0,0,1,13.88-1.31,73.25,73.25,0,0,1,42.95,133Zm32.27,135.78L454.87,427c-.78-5.26-1.31-10.63-1.72-16v-2l15.36-9.81v-73.9l-12.73,8.21c1-8.21,2.09-15.52,3-21L484.35,296h.33Z"/><path class="cls-1" d="M201.67,475.65c-1,13.3-2.46,26.85-4.6,40.48v7.8l30.42,19.46h0V492.15h0Z"/></svg>