<svg id="Capa_1" data-name="Capa 1" xmlns="http://www.w3.org/2000/svg" viewBox="0 0 1280.59 361.51"><defs><style>.cls-1{fill:#f9f9f9;}</style></defs><title>logo-beerly</title><path class="cls-1" d="M8.59,354.55h6V326.26H7v6.19H0V320.12H36.89v12.32h-7v-6.18H22.3v28.3h6v6.13H8.59Z"/><path class="cls-1" d="M56.26,346.9V326.26H50.8v-6.13H69.44v6.13H64v19.9c0,6.19,4.06,8.39,9.06,8.39s9-2.27,9-8.46V326.26H76.38v-6.13H94.69v6.13H89.23v20c0,9.59-6.33,15.25-16.45,15.25C64.25,361.48,56.26,357.41,56.26,346.9Z"/><path class="cls-1" d="M135.35,354.55h5.46V326.26h-5.46v-6.13h19.24c14.72,0,21.78,8.26,21.78,20.31s-7.06,20.25-21.78,20.25H135.35Zm19.25,0c9.59,0,13.85-5.33,13.85-14.12s-4.26-14.17-13.86-14.17h-6.06v28.3Z"/><path class="cls-1" d="M192.12,354.55h5.47V326.26h-5.46v-6.13h18.65v6.13h-5.46v28.3h5.46v6.13H192.12Z"/><path class="cls-1" d="M227.59,359.26v-10.1h6.92v5.33a31.16,31.16,0,0,0,7,.86c4.33,0,8.39-1.07,8.39-5.06,0-9.26-21.78-4.26-21.78-19.18,0-8.52,7.19-11.78,15.18-11.78a43.32,43.32,0,0,1,12.92,2.2v9.92h-7.06V326a38.84,38.84,0,0,0-5.66-.54c-3.93,0-7.92,1.14-7.92,4.87,0,8.65,21.78,4,21.78,19.44,0,8.85-7.26,11.72-15.38,11.72A58.4,58.4,0,0,1,227.59,359.26Z"/><path class="cls-1" d="M281.06,354.55h6V326.26h-7.59v6.19h-7V320.12h36.89v12.32h-7v-6.18h-7.59v28.3h6v6.13H281.05Z"/><path class="cls-1" d="M324.59,354.55H330V326.26h-5.46v-6.13h19.58c12,0,16.52,6.59,16.52,12.79,0,4.73-2.67,9.06-8.19,10.86l6.13,10.79h5v6.13H353.38l-8.32-14.85H337.8v8.72h5.46v6.13H324.59Zm19.71-14.72c6.46,0,8.59-3.26,8.59-6.79s-2.2-6.79-8.59-6.79h-6.52v13.59Z"/><path class="cls-1" d="M379.21,354.55h5.46V326.26h-5.46v-6.13h18.65v6.13H392.4v28.3h5.46v6.13H379.21Z"/><path class="cls-1" d="M421.65,354.55h6V326.26h-7.59v6.19h-7V320.12H450v12.32h-7v-6.18h-7.59v28.3h6v6.13H421.64Z"/><path class="cls-1" d="M464.69,340.43c0-12.45,8.79-21.11,21.11-21.11s21.11,8.66,21.11,21.11-8.86,21-21.11,21S464.69,352.88,464.69,340.43Zm34.3,0c0-9.06-5.66-14.65-13.19-14.65s-13.18,5.6-13.18,14.65S478.21,355,485.8,355,499,349.55,499,340.43Z"/><path class="cls-1" d="M548.12,340.63c0-13.45,9-21.31,21.64-21.31a38.85,38.85,0,0,1,15.12,3.26v11.68h-7.39V326.8a30.08,30.08,0,0,0-7.33-1c-8.32,0-14.05,5.13-14.05,14.45,0,9.59,6.13,14.58,14.52,14.58a28.51,28.51,0,0,0,14.18-4.26V358A32.56,32.56,0,0,1,570,361.5C556.65,361.48,548.12,353.68,548.12,340.63Z"/><path class="cls-1" d="M601.35,354.55h5.46V326.26h-5.46v-6.13h33.43v11.92h-7.12v-5.79H614.59v11h15.25v6.13H614.59v11.19h13.32v-6.06h7.2v12.19h-33.7Z"/><path class="cls-1" d="M651.86,354.55h5.46V326.26h-5.46v-6.13h19.58c12,0,16.52,6.59,16.52,12.79,0,4.73-2.67,9.06-8.19,10.86l6.13,10.79h5v6.13H680.59l-8.32-14.85H665v8.72h5.46v6.13H651.82Zm19.73-14.71c6.46,0,8.59-3.26,8.59-6.79s-2.2-6.79-8.59-6.79h-6.52v13.59Z"/><path class="cls-1" d="M707.22,326.26h-4.79v-6.13h18.45v6.13h-5.46l9.26,25.31L734,326.26h-5.46v-6.13h18.12v6.13h-4.8l-13.38,34.43h-7.89Z"/><path class="cls-1" d="M760.4,354.55h5.46V326.26H760.4v-6.13h33.43v11.92h-7.12v-5.79H773.59v11h15.25v6.13H773.59v11.19h13.32v-6.06h7.2v12.19h-33.7Z"/><path class="cls-1" d="M810.5,340.63c0-13.45,9-21.31,21.64-21.31a38.85,38.85,0,0,1,15.12,3.26v11.68h-7.39V326.8a30.08,30.08,0,0,0-7.33-1c-8.33,0-14.05,5.13-14.05,14.45,0,9.59,6.13,14.58,14.52,14.58a28.51,28.51,0,0,0,14.18-4.26V358a32.54,32.54,0,0,1-14.85,3.53C819,361.48,810.5,353.68,810.5,340.63Z"/><path class="cls-1" d="M863.74,354.55h5.46V326.26h-5.46v-6.13h33.43v11.92h-7.12v-5.79H876.93v11h15.25v6.13H876.93v11.19h13.32v-6.06h7.2v12.19h-33.7Z"/><path class="cls-1" d="M914.25,354.55h5.46V326.26h-5.46v-6.13h19.58c12,0,16.52,6.59,16.52,12.79,0,4.73-2.67,9.06-8.19,10.86l6.13,10.79h5v6.13H943l-8.32-14.85h-7.26v8.72h5.46v6.13H914.27ZM934,339.83c6.46,0,8.59-3.26,8.59-6.79s-2.2-6.79-8.59-6.79h-6.52v13.59Z"/><path class="cls-1" d="M968,340.43c0-12.45,8.79-21.11,21.11-21.11s21.11,8.66,21.11,21.11-8.86,21-21.11,21S968,352.88,968,340.43Zm34.3,0c0-9.06-5.66-14.65-13.19-14.65s-13.18,5.6-13.18,14.65S981.53,355,989.12,355s13.19-5.47,13.19-14.59Z"/><path class="cls-1" d="M.82,219.26H30.5l.09-159.49H.91V0L133.68.07c23,0,36.32,0,52.33,4.68,32.81,10.51,54.27,34.51,54.26,68.71,0,22.9-10.56,47-32.83,59.36v.78c35.53,10.5,44.11,38.45,44.1,62.51,0,45-32.45,71.78-67.6,79.91-15.23,3.1-26.55,3.1-41.78,3.09L.8,279Zm144.1-5c15.62,0,22.65-10.46,22.65-24,0-12.42-5.85-21.35-21.85-21.36H114.87v45.41Zm-7.33-110.57c13.67,0,19.14-8.92,19.15-19.4,0-11.26-5.85-19.41-20.3-19.42H114.92v38.81Z"/><path class="cls-1" d="M377,73.14c62.09,0,98.38,41.58,98.35,95.53,0,5.82-.4,10.87-.79,15.14l-.79,7-121-.07c6.24,21.35,22.63,26.79,38.25,26.8,13.67,0,27.34-4.65,37.89-8.91a181.93,181.93,0,0,0,17.57-8.53l28.48,55.52a159.18,159.18,0,0,1-24.22,14,153.93,153.93,0,0,1-66,14.32c-78.1,0-114-54.4-114-107.18C270.73,122.38,309,73.11,377,73.14Zm14.79,82.68c0-13.58-2.72-28.33-17.56-28.34-17.18,0-18.75,20.56-19.93,28.32Z"/><path class="cls-1" d="M597.59,73.26c62.09,0,98.38,41.58,98.35,95.53,0,5.82-.4,10.87-.79,15.14l-.79,7-121-.07c6.24,21.35,22.63,26.79,38.25,26.8,13.67,0,27.34-4.65,37.89-8.91a181.93,181.93,0,0,0,17.57-8.53l28.48,55.52a159.18,159.18,0,0,1-24.22,14,153.93,153.93,0,0,1-66,14.32c-78.1,0-114-54.4-114-107.18C491.37,122.49,529.66,73.26,597.59,73.26Zm14.79,82.68c0-13.58-2.72-28.33-17.56-28.34-17.18,0-18.75,20.56-19.93,28.32Z"/><path class="cls-1" d="M717.43,222h26.16V144c0-5.82-2.74-8.53-8.59-8.53H719V78h72.63c18.75,0,30.07,7,30.06,26.8v9.7c0,3.11,0,5-.39,6.21a6.76,6.76,0,0,0-.39,2.33h.78c8.21-26.39,35.16-48.89,64.45-48.87h4.68a5,5,0,0,1,2.35.4v79.56l-3.91-.78a87.35,87.35,0,0,0-10.93-.39c-35.92,0-53.12,14.72-53.13,50.43V222h26.16v57.44l-133.94-.07Z"/><path class="cls-1" d="M920.59,57.9H896V.46L1002.2.51,1002.1,193c0,19.8,3.11,24.45,17.56,24.46,1.56,0,3.12-.38,4.68-.38h2.34v63.65l-6.25.78c-4.29.38-9.38.38-15.62.37-39.44,0-84.34-7.42-84.3-84.65Z"/><path class="cls-1" d="M1057.94,287.35a32.78,32.78,0,0,0,9,4.66c5.86,2.72,14.45,4.66,26.55,4.67,12.89,0,26.95-4.26,30.08-12l-66-149.08h-21.48V78.16l116.76.06v57.44h-13.28L1155.18,190c2.73,6.6,3.12,14.36,4.28,20.19a86.74,86.74,0,0,1,.78,9.7h1.56l2-9.7c1.18-5.82,2.35-13.58,5.09-20.18l14.48-54.33h-11.71V78.24l108.93,0V135.7h-19.14l-58.26,155.22c-20.73,54.33-62.52,70.21-105.08,70.19a131,131,0,0,1-46.85-8.56,123.31,123.31,0,0,1-17.57-8.55Z"/><rect class="cls-1" x="517.71" y="1.68" width="58.2" height="56.05"/><rect class="cls-1" x="613.63" y="1.73" width="58.2" height="56.05"/></svg>