<?xml version="1.0" encoding="utf-8"?>
<!-- Generator: Adobe Illustrator 21.1.0, SVG Export Plug-In . SVG Version: 6.00 Build 0)  -->
<svg version="1.1" id="Layer_1" xmlns="http://www.w3.org/2000/svg" xmlns:xlink="http://www.w3.org/1999/xlink" x="0px" y="0px"
	 viewBox="0 0 180 218.4" style="enable-background:new 0 0 180 218.4;" xml:space="preserve">
<style type="text/css">
	.st0{fill:#EABB9B;}
	.st1{fill:#FFFFFF;}
	.st2{fill:#D6966B;}
	.st3{fill:#C95343;}
	.st4{fill:#665837;}
	.st5{fill:#F7EBCB;}
	.st6{fill:#384747;}
	.st7{fill:#2D3534;}
	.st8{fill:#E0A624;}
	.st9{fill:#594D43;}
	.st10{fill:#527070;}
	.st11{fill:#3F3731;}
	.st12{fill:#B7A632;}
	.st13{fill:#5F8483;}
	.st14{fill:#CC5248;}
	.st15{fill:#AD770B;}
	.st16{fill:#514240;}
	.st17{fill:#FFDECF;}
	.st18{fill:url(#SVGID_1_);}
	.st19{fill:#232221;}
	.st20{fill:#AF2F2F;}
	.st21{fill:#1A3331;}
	.st22{fill:url(#SVGID_2_);}
	.st23{fill:#B9AA8B;}
	.st24{fill:#A99367;}
	.st25{fill:#B59F6B;}
	.st26{fill:#CBBBA1;}
	.st27{fill:#A69266;}
	.st28{fill:#1D1C1A;}
	.st29{clip-path:url(#SVGID_4_);}
	.st30{fill:#905122;}
	.st31{fill:#6A3B17;}
	.st32{opacity:0.4;}
	.st33{fill:#D69028;}
	.st34{opacity:0.4;fill:#D69028;enable-background:new    ;}
	.st35{opacity:0.4;fill:#DFAC60;enable-background:new    ;}
	.st36{fill:#E8E7E7;}
	.st37{fill:#C1C1C1;}
	.st38{opacity:0.2;fill:#FFFFFF;enable-background:new    ;}
	.st39{fill:#838484;}
	.st40{clip-path:url(#SVGID_6_);}
	.st41{fill:#5C170E;}
	.st42{fill:#3A140F;}
	.st43{opacity:0.6;fill:#762F24;enable-background:new    ;}
	.st44{opacity:0.4;fill:#A0544B;enable-background:new    ;}
	.st45{fill:#B98F60;}
	.st46{fill:#DFB687;}
	.st47{opacity:0.4;fill:none;stroke:#3A140F;stroke-width:5.000000e-02;stroke-miterlimit:10;enable-background:new    ;}
	.st48{fill:#D23327;}
	.st49{fill:#816544;}
	.st50{clip-path:url(#SVGID_8_);}
	.st51{fill:#6E2815;}
	.st52{fill:#5D2212;}
	.st53{opacity:0.6;fill:#9C3A22;enable-background:new    ;}
	.st54{opacity:0.6;fill:#A73E24;enable-background:new    ;}
	.st55{fill:#DBDADA;}
	.st56{fill:#3D66B0;}
	.st57{fill:#2D4F89;}
	.st58{clip-path:url(#SVGID_10_);}
	.st59{fill:#67351C;}
	.st60{opacity:0.6;fill:#AF712D;enable-background:new    ;}
	.st61{fill:#5085C5;}
	.st62{fill:#DEDEDD;}
	.st63{fill:#EE4647;}
	.st64{fill:#A8A7A7;}
	.st65{clip-path:url(#SVGID_12_);}
	.st66{fill:#753819;}
	.st67{fill:#472717;}
	.st68{opacity:0.4;fill:#F6911F;enable-background:new    ;}
	.st69{opacity:0.2;fill:#F6911F;enable-background:new    ;}
	.st70{opacity:0.6;fill:#F6911F;enable-background:new    ;}
	.st71{fill:#EC1C24;}
	.st72{fill:#ED2525;}
	.st73{fill:#CD2027;}
	.st74{fill:#B62025;}
	.st75{clip-path:url(#SVGID_14_);}
	.st76{fill:#4E1D13;}
	.st77{fill:#37160F;}
	.st78{opacity:0.8;fill:#791F16;enable-background:new    ;}
	.st79{fill:#862C1B;}
	.st80{fill:#3F85C6;}
	.st81{fill:#EE4243;}
	.st82{fill:#0067AC;}
</style>
<title>how-4</title>
<path class="st0" d="M23.9,80.1c0.5-0.1,1-0.2,1.5-0.2h1.8c1.1,0,2.3,0.1,3.4,0c0.5-0.1,1.1-0.3,1.6-0.5c1.4-0.7,2.7-1.5,4-2.4l0,0
	c1.4-2.1,2.9-4.3,3.9-5.6C29,60.2,18.2,43.3,16.4,37.4l-3-7.9c0,0-4.5-5.3-6.6-2.9c-1.8,2.5-3.5,5-5.1,7.7c0.7,1.9,2.2,3.5,4.1,4.3
	c0.4,1,0.9,2.1,1.3,2.9C7.5,42.5,9.1,62.4,23.9,80.1z"/>
<ellipse class="st1" cx="3.3" cy="34.6" rx="0" ry="0.1"/>
<path class="st2" d="M4.6,27.5c-2,2.1-3,6.4-3,6.4c-0.1,0.3,0,2.9,3.4,3.8c2.8,0.7,4.9,0.6,5.7-3.9C12.1,26.4,7.1,24.9,4.6,27.5z"/>
<path class="st0" d="M7.7,29.3l-6.5-0.6c-0.6-0.1-1.1,0.5-1.2,1.2V30c-0.1,0.7,0.3,1.3,1,1.4L7.5,32c0.6,0.1,1.1-0.5,1.2-1.2v-0.1
	C8.8,30.1,8.3,29.5,7.7,29.3z"/>
<path class="st0" d="M7.8,32.2l-6.5-0.6c-0.6-0.1-1.1,0.5-1.2,1.2v0.1c-0.1,0.7,0.3,1.3,1,1.4l6.5,0.6c0.6,0.1,1.1-0.5,1.2-1.2v-0.1
	C8.9,33,8.4,32.4,7.8,32.2z"/>
<path class="st0" d="M8,35.1l-5.8-0.5c-0.6,0.1-1.1,0.6-1.1,1.2v0.1c-0.1,0.6,0.2,1.2,0.8,1.4l5.7,0.5c0.6-0.1,1.1-0.6,1.1-1.2v-0.1
	C8.9,35.9,8.6,35.3,8,35.1C8.1,35.1,8,35.1,8,35.1z"/>
<path class="st0" d="M8.1,26.5l-6.5-0.6c-0.6-0.1-1.1,0.5-1.2,1.2v0.1c-0.1,0.7,0.3,1.3,1,1.4l6.5,0.6C8.5,29.3,9,28.7,9.1,28v-0.1
	C9.1,27.1,8.7,26.5,8.1,26.5z"/>
<path class="st0" d="M1.3,22.6c0,0-0.2,3.7,6.2,3.8c1.8,0.1,3.4,0.9,4.6,2.2l1.6,2.7l-0.9-5.7l-4.4-2.5L1.3,22.6z"/>
<polygon class="st3" points="82.1,214.9 76,206.1 79.9,202.4 76.2,198.2 68.3,206.7 80.2,217.1 "/>
<path class="st4" d="M68.5,206.5l11,10l3.2-2.1l-5.4-8.1l1.7-2l-5.9-4l-1.1,1.2C72.1,201.9,68.5,206.5,68.5,206.5z"/>
<polygon class="st5" points="91,218.4 86.5,216 79.2,215.3 68.5,205.6 67.4,206.9 78.8,217.2 "/>
<polygon class="st5" points="91.3,218.4 91.4,216.4 81.3,212.4 80.8,217.4 "/>
<path class="st3" d="M164.8,142.3v-0.1h-0.2l-2.8,5.6l9.9,5.6l7.6-23.2l-10.2,12.7L164.8,142.3z"/>
<polygon class="st4" points="167.8,142 165.2,150.3 170.5,153 176.3,137.1 174.5,135.2 168.8,142.2 "/>
<polygon class="st5" points="171.8,154 180,130.4 178.5,129.9 169.8,152.7 "/>
<polygon class="st5" points="175.6,137.4 178.4,130.2 174,135.2 "/>
<polygon class="st6" points="69.4,155.4 78.7,170.3 91.6,182.8 74.5,198.7 78.3,204.8 104,188.9 105.9,180 99.8,158.9 104.4,154.3 
	140.4,145.6 163,149.1 165.8,142.3 142,134.5 107.1,130.8 "/>
<polygon class="st7" points="78.2,163.8 77.1,168 78.6,169 80.5,164.5 79,155.5 77.3,156.9 "/>
<polygon class="st7" points="106.7,132.8 105,134.3 111.4,136 115.9,131.6 113.3,131.5 110.3,133.8 "/>
<path class="st8" d="M75.1,68c-16.6,2.1-24.4,11.5-29,17c-5.1,6-3.7,9.7-3.7,9.7l14.9,8.1l8.9,47.1l4.6,8.2l39.1-27.6l-3.7-38.4
	l9.2,21.2l9.6-9.6c0,0-10.7-28.8-15.3-31.5C100.1,66.5,94.9,65.4,75.1,68z"/>
<path class="st9" d="M65.6,120.8c-0.6,0.6-1.1,1.3-1.6,2c-0.2,0.3,0.3,0.6,0.5,0.3c0.5-0.6,1-1.3,1.6-2
	C66.3,120.9,65.9,120.5,65.6,120.8z"/>
<path class="st9" d="M63.7,116.6c-0.5,0.1-1.1,0.4-1.5,0.7c-0.3,0.2,0.1,0.6,0.3,0.4c0.5-0.2,1-0.4,1.4-0.6
	C64.3,116.9,64,116.4,63.7,116.6z"/>
<path class="st9" d="M62,111.9c-0.3-0.1-0.5,0.4-0.2,0.6s0.6,0.2,0.9,0.4s0.7-0.4,0.3-0.5C62.7,112.1,62.4,112,62,111.9z"/>
<polygon class="st10" points="101.4,151.8 101.2,156.2 102.6,150.7 96.6,141.8 93.7,143 "/>
<polygon class="st11" points="72.4,160.1 110.4,131.4 109.1,129.5 70.8,158.1 "/>
<ellipse transform="matrix(0.7951 -0.6065 0.6065 0.7951 -69.2957 84.7168)" class="st12" cx="90.7" cy="144.9" rx="3.1" ry="2.9"/>
<ellipse transform="matrix(0.7951 -0.6065 0.6065 0.7951 -69.2921 84.7115)" class="st11" cx="90.7" cy="144.9" rx="1.6" ry="1.6"/>
<path class="st12" d="M93.2,142.4c-0.7,0.7-1.6,1.4-2.5,1.9c-0.4,0.1-0.2,0.8,0.2,0.7c1.1-0.4,2.1-1.1,2.8-2
	C94.1,142.7,93.6,142.1,93.2,142.4z"/>
<polygon class="st10" points="101.2,188 103.5,189.2 105.9,180 97.7,182.6 "/>
<polygon class="st10" points="138.3,139.6 147.9,136.4 141.8,134.8 134.6,133.7 "/>
<polygon class="st13" points="78.4,205.5 81.4,203.9 76.1,196.2 74,198.1 "/>
<polygon class="st13" points="163.5,150.1 166.3,142 164.2,140.8 161.1,149.7 "/>
<path class="st8" d="M61.7,71.8c5.3,11.7,9.2,24,11.6,36.6c3.5,19.9,5.6,37,5.6,37l-13.1,4.5l-5.4-21.4l-8.2-25l-1.7-0.2l-8-2.2
	L31,95.2l-9.2-15.7L32.9,78l5.2-3.7l0.7-6.5l10.4,8L61.7,71.8z"/>
<path class="st8" d="M107.4,92.8l14.3,11.9l14.3-4.2c0,0-19-23.4-25.2-29.2s-20.7-4.6-20.7-4.6l1.7,10.2c0,0-1.8,16.1,2.1,27.2
	s9.3,27.8,9.3,27.8l6.9-0.9c0,0-1.2-20-1.5-22.3S107.4,92.8,107.4,92.8z"/>
<path class="st14" d="M102.1,124.1c-0.1-0.2-0.1-0.4-0.2-0.6l-0.3,0.9C101.8,124.3,101.9,124.2,102.1,124.1z"/>
<path class="st15" d="M119.1,102.8c0,0,0.7-3.9,1.1-3.9s4.5-4.2,4.5-4.2l5.3-1.1c0,0,4.3,1.6,4.6,2.3s3.8,4.4,3.9,5.3
	c0.1,0.9-1,7.4-1,7.4s-3.2,2.8-3.6,3.3s-4.2,1-4.8,1.1s-7-3.8-7-3.8L119.1,102.8z"/>
<path class="st15" d="M86.6,66.8c-2.3,2.3-4.2,4.7-7.6,5.4c-6.7,1.4-17.5-0.7-17.5-0.7l-2.9,1.8c0,0,11,5.4,21.7,2.2
	c12.5-3.6,10.5-7.6,12.6-9.1C90.8,66.7,88.7,66.8,86.6,66.8z"/>
<path class="st16" d="M79.4,0.5c-0.2,0-6.7,6.4-6.7,6.4L69.4,0l-5.5,8.4l-3.3-3.3L55.3,13l-9.5,6.1l-5,9.2l-0.2,8.1l7.4,21l8.4,3.8
	l3.8,3.1l5,0.3l0.5-3.7c0,0-2.7-12.4-2.8-13s7.9-14.4,7.9-14.4l10.8-10.3L86,7.6l-5.9,0.7C80.1,8.5,79.5,0.5,79.4,0.5z"/>
<polygon class="st2" points="61.7,71.8 69.7,73.5 79,72.9 83.8,70.9 86.1,68.2 86.3,64.2 61.8,54.7 "/>
<path class="st0" d="M79.1,20.7l-11.8,2.5l-12.2,9.1l1.5,12.9l-6.6-1l-2.9,4.5c0,0,1,5.5,1.3,7l7.2,2.5l3.6-3.6l3.7,5.2l13.7,5.5h10
	l4.8-1.9l1.1-1.1c0,0-1.4-8.1-1.3-9.1S90.1,43,90.1,43L84,27.5L79.1,20.7z"/>
<path class="st17" d="M57.4,42.3c0,0,3.9,9.9,13,7.3c9.8-2.9,3.4-14.6,3.4-14.6L57.4,42.3z"/>
<path class="st17" d="M79.5,32.3c0,0,4.7,9.2,8.5,7.4c4.4-2.1-1.6-11-1.6-11L79.5,32.3z"/>
<linearGradient id="SVGID_1_" gradientUnits="userSpaceOnUse" x1="1096.0377" y1="928.8443" x2="1100.1478" y2="928.1443" gradientTransform="matrix(0.99 -0.17 0.17 0.99 -1157.9449 -691.9329)">
	<stop  offset="0" style="stop-color:#EABB9B"/>
	<stop  offset="1" style="stop-color:#D8996F"/>
</linearGradient>
<polygon class="st18" points="82.9,49.9 86,49 88,46.1 77.5,35.9 "/>
<path class="st1" d="M64.7,42l-0.6,1.8l2.5,2.5l4.5-0.1c0.6-1.1,1.1-2.2,1.6-3.3c0-0.3-1.6-3.9-1.6-3.9S65,42.1,64.7,42z"/>
<path class="st1" d="M82,34.2l-0.2,1.5l1.8,2.1L86,38c0,0,1.1-1.8,1.2-2.1c0.1-0.3-1.9-3.5-1.9-3.5L82,34.2z"/>
<path class="st19" d="M65.8,42.5c0,0,0.6,1.8,0.9,1.9c0.7,0,1.4-0.1,2.1-0.2l0.6-1v-2l-2,0.3L65.8,42.5z"/>
<path class="st19" d="M82.1,35.5c0,0,0.5,1.3,0.7,1.3c0.5,0,1,0,1.5-0.1l0.4-0.7l-0.1-1.6l-1.5,0.3L82.1,35.5z"/>
<polygon class="st1" points="68.7,42.3 70.3,41.4 69.3,41.4 "/>
<polygon class="st1" points="84.1,35.4 85.3,35 84.6,34.5 "/>
<path class="st2" d="M54.6,51.8c-0.3-0.5-2.8-3.1-2.8-3.1l-2.9,0.5l2.9,1.4l1.4,2.8l2.5,0.4l0.8-2.4C56.6,51.4,54.9,52.2,54.6,51.8z
	"/>
<polygon class="st16" points="65.9,31.3 64.6,30.2 64.2,32.5 63.2,32 61.4,35 60.1,39.1 65.6,35 69.8,31.9 66.6,29.8 "/>
<polygon class="st16" points="81.5,24.9 80.9,26 79.2,24.3 78.8,26 76.8,25.9 77.4,29.2 80.6,28.4 83.4,27.6 82.4,25.4 "/>
<polygon class="st20" points="76.8,53.3 81.4,57.3 84.9,57.6 88.7,56.1 88.7,50.7 83.3,53 "/>
<polygon class="st1" points="78.9,53 82.5,55.1 84.5,55 88.1,53.3 88.2,50.9 83.3,53 "/>
<path class="st21" d="M41.7,47.1l0.9,6.7l2.4-0.3l-0.6-5l11.2-4.8c-0.3-0.7-0.6-1.5-0.9-2.2L41.7,47.1z"/>
<linearGradient id="SVGID_2_" gradientUnits="userSpaceOnUse" x1="1087.887" y1="935.6201" x2="1084.877" y2="923.2501" gradientTransform="matrix(0.99 -0.17 0.17 0.99 -1157.9449 -691.9329)">
	<stop  offset="0" style="stop-color:#FCD0B1"/>
	<stop  offset="1" style="stop-color:#FFFFFF"/>
</linearGradient>
<path class="st22" d="M87.1,26.3l-10.4,5.1l0.4,0.9c0,0.1,0,0.1,0.1,0.1l-2.3,1.1c-0.1-0.1-0.1-0.1-0.1-0.2l-0.5-0.8l-18.1,8.4
	l-1.5,0.6c0.2,0.8,0.5,1.5,0.9,2.2l0.1-0.1c0.8,1.4,1.7,2.8,2.8,4c3.1,3.4,6.8,4.8,10.7,4.2c0.9-0.1,1.8-0.4,2.6-0.7
	c2.6-0.8,4.7-2.8,5.6-5.4c1.2-3.6-0.2-7.6-1.3-10.1l2.3-1.1c0.5,0.8,1.1,1.8,1.8,2.8c2.6,3.5,5.1,5.1,7.4,4.7c0.7-0.1,1.4-0.4,2-0.9
	c1.2-0.9,1.9-2.2,2.1-3.7c0.6-4.6-3.9-10.2-4.1-10.5L87.1,26.3z M75.4,45.1c-0.7,2-2.3,3.6-4.4,4.2c-4.1,1.6-7.8,0.6-11-2.9
	c-1.1-1.1-1.9-2.4-2.6-3.8l16.1-7.4C74.5,37,76.6,41.5,75.4,45.1z M89.7,37.2c-0.1,0.9-0.5,1.8-1.3,2.3c-0.3,0.3-0.7,0.4-1.1,0.5
	c-2.5,0.4-5.9-4.1-7.8-7.7l7-3.4C87.8,30.7,90,34.4,89.7,37.2z"/>
<polygon class="st15" points="21.5,77.3 26,78.4 31.8,76.5 35.4,74.1 37.2,70.7 36.7,67.8 35,65.9 38.3,66.6 40.1,69.3 40,72.4 
	38.3,76.2 33.7,79.4 28.3,81.2 22.9,81.3 20,79.9 19.2,77.2 19.7,74.5 "/>
<polygon class="st15" points="52.5,104.3 58,110.4 55.9,106.9 60.2,108.1 56,105 59.9,104.6 55.6,102.7 57.8,95.7 52.2,103 "/>
<rect x="70.7" y="84.8" transform="matrix(0.9734 -0.229 0.229 0.9734 -19.7215 25.139)" class="st23" width="55.5" height="25.5"/>
<polygon class="st24" points="122.5,78.8 68.5,91.5 69.7,88.6 123.8,75.9 "/>
<polygon class="st25" points="107,67.2 53,79.9 69.7,88.6 123.8,75.9 "/>
<polygon class="st26" points="120.7,102.8 127,97.7 72.9,110.4 66.7,115.5 "/>
<polygon class="st27" points="122.1,108.7 128.4,103.7 74.3,116.4 68.1,121.5 "/>
<rect x="66.6" y="109" transform="matrix(0.9734 -0.229 0.229 0.9734 -23.1566 24.5871)" class="st25" width="55.5" height="6.1"/>
<path d="M86,82L86,82l-0.6-0.8h-0.1L85,80.9l0.6-0.2h0.2c0.2,0,0.4,0.1,0.5,0.3c0.1,0.1,0.2,0.2,0.1,0.3l0,0c0.2,0,0.4,0.1,0.5,0.3
	c0.2,0.2,0.2,0.4,0.1,0.5s-0.1,0-0.2,0.1l-0.6,0.2L86,82z M86.6,81.8C86.7,81.8,86.6,81.7,86.6,81.8c0-0.1-0.1-0.2-0.2-0.2h-0.1
	L86.6,81.8L86.6,81.8z M86.1,81.3C86.2,81.3,86.1,81.2,86.1,81.3c0-0.1-0.1-0.2-0.2-0.2h-0.1C85.8,81.1,86.1,81.3,86.1,81.3z"/>
<path d="M87,80.8c0.3-0.1,0.7,0.1,0.8,0.4c0,0.1,0,0.1,0.1,0.1l0,0l-0.5,0.1c0.1,0.1,0.2,0.1,0.3,0.1c0.1,0,0.1,0,0.1-0.1v-0.1
	l0.4,0.2v0.1c0,0.1-0.1,0.1-0.2,0.1c-0.4,0.1-0.8-0.1-1-0.4C86.8,81.2,86.7,80.9,87,80.8z M87.4,81.2c-0.1-0.1-0.1-0.1-0.2-0.1
	s0,0.1,0,0.2L87.4,81.2z"/>
<path d="M88,80.6c0.3-0.1,0.7,0.1,0.8,0.4c0,0.1,0,0.1,0.1,0.1l0,0l-0.5,0.1c0.1,0.1,0.2,0.1,0.3,0.1c0.1,0,0.1,0,0.1-0.1v-0.1
	l0.4,0.2v0.1c0,0.1-0.1,0.1-0.2,0.1c-0.4,0.1-0.8-0.1-1-0.4C87.7,80.9,87.7,80.7,88,80.6z M88.4,81c-0.1-0.1-0.1-0.1-0.2-0.1
	s0,0.1,0,0.2L88.4,81z"/>
<path d="M89.1,81.2L89.1,81.2l-0.2-0.4h-0.2l-0.2-0.3l0.3-0.1c0.1,0,0.2,0,0.2,0.1l0,0c-0.1-0.1-0.1-0.3,0.1-0.3l0,0l0.3,0.4l0,0
	c-0.2,0-0.2,0.1,0,0.3l0.1,0.1h0.1l0.2,0.3l-0.6,0.2L89.1,81.2z"/>
<path d="M89.3,80.1L89.3,80.1L89,79.8l0.5-0.1l0.8,1c0.1,0.1,0.1,0.1,0.2,0.1l0,0l0.3,0.3h-0.1c-0.3,0.1-0.6-0.1-0.7-0.3L89.3,80.1z
	"/>
<path d="M90.9,81.1h0.2c0.1,0,0.1,0,0.1-0.1l-0.9-0.7h-0.1L90,80l0.5-0.1l0.2,0.3h-0.1l0.3,0.3l0.1,0.1l0,0v-0.1
	c0-0.1,0-0.1-0.1-0.1l-0.2-0.3h-0.1l-0.2-0.3l0.5-0.1l0.2,0.3H91l0.4,0.8c0.1,0.3,0,0.4-0.2,0.5h-0.3V81.1z"/>
<polygon points="87.8,80.5 87.5,80.6 87.3,80.3 87.5,80.2 "/>
<polygon points="88.2,80.4 88,80.5 87.7,80.2 88,80.1 "/>
<path d="M87.4,79.7"/>
<path d="M81.9,73.5L81.9,73.5c1.7-0.4,4.3,0.6,5.8,2.4c1,1.2,1.3,2.4,0.8,3.2l0,0c0.5-0.8,0.2-2-0.8-3.2
	C86.2,74.1,83.6,73.1,81.9,73.5z"/>
<path d="M83.4,76.8"/>
<path d="M85.6,76.2"/>
<path d="M85.5,76.2"/>
<circle cx="85.6" cy="76.1" r="0"/>
<polygon points="85.9,78.8 85.9,78.8 86.3,79.3 86.8,79.5 86.8,79.5 86.6,79.3 86.3,78.9 86.3,78.9 "/>
<path d="M86.8,78.3L86.8,78.3l0.5,0.5l0.3,0.3l0,0l0.2-0.4l-0.1-0.1c-0.3-0.2-0.5-0.4-0.7-0.7L86.8,78.3z"/>
<polygon points="85.2,78.1 85.2,78.1 85.7,78.6 86.2,78.8 86.2,78.8 86,78.6 85.7,78.2 85.7,78.2 "/>
<path d="M86.7,77.7c-0.3-0.3-0.5-0.6-0.7-0.9l-0.2,0.4l0,0l0.4,0.5l0.3,0.3l0,0L86.7,77.7z"/>
<path d="M84.7,78l0.5,0.5l0.4,0.1l0,0l-0.2-0.2l-0.3-0.3l0,0L84.7,78z"/>
<polygon points="84.6,77.4 84.6,77.4 85.1,77.9 85.5,78.1 85.5,78.1 85.4,77.9 85.1,77.5 85.1,77.5 "/>
<path d="M83.9,77.2L83.9,77.2l0.5,0.5l0.4,0.1l0,0l-0.2-0.2l-0.3-0.3l0,0L83.9,77.2z"/>
<path d="M81.9,73.5L81.9,73.5c-1.7,0.4-1.7,2.1-0.1,3.9c1.1,1.2,2.5,2,4.1,2.4l0,0c-0.7-1.1-1.6-2.1-2.6-2.9h0.3
	c0.1,0,0.1,0,0.2-0.1c0.2,0.1,0.5,0.2,0.7,0.2c0.1,0,0.1,0,0.1-0.1l0.6,0.7c0.1,0.1,0.2,0.2,0.4,0.2l1.8,2.1l0,0l-1.8-2.1
	c0.1,0,0.1-0.2,0-0.3l-0.3-0.4c0.1,0,0.1,0.1,0.2,0s0.1-0.1,0-0.2l-0.1-0.1c0.1-0.1,0.1-0.2,0-0.3c0,0,0,0,0,0h0.3
	c0.1,0,0.2-0.1,0.2-0.2v0.1c0.7,1.1,1.5,2,2.5,2.9l0,0c0.5-0.8,0.2-2-0.8-3.2C86.3,74.2,84.1,73.2,81.9,73.5z M85.8,75.9
	c0,0.1-0.1,0.2-0.2,0.2h-0.3c0.1,0.1,0.1,0.3,0,0.4l0,0l0.2,0.2c0.1,0.1,0.1,0.1,0,0.1s-0.1,0-0.2-0.1l-0.2-0.2H85l0.6,0.7
	c0.1,0.1,0.1,0.2,0,0.2h-0.1c-0.1,0-0.2-0.1-0.3-0.1l-0.7-0.8l0,0c-0.1,0.1-0.1,0.1-0.2,0.1c-0.2,0-0.5-0.1-0.7-0.2l0,0
	c-0.1,0.1-0.3,0.1-0.5,0.1c-0.3-0.1-0.6-0.2-0.8-0.5c-0.3-0.4-0.3-0.7,0-0.8h0.2c-0.4-0.5-0.4-1,0-1.1c0.5-0.1,1,0.1,1.4,0.5H84
	c0.5,0,1,0.2,1.4,0.6C85.6,75.4,85.8,75.6,85.8,75.9z M87.3,77.3l-0.1,0.2L87,77.3l0,0l0.1-0.1l-0.7-0.8v0.1
	c-0.1-0.1-0.1-0.2-0.2-0.2l0.1-0.2l0,0L87.3,77.3z"/>
<path d="M85.3,78.7c0.1,0.1,0.2,0.3,0.3,0.4l0.1,0.1l0.5,0.1l0,0L86,79.1l-0.3-0.3l0,0L85.3,78.7z"/>
<path class="st23" d="M89.7,77l-10,2.4c-1,0.2-2-0.4-2.3-1.4l-0.8-3.6l13.8-3.2l0.8,3.6C91.3,75.8,90.7,76.8,89.7,77z"/>
<path class="st28" d="M94.2,97.2c-0.1,0-0.1-0.1-0.2-0.1l0.6-0.8l0.1,0.1L94.2,97.2z"/>
<path class="st28" d="M100.7,95.6l-0.9-0.5c0-0.1,0-0.1,0.1-0.1l0,0l0.9,0.4C100.7,95.5,100.7,95.5,100.7,95.6z"/>
<path class="st28" d="M93.9,97L93.9,97l0.6-0.8l0.1,0.1L93.9,97z"/>
<path class="st28" d="M100.8,95.2l-0.9-0.4c0-0.1,0-0.1,0.1-0.1l0,0l0.9,0.3C100.9,95.1,100.9,95.2,100.8,95.2z"/>
<path class="st28" d="M93.6,96.8L93.6,96.8l0.6-0.8l0.1,0.1L93.6,96.8z"/>
<path class="st28" d="M101,94.9l-0.9-0.3v-0.1l1,0.3C101,94.8,101,94.8,101,94.9z"/>
<path class="st28" d="M93.4,96.5L93.4,96.5l0.7-0.7l0.1,0.1L93.4,96.5z"/>
<path class="st28" d="M101.1,94.5l-1-0.2v-0.1L101.1,94.5L101.1,94.5z"/>
<path class="st28" d="M93.2,96.2L93.2,96.2l0.7-0.7l0.1,0.1L93.2,96.2z"/>
<path class="st28" d="M101.1,94.2l-1-0.1V94L101.1,94.2L101.1,94.2z"/>
<path class="st28" d="M92.9,95.9c0-0.1-0.1-0.1-0.1-0.2l0.9-0.5c0,0.1,0,0.1,0.1,0.1L92.9,95.9z"/>
<path class="st28" d="M101.2,93.8l-1-0.1v-0.1h1V93.8z"/>
<path class="st28" d="M92.8,95.6c0-0.1-0.1-0.1-0.1-0.2l0.9-0.4c0,0.1,0,0.1,0.1,0.1L92.8,95.6z"/>
<path class="st28" d="M101.2,93.4h-1v-0.1l1-0.1V93.4z"/>
<path class="st28" d="M92.6,95.3c0-0.1,0-0.1-0.1-0.2l0.9-0.3c0,0.1,0,0.1,0.1,0.1L92.6,95.3z"/>
<path class="st28" d="M101.1,93.1l-1,0.1v-0.1H101.1L101.1,93.1z"/>
<path class="st28" d="M92.5,94.9c0-0.1,0-0.1-0.1-0.2l1-0.3v0.1L92.5,94.9z"/>
<path class="st28" d="M101.1,92.7l-1,0.2v-0.1l0,0L101.1,92.7L101.1,92.7L101.1,92.7z"/>
<path class="st28" d="M93.3,94.3l-1,0.2l0,0v-0.2l1-0.2V94.3z"/>
<path class="st28" d="M100.1,92.6L100.1,92.6l0.9-0.4c0,0.1,0,0.1,0.1,0.2L100.1,92.6z"/>
<path class="st28" d="M93.3,94.1l-1,0.1V94l1-0.1V94.1z"/>
<path class="st28" d="M100,92.3c0-0.1,0-0.1-0.1-0.1l0,0l0.9-0.4c0,0.1,0,0.1,0.1,0.2L100,92.3z"/>
<path class="st28" d="M93.3,93.8l-1,0.1v-0.2L93.3,93.8L93.3,93.8z"/>
<path class="st28" d="M99.9,92.1c0-0.1,0-0.1-0.1-0.1l0,0l0.9-0.5c0,0.1,0.1,0.1,0.1,0.2L99.9,92.1z"/>
<path class="st28" d="M93.3,93.5h-1v-0.2L93.3,93.5L93.3,93.5z"/>
<path class="st28" d="M99.7,91.8c0-0.1,0-0.1-0.1-0.1l0,0l0.8-0.5c0,0.1,0.1,0.1,0.1,0.2L99.7,91.8z"/>
<path class="st28" d="M93.3,93.2l-1-0.1v-0.2l1,0.1V93.2z"/>
<path class="st28" d="M99.6,91.6l-0.1-0.1l0.8-0.6l0.1,0.1L99.6,91.6z"/>
<path class="st28" d="M93.3,92.9l-1-0.2v-0.2l1,0.2V92.9z"/>
<path class="st28" d="M99.4,91.3l-0.1-0.1l0.7-0.7l0.1,0.1L99.4,91.3z"/>
<path class="st28" d="M93.4,92.6l-1-0.3c0-0.1,0-0.1,0.1-0.2l0.9,0.3V92.6z"/>
<path class="st28" d="M99.2,91.1L99.1,91l0.7-0.7l0.1,0.1L99.2,91.1z"/>
<path class="st28" d="M93.5,92.4l-0.9-0.3c0-0.1,0-0.1,0.1-0.2L93.5,92.4C93.5,92.3,93.5,92.3,93.5,92.4z"/>
<path class="st28" d="M99,90.9l-0.1-0.1l0.6-0.8l0.1,0.1L99,90.9z"/>
<path class="st28" d="M93.6,92.1l-0.9-0.4c0-0.1,0.1-0.1,0.1-0.2l0.9,0.4C93.7,92,93.6,92,93.6,92.1z"/>
<path class="st28" d="M98.8,90.7l-0.1-0.1l0.6-0.8c0.1,0,0.1,0.1,0.2,0.1L98.8,90.7z"/>
<path class="st28" d="M93.7,91.8l-0.9-0.5c0-0.1,0.1-0.1,0.1-0.2l0.8,0.5V91.8z"/>
<path class="st28" d="M98.5,90.6c-0.1,0-0.1,0-0.1-0.1c0,0,0,0,0,0l0.5-0.9c0.1,0,0.1,0.1,0.2,0.1L98.5,90.6z"/>
<path class="st28" d="M93.8,91.6L93,91c0-0.1,0.1-0.1,0.1-0.2l0.8,0.6C93.9,91.5,93.9,91.6,93.8,91.6z"/>
<path class="st28" d="M98.3,90.4c-0.1,0-0.1,0-0.1-0.1c0,0,0,0,0,0l0.4-0.9c0.1,0,0.1,0.1,0.2,0.1L98.3,90.4z"/>
<path class="st28" d="M94,91.4l-0.8-0.6l0.1-0.1L94,91.4C94.1,91.3,94,91.3,94,91.4z"/>
<path class="st28" d="M98,90.3c-0.1,0-0.1,0-0.1-0.1c0,0,0,0,0,0l0.3-0.9c0.1,0,0.1,0,0.2,0.1L98,90.3z"/>
<path class="st28" d="M94.2,91.1l-0.7-0.7l0.1-0.1L94.2,91.1C94.3,91.1,94.3,91.1,94.2,91.1z"/>
<path class="st28" d="M97.8,90.2h-0.1l0.3-1c0.1,0,0.1,0,0.2,0.1L97.8,90.2z"/>
<path class="st28" d="M94.4,90.9l-0.7-0.7l0.1-0.1C93.8,90.1,94.4,90.9,94.4,90.9z"/>
<path class="st28" d="M97.5,90.2h-0.1l0.2-1h0.2L97.5,90.2z"/>
<path class="st28" d="M94.6,90.8L94,90l0.1-0.1L94.6,90.8L94.6,90.8z"/>
<path class="st28" d="M97.2,90.1h-0.1l0.1-1h0.2L97.2,90.1z"/>
<path class="st28" d="M94.9,90.6l-0.5-0.8c0.1,0,0.1-0.1,0.2-0.1l0.5,0.9H94.9z"/>
<path class="st28" d="M96.9,90.1h-0.1v-1H97L96.9,90.1z"/>
<path class="st28" d="M95.1,90.5l-0.5-0.9c0.1,0,0.1-0.1,0.2-0.1L95.1,90.5L95.1,90.5z"/>
<path class="st28" d="M96.6,90.1h-0.1l-0.1-1h0.2L96.6,90.1z"/>
<path class="st28" d="M95.4,90.3L95,89.4c0.1,0,0.1,0,0.2-0.1L95.4,90.3C95.5,90.3,95.5,90.3,95.4,90.3z"/>
<path class="st28" d="M96.3,90.1h-0.1l-0.1-1h0.2L96.3,90.1z"/>
<path class="st28" d="M95.6,90.2l-0.3-0.9c0.1,0,0.1,0,0.2-0.1l0.3,1H95.6z"/>
<path class="st28" d="M96.1,90.1H96l-0.2-1H96L96.1,90.1z"/>
<path class="st28" d="M100.1,94.4l1,0.3c0,0.1,0,0.1-0.1,0.2l-0.9-0.3C100,94.5,100,94.5,100.1,94.4z"/>
<path class="st28" d="M94.2,96L94.2,96l-0.6,0.8l-0.1-0.1L94.2,96z"/>
<path class="st28" d="M100,94.7l0.9,0.3c0,0.1,0,0.1-0.1,0.2l-0.9-0.4C100,94.8,100,94.8,100,94.7C100,94.7,100,94.7,100,94.7z"/>
<path class="st28" d="M94.4,96.1L94.4,96.1L93.9,97l-0.1-0.1L94.4,96.1z"/>
<path class="st28" d="M99.9,95l0.9,0.4c0,0.1-0.1,0.1-0.1,0.2l-0.9-0.4C99.8,95.1,99.8,95,99.9,95z"/>
<path class="st28" d="M94.7,96.3L94.7,96.3l-0.5,0.9c-0.1,0-0.1-0.1-0.2-0.1L94.7,96.3z"/>
<path class="st28" d="M99,96.1l0.7,0.7l-0.1,0.1L99,96.1C99,96.2,99,96.2,99,96.1z"/>
<path class="st28" d="M96,96.9h0.1l-0.2,1h-0.2L96,96.9z"/>
<path class="st28" d="M98.8,96.3l0.6,0.8l-0.1,0.1l-0.6-0.8L98.8,96.3z"/>
<path class="st28" d="M96.2,97h0.1l-0.1,1H96L96.2,97z"/>
<path class="st28" d="M98.6,96.5l0.5,0.8c-0.1,0-0.1,0.1-0.2,0.1l-0.5-0.9H98.6z"/>
<path class="st28" d="M96.5,97h0.1v1h-0.2L96.5,97z"/>
<path class="st28" d="M98.3,96.6l0.5,0.9c-0.1,0-0.1,0.1-0.2,0.1L98.3,96.6L98.3,96.6z"/>
<path class="st28" d="M96.8,97h0.1l0.1,1h-0.2L96.8,97z"/>
<path class="st28" d="M98.1,96.7l0.4,0.9c-0.1,0-0.1,0-0.2,0.1L98,96.8L98.1,96.7z"/>
<path class="st28" d="M97.1,97h0.1l0.1,1h-0.2L97.1,97z"/>
<path class="st28" d="M97.8,96.8l0.3,0.9c-0.1,0-0.1,0-0.2,0.1l-0.3-1C97.7,96.9,97.7,96.8,97.8,96.8z"/>
<path class="st28" d="M97.4,96.9h0.1l0.2,1h-0.2L97.4,96.9z"/>
<path class="st28" d="M94.4,92.3c0.1,0,0.1,0,0.2,0.1l-0.1,0.2l-0.1-0.1h-0.3v0.1h0.3c0.1,0,0.1,0,0.1,0.1l0.1,0.1V93
	c0,0.1,0,0.1-0.1,0.1c-0.1,0-0.1,0.1-0.2,0.1H94c-0.1,0-0.1,0-0.2-0.1l0.1-0.2C94,93,94,93,94.1,93h0.2c0.1,0,0.1,0,0.1-0.1h-0.3
	c-0.1,0-0.1,0-0.2-0.1l-0.1-0.1v-0.2c0-0.1,0-0.1,0.1-0.1c0.1-0.1,0.1-0.1,0.2-0.1H94.4z"/>
<path class="st28" d="M95.6,92.8V93c-0.1,0-0.1,0-0.1,0.1h-0.1c0-0.1,0-0.1-0.1-0.1c-0.1,0-0.1,0-0.1,0.1c0,0,0,0,0,0
	c-0.1,0.1-0.1,0.1-0.2,0.1h-0.2l-0.1-0.1v-0.2c0.1-0.1,0.1-0.1,0.2-0.1l0.1-0.1l0,0v-0.1c0-0.1,0,0-0.1,0h-0.1v0.1h-0.3
	c0-0.1,0-0.1,0.1-0.2s0.1-0.1,0.2-0.1s0.4,0,0.4,0.2l0.1,0.2H95.6z M95.2,92l-0.1,0.3h-0.2V92H95.2z M95.2,92.9L95.2,92.9L95.2,92.9
	C95.1,92.8,95.1,92.9,95.2,92.9L95.2,92.9z"/>
<path class="st28" d="M96.2,92.1c0.1,0,0.1,0,0.1,0.1c0,0,0,0,0,0L96,92.3c0-0.1,0-0.1-0.1-0.1c-0.1,0-0.1,0-0.1,0.1v0.1
	c0,0.1,0,0.1,0.1,0.1H96c0.1,0,0.1,0,0.1-0.1c0,0,0,0,0,0h0.3v0.1l-0.1,0.1c-0.1,0.1-0.1,0.1-0.2,0.1h-0.3c-0.1,0-0.1-0.1-0.2-0.3
	v-0.3c0.1-0.1,0.2-0.2,0.3-0.2C96,92.1,96.1,92.1,96.2,92.1z"/>
<path class="st28" d="M97.3,92.4v0.2c-0.1,0-0.1,0-0.1,0.1c0,0,0,0,0,0h-0.1c0-0.1,0-0.1-0.1-0.1c-0.1,0-0.1,0-0.1,0.1c0,0,0,0,0,0
	c-0.1,0.1-0.1,0.1-0.2,0.1h-0.2l-0.1-0.1v-0.2c0.1-0.1,0.1-0.1,0.2-0.1l0.1-0.1l0,0v-0.1c0-0.1,0,0-0.1,0h-0.1v0.1h-0.3
	c0-0.1,0-0.1,0.1-0.2s0.1-0.1,0.2-0.1s0.4,0,0.4,0.2l0.1,0.2H97.3z M96.9,92.5L96.9,92.5L96.9,92.5c-0.1-0.1-0.1,0-0.1,0H96.9z"/>
<path class="st28" d="M97.9,92.4L97.9,92.4c-0.1,0.1-0.1,0.1-0.2,0.1h-0.2c-0.1,0-0.1-0.1-0.1-0.2L97.3,92h-0.1v-0.2h0.1v-0.2
	l0.3-0.2l0.1,0.2h0.2v0.2h-0.2l0.1,0.2v0.1H98L97.9,92.4z"/>
<path class="st28" d="M98.7,92l-0.5,0.1c0,0.1,0,0.1,0.1,0.1l0,0h0.1c0.1,0,0.1,0,0.1-0.1h0.3c0,0.1,0,0.1-0.1,0.2s-0.1,0.1-0.2,0.1
	h-0.3c-0.1,0-0.1-0.1-0.2-0.3v-0.3c0.1-0.1,0.2-0.2,0.3-0.2h0.3C98.6,91.7,98.6,91.9,98.7,92L98.7,92z M98.2,91.8h0.2
	C98.4,91.7,98.4,91.7,98.2,91.8L98.2,91.8C98.3,91.8,98.3,91.8,98.2,91.8L98.2,91.8z"/>
<path class="st28" d="M93.9,93.7L93.9,93.7l-0.1,0.2h-0.1l-0.1-0.1v-0.2h0.1v0.2l0,0C93.8,93.8,93.8,93.8,93.9,93.7l-0.1-0.2h0.1
	V93.7z"/>
<path class="st28" d="M94.3,93.8L94.3,93.8l-0.2-0.1l0,0V94H94l-0.1-0.3H94l0.1,0.1H94.3l-0.1-0.1v-0.2h0.1L94.3,93.8z"/>
<path class="st28" d="M94.5,93.6L94.5,93.6L94.5,93.6l-0.2,0.1v-0.3h0.1L94.5,93.6L94.5,93.6z M94.5,93.6L94.5,93.6L94.5,93.6
	L94.5,93.6L94.5,93.6z"/>
<path class="st28" d="M95.3,93.2c0.1,0,0.1,0,0.2,0.1l-0.1,0.2l-0.1-0.1H95v0.1h0.3c0.1,0,0.1,0,0.1,0.1l0.1,0.1v0.2
	c0,0.1,0,0.1-0.1,0.1c-0.1,0-0.1,0.1-0.2,0.1h-0.3c-0.1,0-0.1,0-0.2-0.1l0.1-0.2c0.1,0.1,0.1,0.1,0.2,0.1h0.2c0.1,0,0.1,0,0.1-0.1
	H95c-0.1,0-0.1,0-0.2-0.1l-0.1-0.1v-0.2c0-0.1,0-0.1,0.1-0.1c0.1-0.1,0.1-0.1,0.2-0.1H95.3z"/>
<path class="st28" d="M96.6,93.7l0.1,0.2l-0.8,0.2l-0.2-1l0.8-0.2l0.1,0.2l-0.5,0.1v0.2l0.4-0.1v0.2l-0.4,0.1v0.2L96.6,93.7z"/>
<path class="st28" d="M97.4,93.5l0.1,0.2l-0.8,0.2l-0.2-1l0.3-0.1l0.2,0.7L97.4,93.5z"/>
<path class="st28" d="M97.7,92.9v0.2l0.4-0.1l0.1,0.2l-0.4,0.1l0.1,0.3l-0.3,0.1l-0.2-1l0.8-0.2l0.1,0.2L97.7,92.9z"/>
<path class="st28" d="M98.8,93.4l-0.3,0.1l-0.2-1l0.3-0.1L98.8,93.4z"/>
<path class="st28" d="M99.7,93l0.1,0.2L99,93.4l-0.2-1l0.8-0.2l0.1,0.2l-0.5,0.1v0.2l0.4-0.1v0.2l-0.4,0.1v0.2L99.7,93z"/>
<path class="st28" d="M96,95c0.1,0,0.1,0.1,0.1,0.2c0,0.1,0,0.2-0.1,0.3c-0.1,0.1-0.2,0.1-0.3,0.2c-0.3,0.1-0.5,0-0.5-0.1v-0.1
	l0.1-0.1c-0.1,0-0.1,0-0.2-0.1v-0.1c0-0.1,0-0.1,0.1-0.1c-0.1,0-0.2-0.1-0.2-0.2c0-0.1,0-0.2,0.1-0.2c0.1-0.1,0.2-0.1,0.3-0.1h0.2
	v-0.2c0-0.1,0-0.1,0.1-0.1l0,0l0.1,0.2h-0.2v0.1c0.1,0,0.2,0.1,0.2,0.2c0,0.1,0,0.2-0.1,0.2c-0.1,0.1-0.2,0.1-0.3,0.1h-0.1l0.3-0.1
	L96,95z M95.8,95.3L95.8,95.3C95.8,95.4,95.8,95.4,95.8,95.3z M95.4,94.7L95.4,94.7L95.4,94.7l0.2,0.1v-0.2
	C95.5,94.6,95.5,94.6,95.4,94.7z"/>
<path class="st28" d="M97,94.7v0.2c-0.1,0-0.1,0-0.1,0.1c0,0,0,0,0,0h-0.2c0-0.1,0-0.1-0.1-0.1c-0.1,0-0.1,0-0.1,0.1
	c-0.1,0.1-0.1,0.1-0.2,0.1h-0.2c-0.1,0-0.1,0-0.1-0.1c0,0,0,0,0,0v-0.2c0-0.1,0.1-0.1,0.2-0.2l0.2-0.1l0,0v-0.1h-0.2v0.1h-0.3
	c0-0.1,0-0.2,0.1-0.2s0.1-0.1,0.3-0.1s0.4,0,0.5,0.2l0.1,0.3C96.9,94.8,96.9,94.8,97,94.7z M96.5,94.8L96.5,94.8v-0.2h-0.1
	c-0.1,0-0.1,0-0.1,0.1c0,0,0,0,0,0l0,0C96.4,94.9,96.4,94.9,96.5,94.8L96.5,94.8z"/>
<path class="st28" d="M97.7,94c0.1,0,0.1,0.1,0.1,0.2l0.1,0.6l-0.3,0.1l-0.1-0.5v-0.1h-0.1c-0.1,0-0.1,0-0.1,0.1c0,0,0,0,0,0v0.1
	l0.1,0.4L97.1,95l-0.2-0.8l0.3-0.1v0.2c0-0.1,0-0.1,0.1-0.2c0.1-0.1,0.1-0.1,0.2-0.1C97.6,93.9,97.7,93.9,97.7,94z"/>
<path class="st28" d="M99,94.3v0.2c-0.1,0-0.1,0-0.1,0.1c0,0,0,0,0,0h-0.2c0-0.1,0-0.1-0.1-0.1c-0.1,0-0.1,0-0.1,0.1
	c-0.1,0.1-0.1,0.1-0.2,0.1h-0.2c-0.1,0-0.1,0-0.1-0.1c0,0,0,0,0,0v-0.2c0-0.1,0.1-0.1,0.2-0.2l0.2-0.1l0,0V94h-0.2v0.1h-0.3
	c0-0.1,0-0.2,0.1-0.2s0.1-0.1,0.3-0.1s0.4,0,0.5,0.2L99,94.3L99,94.3z M98.5,94.4L98.5,94.4v-0.2h-0.1c-0.1,0-0.1,0-0.1,0.1
	c0,0,0,0,0,0l0,0C98.4,94.4,98.4,94.4,98.5,94.4L98.5,94.4z"/>
<path class="st28" d="M94.8,94.8L94.8,94.8L94.8,94.8L94.8,94.8l-0.3-0.2h0.1l0.1,0.1L94.8,94.8l0-0.2h0.1L94.8,94.8z"/>
<path class="st28" d="M96.4,95.3L96.4,95.3v0.2l0,0V95.3l-0.1,0.1v0.1l0,0v-0.1l0,0v-0.1l0,0v-0.1l0,0L96.4,95.3L96.4,95.3z"/>
<path class="st28" d="M96.7,95.4h-0.2v-0.3h0.3v0.2C96.6,95.4,96.6,95.4,96.7,95.4z"/>
<path class="st28" d="M96.8,95.4L96.8,95.4l-0.1-0.2h0.1V95.4z"/>
<path class="st28" d="M97,95.1v0.2l0,0l-0.1,0.1h-0.1v-0.1h0.1v0.1l0,0C96.9,95.4,97,95.1,97,95.1z"/>
<path class="st28" d="M97.3,95l0.1,0.3h-0.1v-0.2h0.1C97.4,95.1,97.3,95,97.3,95z M97.3,95.2L97.3,95.2
	C97.2,95.2,97.2,95.3,97.3,95.2z"/>
<path class="st28" d="M97.6,95.2L97.6,95.2l-0.1,0.1l0,0C97.5,95.2,97.6,95.2,97.6,95.2L97.6,95.2h0.2
	C97.5,95.1,97.5,95.1,97.6,95.2z"/>
<path class="st28" d="M97.7,94.9l0.1,0.3h-0.1V95h0.1C97.8,95,97.7,94.9,97.7,94.9z M97.7,95.1L97.7,95.1C97.7,95,97.6,95,97.7,95.1
	z"/>
<path class="st28" d="M98,95.1L98,95.1l-0.1,0.1l0,0C97.9,95.1,98,95.1,98,95.1L98,95.1h0.2C98,95,98,95,98,95.1z"/>
<path class="st28" d="M98.2,94.9L98.2,94.9l0.1,0.2h-0.1V94.9L98.2,94.9L98.1,95v0.1H98v-0.2H98.2z"/>
<path class="st28" d="M98.5,94.8L98.5,94.8c0.1,0.1,0,0.1,0,0.2s0,0-0.1,0h-0.1v-0.2H98.5z M98.4,94.9L98.4,94.9
	c0,0.1,0,0.1,0.1,0.1C98.4,95,98.4,95,98.4,94.9C98.5,95,98.5,94.9,98.4,94.9z"/>
<path class="st28" d="M98.5,94.7h0.2v0.1L98.5,94.7L98.5,94.7z M98.6,94.8L98.6,94.8z"/>
<path class="st28" d="M99,94.8h-0.1C98.9,94.9,98.9,94.9,99,94.8L99,94.8c0,0.1,0,0.1-0.1,0.1h-0.1v-0.2h0.1L99,94.8z"/>
<path class="st28" d="M99.2,94.8L99.2,94.8c0,0.1,0,0.1-0.1,0.1H99v-0.2L99.2,94.8C99.2,94.7,99.2,94.7,99.2,94.8
	C99.2,94.8,99.2,94.8,99.2,94.8L99.2,94.8z"/>
<path class="st28" d="M99.4,94.6L99.4,94.6C99.3,94.6,99.3,94.7,99.4,94.6l-0.1,0.1v0.1h-0.1v-0.2H99.4z"/>
<path class="st28" d="M99.5,94.7L99.5,94.7C99.5,94.8,99.4,94.8,99.5,94.7l-0.1-0.2h0.1V94.7z"/>
<path class="st28" d="M99.7,94.7L99.7,94.7C99.7,94.8,99.6,94.8,99.7,94.7l-0.1,0.1l0,0L99.7,94.7L99.7,94.7l-0.2-0.2h0.1L99.7,94.7
	L99.7,94.7l0-0.2h0.1L99.7,94.7z"/>
<path d="M95.1,96.7c-0.3,0.1-0.5,0.3-0.4,0.6s0.3,0.5,0.6,0.4c0.3-0.1,0.5-0.3,0.4-0.6c0,0,0,0,0,0C95.6,96.9,95.4,96.7,95.1,96.7z
	 M95.3,97.2L95.3,97.2v0.3h-0.1l-0.1-0.3H95v-0.1h0.1V97c0-0.1,0-0.1,0.1-0.1h0.1V97h-0.1L95.3,97.2z"/>
<path d="M99.9,96.1c0.1,0,0.1,0,0.1-0.1c0,0,0,0,0,0L99.9,96.1c-0.1-0.1-0.1-0.1-0.1,0c0,0,0,0,0,0v0.1C99.8,96,99.8,96.1,99.9,96.1
	z"/>
<path d="M100.1,95.8L100.1,95.8l-0.1-0.1L100.1,95.8z"/>
<path d="M99.8,95.5c-0.3,0.1-0.5,0.3-0.4,0.6c0.1,0.3,0.3,0.5,0.6,0.4c0.3-0.1,0.5-0.3,0.4-0.6c0,0,0,0,0,0
	C100.3,95.6,100,95.4,99.8,95.5z M100.1,95.8l0.1,0.2c0,0.1,0,0.1-0.1,0.1l-0.3,0.1c-0.1,0-0.1,0-0.1-0.1l-0.1-0.3
	c0-0.1,0-0.1,0.1-0.1l0.3-0.1c0.1,0,0.1,0,0.1,0.1V95.8z"/>
<path d="M100,95.9c0,0.1,0,0.2-0.1,0.2s-0.2,0-0.2-0.1v-0.1h-0.1l0.1,0.2h0.1l0.3-0.1v-0.1H100z"/>
<path class="st28" d="M95.6,96.2"/>
<path class="st28" d="M95.7,96.3L95.7,96.3l-0.1-0.2l0,0L95.7,96.3z"/>
<path class="st28" d="M95.9,96.2L95.9,96.2L95.9,96.2L95.9,96.2L95.9,96.2L95.9,96.2L95.8,96l0,0L95.9,96.2L95.9,96.2L95.8,96l0,0
	L95.9,96.2z"/>
<path class="st28" d="M95.9,96.1L95.9,96.1L95.9,96.1L95.9,96.1L95.9,96.1z"/>
<path class="st28" d="M96.2,96L96.2,96l0.1,0.1l0,0C96.1,96,96.1,96,96.2,96z M96.1,96.1L96.1,96.1C96.2,96.1,96.2,96,96.1,96.1
	C96.2,96,96.1,96,96.1,96.1z"/>
<path class="st28" d="M96.5,96.1L96.5,96.1l-0.1,0.1V96l0,0L96.5,96.1z"/>
<path class="st28" d="M96.7,96.1L96.7,96.1L96.6,96l0,0v0.1l0,0v-0.2l0,0L96.7,96.1L96.7,96.1l-0.1-0.2l0,0L96.7,96.1z"/>
<path class="st28" d="M96.7,96"/>
<path class="st28" d="M97,95.8L97,95.8L97,95.8L97,95.8L97,95.8h-0.1l0,0l0,0H97L97,95.8z"/>
<path class="st28" d="M97.3,95.8L97.3,95.8L97.3,95.8L97.3,95.8L97.3,95.8h-0.1l0,0l0,0H97.3L97.3,95.8z"/>
<path class="st28" d="M97.5,95.7L97.5,95.7L97.5,95.7L97.5,95.7L97.5,95.7h-0.1l0,0l0,0H97.5L97.5,95.7z"/>
<path class="st28" d="M97.6,95.8"/>
<path class="st28" d="M97.7,95.7L97.7,95.7L97.7,95.7L97.7,95.7L97.7,95.7z M97.7,95.8L97.7,95.8C97.7,95.7,97.6,95.7,97.7,95.8z"/>
<path class="st28" d="M97.9,95.7L97.9,95.7C97.8,95.8,97.9,95.8,97.9,95.7L97.9,95.7l-0.1,0.1l0,0v-0.1H97.9z"/>
<path class="st28" d="M98,95.7L98,95.7l-0.1,0.1l0,0v-0.1C97.9,95.6,97.9,95.6,98,95.7z"/>
<path class="st28" d="M98.1,95.6L98.1,95.6L98.1,95.6L98.1,95.6L98.1,95.6z"/>
<path class="st28" d="M98.2,95.7L98.2,95.7l-0.1-0.1l0,0L98.2,95.7z"/>
<path class="st28" d="M98.3,95.7L98.3,95.7l-0.1-0.1l0,0L98.3,95.7L98.3,95.7L98.3,95.7L98.3,95.7L98.3,95.7z"/>
<path class="st28" d="M98.4,95.6"/>
<path class="st28" d="M98.5,95.5L98.5,95.5C98.4,95.6,98.5,95.6,98.5,95.5L98.5,95.5L98.5,95.5L98.5,95.5L98.5,95.5l-0.1,0.1
	C98.5,95.6,98.4,95.6,98.5,95.5C98.4,95.6,98.4,95.5,98.5,95.5z"/>
<path class="st28" d="M98.6,95.6L98.6,95.6l-0.1-0.1l0,0L98.6,95.6z"/>
<path class="st28" d="M98.7,95.6L98.7,95.6v-0.2l0,0V95.6z"/>
<path class="st28" d="M98.9,95.5L98.9,95.5l-0.1,0.1l0,0L98.9,95.5h-0.1C98.9,95.4,98.9,95.4,98.9,95.5z"/>
<path class="st28" d="M99.1,95.5L99.1,95.5c-0.1,0.1-0.1,0-0.1,0H99.1L99,95.4l0,0L99.1,95.5z"/>
<path class="st28" d="M99.2,95.3L99.2,95.3L99.2,95.3L99.2,95.3L99.2,95.3C99.2,95.4,99.1,95.4,99.2,95.3L99.2,95.3L99.2,95.3
	L99.2,95.3L99.2,95.3z"/>
<path class="st28" d="M99.4,95.4L99.4,95.4c-0.1,0.1-0.1,0-0.1,0H99.4l-0.1-0.1l0,0L99.4,95.4z"/>
<path class="st28" d="M93,90.7L93,90.7L93,90.7L93,90.7L93,90.7L93,90.7L93,90.7z"/>
<path class="st28" d="M93.1,90.7L93.1,90.7l-0.2-0.1l0,0L93.1,90.7z"/>
<path class="st28" d="M93.3,90.5L93.3,90.5L93.3,90.5h-0.2H93.3l-0.2-0.1l0,0L93.3,90.5z"/>
<path class="st28" d="M93.2,90.4L93.2,90.4L93.2,90.4L93.2,90.4L93.2,90.4z"/>
<path class="st28" d="M93.4,90.2L93.4,90.2C93.5,90.2,93.5,90.2,93.4,90.2L93.4,90.2C93.3,90.3,93.3,90.2,93.4,90.2z M93.3,90.3
	L93.3,90.3L93.3,90.3L93.3,90.3C93.4,90.3,93.4,90.2,93.3,90.3z"/>
<path class="st28" d="M93.7,90.1L93.7,90.1L93.7,90.1h-0.2H93.7L93.7,90.1L93.7,90.1z"/>
<path class="st28" d="M93.9,90L93.9,90L93.9,90h-0.2H93.9L93.9,90L93.9,90L93.9,90z"/>
<path class="st28" d="M93.9,89.9"/>
<path class="st28" d="M94.1,89.6L94.1,89.6L94.1,89.6L94.1,89.6L94.1,89.6L94.1,89.6h-0.2l0,0H94.1L94.1,89.6L94.1,89.6L94.1,89.6z"
	/>
<path class="st28" d="M94.4,89.5L94.4,89.5L94.4,89.5L94.4,89.5l-0.1,0.2l0,0l-0.1-0.1l0,0l0.1,0.1L94.4,89.5L94.4,89.5L94.4,89.5z"
	/>
<path class="st28" d="M94.6,89.3L94.6,89.3L94.6,89.3L94.6,89.3l-0.1,0.2l0,0l-0.1-0.1l0,0l0.1,0.1L94.6,89.3L94.6,89.3L94.6,89.3z"
	/>
<path class="st28" d="M94.7,89.4"/>
<path class="st28" d="M94.8,89.3L94.8,89.3L94.8,89.3L94.8,89.3L94.8,89.3L94.8,89.3L94.8,89.3z"/>
<path class="st28" d="M95,89.2L95,89.2C94.9,89.3,94.9,89.3,95,89.2L95,89.2C94.8,89.2,94.9,89.2,95,89.2z"/>
<path class="st28" d="M95.1,89.2L95.1,89.2C95,89.3,95,89.3,95.1,89.2L95.1,89.2L95.1,89.2z"/>
<path class="st28" d="M95.2,89.1L95.2,89.1v0.2l0,0V89.1z"/>
<path class="st28" d="M95.3,89.1L95.3,89.1L95.3,89.1L95.3,89.1L95.3,89.1z"/>
<path class="st28" d="M95.5,89.1C95.5,89.2,95.4,89.2,95.5,89.1L95.5,89.1L95.5,89.1L95.5,89.1L95.5,89.1L95.5,89.1L95.5,89.1
	L95.5,89.1L95.5,89.1z"/>
<path class="st28" d="M95.5,89.1"/>
<path class="st28" d="M95.7,88.9L95.7,88.9C95.6,89,95.6,89,95.7,88.9L95.7,88.9L95.7,88.9L95.7,88.9L95.7,88.9L95.7,88.9
	C95.6,89.1,95.6,89.1,95.7,88.9C95.5,89,95.6,89,95.7,88.9z"/>
<path class="st28" d="M95.8,89L95.8,89C95.8,89.1,95.7,89.1,95.8,89C95.7,89.1,95.7,89,95.8,89L95.8,89L95.8,89L95.8,89z"/>
<path class="st28" d="M95.8,89.1L95.8,89.1v-0.2l0,0V89.1z"/>
<path class="st28" d="M96,89L96,89L96,89L96,89C96,88.9,96,88.9,96,89z"/>
<path class="st28" d="M96.2,89h-0.1C96.1,89,96.1,88.9,96.2,89L96.2,89C96.2,88.9,96.1,88.9,96.2,89L96.2,89l-0.1-0.1l0,0
	C96.2,88.9,96.2,88.9,96.2,89z"/>
<path class="st28" d="M96.4,88.8L96.4,88.8L96.4,88.8L96.4,88.8L96.4,88.8L96.4,88.8l-0.1,0.1l0,0v-0.1H96.4
	C96.3,88.9,96.3,88.8,96.4,88.8z"/>
<path class="st28" d="M96.6,88.9L96.6,88.9l-0.1-0.1l0,0C96.5,88.9,96.6,88.9,96.6,88.9z"/>
<polygon class="st27" points="120.7,102.8 127,97.7 128.4,103.7 122.1,108.7 "/>
<polygon class="st25" points="94.9,108.8 94.1,105.4 105.9,102.7 99.6,107.7 "/>
<polygon class="st27" points="94.1,105.4 87.8,110.5 94.9,108.8 "/>
<g>
	<defs>
		<path id="SVGID_3_" d="M69,98.9l3.1,13.4c0.1,0.3,1.2,0.3,2.4,0s2.2-0.8,2.1-1.1l-3.1-13.4L69,98.9z"/>
	</defs>
	<clipPath id="SVGID_4_">
		<use xlink:href="#SVGID_3_"  style="overflow:visible;"/>
	</clipPath>
	<g class="st29">
		<path class="st30" d="M74.1,104.6c-0.4-1.6-0.9-3.2-1.6-4.7c0.1-0.1,0.1-0.2,0-0.4l-0.2-0.4l-0.8,0.1l-0.7,0.3
			c0.1,0.1,0.1,0.3,0,0.4c-0.1,0.2,0,0.3,0.1,0.3c0,1.7,0.2,3.3,0.7,4.9c0.1,0.4-0.6,0.9-0.4,1.5s1.4,5.8,1.5,6.2s0.4,1.1,2.2,0.6
			s1.8-1.1,1.7-1.5s-1.3-5.5-1.5-6.2C75,105.2,74.2,105.1,74.1,104.6z"/>
		<path class="st31" d="M74.8,113.4c-1.9,0.4-2.1-0.2-2.2-0.6c0,0.1,0,0.2,0.1,0.2c0.1,0.4,0.4,1.1,2.2,0.6s1.8-1.1,1.7-1.5
			c0-0.1,0-0.1-0.1-0.2C76.6,112.3,76.7,113,74.8,113.4z"/>
		<g class="st32">
			<path class="st33" d="M73,105.5c-1.1,0.3-1.6,0.9-1.3,2.4s0.9,4,1.1,4.7s0.7,0.9,2,0.6s1.7-0.7,1.5-1.4s-0.8-3.3-1.1-4.7
				S74.1,105.2,73,105.5z"/>
			<path class="st33" d="M72.3,99.7c-0.2,0.1-0.5,0.2-0.7,0.2c-0.2,0.1-0.5,0.1-0.7,0.1c-0.1,0.4,0.5,0.2,0.8,0.1
				S72.6,100,72.3,99.7z"/>
			<path class="st34" d="M72.2,99.4l-0.6,0.2c-0.2,0.1-0.4,0.1-0.6,0.1c0.1,0.1,0.1,0.1,0,0.2c0,0,0,0,0,0c0.2,0,0.5-0.1,0.7-0.1
				c0.2,0,0.4-0.1,0.6-0.2C72.3,99.5,72.2,99.5,72.2,99.4z"/>
			<path class="st33" d="M72.4,100.1c-0.2,0.1-0.4,0.2-0.6,0.2c-0.2,0.1-0.4,0.1-0.6,0.1c0.1,1.4,0.3,2.8,0.6,4.2
				c0.1,0.4,0.6,0.7,1,0.5c0,0,0.1,0,0.1,0l0,0c0.5-0.1,0.9-0.5,0.8-1C73.4,102.7,73,101.4,72.4,100.1z"/>
		</g>
		<path class="st35" d="M73,105.5c-1.1,0.3-1.6,0.9-1.3,2.4c0,0.1,0.1,0.2,0.1,0.4c-0.3-1.4,0.1-2.2,1.3-2.5s1.9,0.2,2.2,1.7
			c0-0.1-0.1-0.3-0.1-0.4C74.8,105.6,74.1,105.2,73,105.5z"/>
		<path class="st36" d="M73,101c-0.3,0.1-0.7,0.2-1,0.3c-0.3,0.1-0.7,0.1-1,0.1c0,0.8,0.1,1.5,0.3,2.3c0.4,0,0.8,0,1.2-0.1
			c0.4-0.1,0.8-0.3,1.2-0.5C73.4,102.2,73.2,101.5,73,101z"/>
		<path class="st37" d="M73,101.1c-0.3,0.2-0.6,0.3-1,0.4c-0.3,0.1-0.7,0.1-1,0.1c0,0.6,0.1,1.3,0.3,1.9c0.4,0.1,0.8,0.1,1.2,0
			c0.4-0.1,0.9-0.3,1.2-0.6C73.4,102.2,73.2,101.6,73,101.1z"/>
		<path class="st36" d="M72.5,112.4c0.7,0.1,1.4,0,2-0.2c0.7-0.2,1.3-0.4,1.9-0.7c-0.2-1.1-0.7-3.2-1.1-4.5
			c-0.6,0.4-1.2,0.6-1.9,0.7c-0.7,0.1-1.3,0.2-2,0.2C71.8,109.2,72.3,111.3,72.5,112.4z"/>
		<path class="st37" d="M72.5,112c0.7,0.2,1.4,0.1,2-0.1c0.7-0.1,1.3-0.4,1.9-0.8c-0.3-1.1-0.7-2.8-0.9-4c-0.6,0.4-1.2,0.7-1.9,0.8
			c-0.6,0.2-1.3,0.3-2,0.1C71.8,109.2,72.2,110.9,72.5,112z"/>
		<path class="st38" d="M71.5,99.3l-0.7,0.3c0.1,0.1,0.1,0.3,0,0.4c-0.1,0.2,0,0.3,0.1,0.3c0,1.7,0.2,3.3,0.7,4.9
			c0.1,0.4-0.6,0.9-0.4,1.5s1.4,5.8,1.5,6.2s0.4,1.1,2.2,0.6L71.5,99.3z"/>
		<path class="st37" d="M72.1,99c-0.2,0-0.4,0-0.6,0.1s-0.4,0.1-0.6,0.1c-0.2,0-0.2,0.4-0.2,0.4c0.3,0,0.6-0.1,0.9-0.2
			s0.6-0.2,0.9-0.2C72.5,99.2,72.3,98.9,72.1,99z"/>
		<path class="st39" d="M72,99.3c0-0.1,0-0.1-0.1-0.1c-0.1,0-0.1,0-0.1,0.1c0,0,0,0,0,0l0,0C71.9,99.4,72,99.4,72,99.3
			C72,99.3,72,99.3,72,99.3z"/>
		<path class="st39" d="M71.8,99.4C71.8,99.3,71.8,99.3,71.8,99.4h-0.2H71.8z"/>
		<path class="st39" d="M72.3,99.2c0-0.1,0-0.1-0.1-0.1c-0.1,0-0.1,0-0.1,0.1c0,0,0,0,0,0l0,0C72.2,99.3,72.3,99.3,72.3,99.2z"/>
		<path class="st39" d="M71.4,99.4C71.4,99.4,71.3,99.4,71.4,99.4L71.4,99.4C71.5,99.4,71.5,99.3,71.4,99.4z"/>
		<path class="st39" d="M71.1,99.4C71.1,99.4,71,99.4,71.1,99.4L71.1,99.4C71.2,99.4,71.2,99.4,71.1,99.4z"/>
		<path class="st39" d="M70.8,99.6H71C71,99.5,71,99.5,70.8,99.6C70.8,99.5,70.8,99.5,70.8,99.6z"/>
	</g>
</g>
<g>
	<defs>
		<path id="SVGID_5_" d="M74.2,97.7l3.1,13.4c0.1,0.3,1.2,0.3,2.4,0s2.2-0.8,2.1-1.1l-3.1-13.4L74.2,97.7z"/>
	</defs>
	<clipPath id="SVGID_6_">
		<use xlink:href="#SVGID_5_"  style="overflow:visible;"/>
	</clipPath>
	<g class="st40">
		<path class="st41" d="M81.8,111.3l-1.7-7.1c-0.2-0.8-0.9-0.6-1.3-1.6c-0.3-0.7-1.2-3.7-1.2-3.7s0.1,0,0.1-0.2s-0.2-0.2-0.2-0.3
			c-0.1-0.1-0.1-0.3-0.1-0.4l-0.7,0.2L76,98.4c0,0.1,0,0.3,0.1,0.4c0,0.1-0.1,0.2,0,0.4s0.2,0.1,0.2,0.1s0.5,3.2,0.6,3.9
			c0.1,1-0.6,1.2-0.5,2l1.7,7.1c0.1,0.4,0,0.4,0.2,0.5c0.6,0,1.2-0.1,1.8-0.2c0.6-0.1,1.2-0.3,1.7-0.6
			C82,111.7,81.9,111.7,81.8,111.3z"/>
		<path class="st42" d="M80,112.1c-0.6,0.2-1.3,0.2-1.9,0.2c0,0.3,0,0.3,0.1,0.3c0.6,0,1.2-0.1,1.8-0.2c0.6-0.1,1.2-0.3,1.7-0.6
			c0.1-0.1,0.1-0.1,0-0.3C81.2,111.8,80.6,112,80,112.1z"/>
		<path class="st43" d="M77.5,98.5c-0.2,0.1-0.4,0.2-0.6,0.2c-0.2,0-0.4,0-0.6,0.1c-0.1,0.1,0,0.2,0.1,0.3c0,0,0,0,0,0
			c0.2,0,0.5,0,0.7-0.1c0.2,0,0.4-0.1,0.6-0.2C77.7,98.7,77.5,98.5,77.5,98.5z"/>
		<path class="st43" d="M77.4,99c-0.1,0.1-0.3,0.1-0.4,0.1c-0.1,0.1-0.3,0.1-0.4,0.1c0,0,0.5,3.2,0.6,3.6c0.1,0.4,0.4,0.6,0.8,0.5
			c0.3-0.1,0.6-0.4,0.5-0.7c0,0,0-0.1,0-0.1C78.4,102.2,77.4,99,77.4,99z"/>
		<path class="st43" d="M78,103.6c-0.8,0.2-1.3,0.9-1.3,1.7c0.1,0.6,0.7,2.8,0.7,2.8s0.7,3.1,0.9,3.6s1.1,0.3,1.8,0.2
			s1.6-0.5,1.5-0.9s-0.9-3.6-0.9-3.6s-0.5-2.3-0.7-2.8C79.7,103.8,78.8,103.4,78,103.6z"/>
		<path class="st43" d="M78,103.6c-0.8,0.2-1.3,0.9-1.3,1.7c0.1,0.6,0.7,2.8,0.7,2.8s0.7,3.1,0.9,3.6s1.1,0.3,1.8,0.2
			s1.6-0.5,1.5-0.9s-0.9-3.6-0.9-3.6s-0.5-2.3-0.7-2.8C79.7,103.8,78.8,103.4,78,103.6z"/>
		<path class="st44" d="M78,103.6c-0.8,0.2-1.3,0.9-1.3,1.7v0.2c0-0.9,0.7-1.7,1.6-1.7c0.7,0,1.3,0.3,1.6,0.9v-0.2
			C79.6,103.8,78.8,103.4,78,103.6z"/>
		<path class="st43" d="M76.8,98.2c-0.2,0.1-0.4,0.1-0.6,0.1l0.1,0.3c0.2,0,0.4,0,0.6-0.1c0.2,0,0.4-0.1,0.6-0.2L77.4,98
			C77.4,98.1,77.1,98.2,76.8,98.2z"/>
		<path class="st45" d="M77.9,99.9c-0.2,0.1-0.5,0.2-0.7,0.3c-0.2,0.1-0.5,0.1-0.7,0.1c0.1,0.5,0.2,0.9,0.2,1.4h0.8
			c0.3-0.1,0.6-0.2,0.8-0.4C78.2,100.8,78.1,100.3,77.9,99.9z"/>
		<path class="st46" d="M77.2,100.3c-0.2,0.1-0.5,0.1-0.7,0.1c0.1,0.4,0.1,0.8,0.2,1.2h0.8c0.4-0.1,0.7-0.2,0.8-0.4
			c-0.1-0.4-0.3-0.8-0.4-1.2C77.7,100.2,77.5,100.3,77.2,100.3z"/>
		<ellipse transform="matrix(0.9734 -0.229 0.229 0.9734 -22.6132 20.9672)" class="st45" cx="79" cy="107.9" rx="1.8" ry="2.7"/>
		<ellipse transform="matrix(0.9734 -0.229 0.229 0.9734 -22.6132 20.9672)" class="st46" cx="79" cy="107.9" rx="1.7" ry="2.5"/>
		<ellipse transform="matrix(0.9734 -0.229 0.229 0.9734 -22.6132 20.9672)" class="st47" cx="79" cy="107.9" rx="1.5" ry="2.1"/>
		
			<rect x="79" y="108.8" transform="matrix(0.5264 -0.8503 0.8503 0.5264 -55.21 119.1705)" class="st48" width="0.7" height="0.7"/>
		
			<rect x="79.1" y="108.6" transform="matrix(0.5264 -0.8503 0.8503 0.5264 -55.007 119.0487)" class="st46" width="0.5" height="0.5"/>
		
			<rect x="79" y="108.5" transform="matrix(0.5264 -0.8503 0.8503 0.5264 -54.9112 118.9083)" class="st48" width="0.5" height="0.5"/>
		
			<rect x="78.6" y="106.4" transform="matrix(0.5264 -0.8503 0.8503 0.5264 -53.3344 117.5063)" class="st48" width="0.5" height="0.5"/>
		
			<rect x="78.6" y="106.6" transform="matrix(0.5264 -0.8503 0.8503 0.5264 -53.4758 117.552)" class="st46" width="0.3" height="0.3"/>
		
			<rect x="78.6" y="106.8" transform="matrix(0.5264 -0.8503 0.8503 0.5264 -53.6193 117.6063)" class="st48" width="0.3" height="0.3"/>
		<path class="st38" d="M76.7,98.1L76,98.3c0,0.1,0,0.3,0.1,0.4c0,0.1-0.1,0.2,0,0.4s0.2,0.1,0.2,0.1s0.5,3.2,0.6,3.9
			c0.1,1-0.6,1.2-0.5,2c0.1,0.5,1.6,6.7,1.7,7.1s0,0.4,0.2,0.5c0.6,0,1.2-0.1,1.8-0.2L76.7,98.1z"/>
		<path class="st45" d="M77.3,97.7c-0.2,0-0.4,0-0.6,0.1s-0.4,0.1-0.6,0.1c-0.2,0-0.2,0.4-0.2,0.4c0.3,0,0.6-0.1,0.9-0.2
			s0.6-0.2,0.9-0.2C77.7,97.9,77.5,97.6,77.3,97.7z"/>
		<path class="st49" d="M77.2,98c0-0.1,0-0.1-0.1-0.1c-0.1,0-0.1,0-0.1,0.1c0,0,0,0,0,0l0,0C77.1,98.1,77.2,98.1,77.2,98
			C77.2,98,77.2,98,77.2,98z"/>
		<path class="st49" d="M77,98.1C77,98,77,98,77,98.1h-0.2H77z"/>
		<path class="st49" d="M77.5,97.9C77.5,97.8,77.5,97.8,77.5,97.9h-0.2l0,0C77.4,98,77.5,98,77.5,97.9z"/>
		<path class="st49" d="M76.6,98C76.6,98,76.5,98,76.6,98L76.6,98L76.6,98z"/>
		<path class="st49" d="M76.3,98.1C76.3,98.1,76.2,98.1,76.3,98.1L76.3,98.1C76.4,98.1,76.4,98.1,76.3,98.1z"/>
		<path class="st49" d="M76,98.3h0.2C76.2,98.2,76.2,98.2,76,98.3C76,98.2,76,98.2,76,98.3z"/>
	</g>
</g>
<g>
	<defs>
		<path id="SVGID_7_" d="M79.5,96.4l3.1,13.4c0.1,0.3,1.2,0.3,2.4,0s2.2-0.8,2.1-1.1L84,95.3L79.5,96.4z"/>
	</defs>
	<clipPath id="SVGID_8_">
		<use xlink:href="#SVGID_7_"  style="overflow:visible;"/>
	</clipPath>
	<g class="st50">
		<path class="st51" d="M84.1,100.7c-0.1-0.3-0.2-0.5-0.3-0.8c-0.4-1-0.8-2.1-1.1-3.2c0.2-0.2-0.3-0.5-0.3-0.5l-0.6,0.1l-0.6,0.2
			c0,0-0.3,0.5,0,0.6c0,0,0.4,2.8,0.5,3.4s0,0.8,0.1,0.9c-0.3,0.7-0.4,1.5-0.3,2.2c1.2,5,1.5,6.5,1.7,7.1s0.4,1.1,2.3,0.7
			s1.8-1.1,1.7-1.6s-0.5-2.1-1.7-7.1C85.3,101.9,84.8,101.2,84.1,100.7z"/>
		<path class="st52" d="M87.1,109.7c0,0.4-0.4,0.9-1.8,1.2s-1.9,0.1-2.2-0.3c0.2,0.5,0.5,1,2.2,0.6S87.1,110.2,87.1,109.7z"/>
		<path class="st53" d="M82.6,96.5l-0.2-0.2l-0.6,0.2c-0.2,0.1-0.4,0.1-0.6,0.1c-0.1,0.1-0.1,0.2-0.1,0.3c0,0.1,0.1,0.2,0.7,0
			S82.7,96.6,82.6,96.5z"/>
		<path class="st53" d="M83.7,100.2c-0.1-0.3-1.2-3.4-1.2-3.4L81.9,97c-0.2,0.1-0.4,0.1-0.6,0.1c0,0,0.5,3.3,0.5,3.6s0,0.6,1.1,0.3
			S83.8,100.4,83.7,100.2z"/>
		<path class="st53" d="M82.9,101.1c-1,0.3-1.7,1.3-1.4,2.4c0,0.1,0,0.2,0.1,0.2c0.4,1.5,1.4,6.1,1.6,6.7s1.1,0.6,2,0.4
			s1.8-0.6,1.6-1.2s-1.2-5.2-1.6-6.7C84.9,101.2,83.7,100.9,82.9,101.1z"/>
		<path class="st54" d="M82.9,101.1c-1,0.3-1.7,1.3-1.4,2.4c0,0.1,0,0.2,0.1,0.2c0,0.1,0,0.2,0.1,0.3c-0.4-1,0.2-2.2,1.2-2.6
			c0,0,0.1,0,0.1,0c1-0.2,2.1,0.5,2.3,1.5c0,0.1,0,0.1,0,0.2c0-0.1,0-0.2-0.1-0.3c-0.1-1-0.9-1.8-2-1.8
			C83.1,101.1,83,101.1,82.9,101.1z"/>
		<ellipse transform="matrix(0.9734 -0.229 0.229 0.9734 -22.1521 22.1182)" class="st55" cx="84.2" cy="106.5" rx="1.9" ry="2.6"/>
		<ellipse transform="matrix(0.9734 -0.229 0.229 0.9734 -22.1521 22.1182)" class="st1" cx="84.2" cy="106.5" rx="1.7" ry="2.4"/>
		<ellipse transform="matrix(0.9734 -0.229 0.229 0.9734 -22.1521 22.1182)" class="st56" cx="84.2" cy="106.5" rx="1.6" ry="2.2"/>
		<path class="st55" d="M82.8,100.4c0.3-0.1,0.7-0.2,1-0.4v-0.1c-0.2-0.4-0.7-2-1-2.8c-0.2,0.1-0.5,0.2-0.7,0.3
			c-0.3,0.1-0.5,0.1-0.8,0.1c0.1,0.8,0.4,2.5,0.4,2.9v0.1C82.1,100.5,82.4,100.5,82.8,100.4z"/>
		<path class="st1" d="M82.8,100.2c0.3-0.1,0.7-0.2,1-0.4c-0.2-0.5-0.6-1.8-0.9-2.6c-0.2,0.1-0.5,0.2-0.7,0.3
			c-0.3,0.1-0.6,0.1-0.9,0.1c0.1,0.8,0.3,2.2,0.4,2.7C82.1,100.3,82.4,100.3,82.8,100.2z"/>
		<path class="st56" d="M82.7,100.1c0.4-0.1,0.7-0.3,1-0.5c-0.2-0.5-0.6-1.7-0.8-2.4c-0.3,0.1-0.5,0.2-0.8,0.3
			c-0.3,0.1-0.6,0.1-0.9,0.1c0.1,0.8,0.2,1.7,0.3,2.5C81.9,100.2,82.3,100.2,82.7,100.1z"/>
		<polygon class="st55" points="83.8,104.7 84,105 84.5,104.9 84.2,105.3 84.4,105.7 84,105.6 83.7,105.8 83.7,105.4 83.3,105.2 
			83.7,105.1 		"/>
		<polygon class="st1" points="83.8,104.8 84,105 84.3,105 84.1,105.3 84.2,105.5 84,105.5 83.8,105.6 83.7,105.4 83.5,105.2 
			83.8,105.1 		"/>
		<polygon class="st55" points="82.3,98.2 82.5,98.5 82.9,98.4 82.7,98.8 82.9,99.2 82.5,99.1 82.2,99.3 82.1,98.9 81.8,98.7 
			82.2,98.6 		"/>
		<polygon class="st1" points="82.3,98.3 82.5,98.6 82.8,98.5 82.6,98.8 82.7,99 82.4,99 82.2,99.1 82.2,98.9 82,98.7 82.2,98.6 		
			"/>
		
			<rect x="82.4" y="99.4" transform="matrix(0.5264 -0.8503 0.8503 0.5264 -45.5536 117.4146)" class="st55" width="0.4" height="0.4"/>
		
			<rect x="82.5" y="99.5" transform="matrix(0.5264 -0.8503 0.8503 0.5264 -45.5536 117.4146)" class="st56" width="0.2" height="0.2"/>
		<path class="st38" d="M81.8,96.2l-0.6,0.2c0,0-0.3,0.5,0,0.6c0,0,0.4,2.8,0.5,3.4c0.1,0.6,0,0.8,0.1,0.9c-0.3,0.7-0.4,1.5-0.3,2.2
			c1.2,5,1.5,6.5,1.7,7.1s0.4,1.1,2.3,0.7L81.8,96.2z"/>
		<path class="st56" d="M82.3,95.8c-0.2,0-0.4,0-0.6,0.1S81.3,96,81.1,96c-0.2,0-0.1,0.5-0.1,0.5c0.3,0,0.6-0.1,0.9-0.2
			c0.3-0.1,0.5-0.2,0.8-0.2C82.7,96.1,82.5,95.7,82.3,95.8z"/>
		<path class="st57" d="M82.3,96.2C82.3,96.1,82.3,96.1,82.3,96.2c-0.2-0.1-0.2,0-0.2,0.1l0,0C82.2,96.3,82.3,96.3,82.3,96.2z"/>
		<path class="st57" d="M82,96.3C82,96.2,82,96.2,82,96.3h-0.2H82z"/>
		<path class="st57" d="M82.6,96.1C82.6,96,82.6,96,82.6,96.1c-0.2-0.1-0.2,0-0.2,0.1l0,0C82.5,96.2,82.5,96.2,82.6,96.1z"/>
		<path class="st57" d="M81.7,96.2C81.7,96.2,81.6,96.2,81.7,96.2L81.7,96.2L81.7,96.2z"/>
		<path class="st57" d="M81.4,96.3C81.4,96.3,81.3,96.3,81.4,96.3L81.4,96.3C81.5,96.3,81.5,96.3,81.4,96.3z"/>
		<path class="st57" d="M81.1,96.5h0.2C81.3,96.4,81.3,96.4,81.1,96.5C81.2,96.4,81,96.4,81.1,96.5z"/>
	</g>
</g>
<g>
	<defs>
		<path id="SVGID_9_" d="M103.1,90.9l3.1,13.4c0.1,0.3,1.2,0.3,2.4,0s2.2-0.8,2.1-1.1l-3.1-13.4L103.1,90.9z"/>
	</defs>
	<clipPath id="SVGID_10_">
		<use xlink:href="#SVGID_9_"  style="overflow:visible;"/>
	</clipPath>
	<g class="st58">
		<path class="st59" d="M107.7,95.5c-0.3-1.2-0.7-2.4-1.1-3.6c0.2-0.2-0.3-0.7-0.3-0.7l-1.3,0.3c0,0-0.2,0.7,0.1,0.7
			c0.1,1.3,0.3,2.5,0.6,3.8c0.2,0.8-0.5,1.7-0.4,2.3l1.7,7c0.1,0.4,0.3,0.7,2.1,0.3s1.9-0.7,1.8-1.2l-1.7-7
			C109,96.8,107.9,96.3,107.7,95.5z"/>
		<path class="st60" d="M106.4,92l-0.6,0.2c-0.2,0.1-0.4,0.1-0.6,0.1c0,0,0.4,2.7,0.6,3.5c0.1,0.5,0.5,0.8,1,0.7c0,0,0.1,0,0.1,0
			c0.5-0.1,0.8-0.5,0.7-1c0,0,0-0.1,0-0.1C107.3,94.5,106.4,92,106.4,92z"/>
		<path class="st60" d="M106.9,96.6c-0.8,0.2-1.7,0.9-1.4,1.8s1.5,6.4,1.6,6.7s0.7,0.4,1.9,0.1s1.7-0.7,1.6-1s-1.4-5.8-1.6-6.7
			S107.7,96.4,106.9,96.6z"/>
		<path class="st61" d="M107.6,99.6c-1.1,0.3-1,0.8-1.5,1c-0.1,0-0.2,0.1-0.3,0.1c0.3,1.1,0.5,2.3,0.8,3.2c0.7,0.1,1.3,0,2-0.1
			c0.7-0.2,1.3-0.4,1.9-0.8c-0.2-0.9-0.5-2.2-0.8-3.2h-0.3C108.8,99.9,108.7,99.4,107.6,99.6z"/>
		<path class="st62" d="M106.5,103.7c0.7,0.1,1.3,0,2-0.1c0.7-0.1,1.3-0.4,1.8-0.8c-0.2-0.9-0.5-1.9-0.7-2.9c-0.1,0-0.3,0-0.4,0.1
			c-0.5,0-0.6-0.4-1.6-0.2s-0.9,0.7-1.4,0.9c-0.1,0.1-0.3,0.1-0.4,0.1C106,101.8,106.3,102.9,106.5,103.7z"/>
		<path class="st60" d="M106.5,91.6c-0.1-0.1-0.1-0.2-0.2-0.3l-0.6,0.2l0,0c-0.2,0.1-0.5,0.1-0.7,0.1c-0.1,0.1-0.1,0.2-0.1,0.3
			c0,0.2,0.3,0.2,0.8,0.1S106.6,91.8,106.5,91.6z"/>
		<path class="st62" d="M107.1,93.3c-0.3,0.2-0.6,0.3-0.9,0.3c-0.3,0.1-0.6,0.1-0.9,0.1c0,0.4,0.1,0.7,0.2,1.1c0.3,0,0.7,0,1-0.1
			c0.3-0.1,0.7-0.2,1-0.4C107.3,94,107.2,93.6,107.1,93.3z"/>
		<path class="st62" d="M107.1,93.3c-0.3,0.2-0.6,0.3-0.9,0.3c-0.3,0.1-0.6,0.1-0.9,0.1c0,0.4,0.1,0.7,0.2,1.1c0.3,0,0.7,0,1-0.1
			c0.3-0.1,0.7-0.2,1-0.4C107.3,94,107.2,93.6,107.1,93.3z"/>
		<path class="st61" d="M106.1,93.7c0.3-0.1,0.6-0.2,0.9-0.3v-0.1C106.8,93.5,106.4,93.6,106.1,93.7c-0.3,0.1-0.6,0.1-0.9,0.1v0.1
			C105.5,93.8,105.8,93.7,106.1,93.7z"/>
		<path class="st61" d="M106.4,94.7c-0.3,0.1-0.7,0.1-1,0.1v0.1C105.7,94.9,106.1,94.9,106.4,94.7c0.4,0,0.7-0.1,1-0.3v-0.1
			C107.1,94.5,106.8,94.6,106.4,94.7z"/>
		
			<ellipse transform="matrix(0.9734 -0.229 0.229 0.9734 -20.4385 27.4659)" class="st61" cx="108.1" cy="101.8" rx="1.5" ry="1.7"/>
		<rect x="106.1" y="101" transform="matrix(0.9734 -0.229 0.229 0.9734 -20.4407 27.4667)" class="st62" width="4" height="1.6"/>
		
			<rect x="106.1" y="101.2" transform="matrix(0.9734 -0.229 0.229 0.9734 -20.4407 27.4667)" class="st63" width="4" height="1.2"/>
		<path class="st38" d="M105.6,91.3l-0.7,0.2c0,0-0.2,0.7,0.1,0.7c0.1,1.3,0.3,2.5,0.6,3.8c0.2,0.8-0.5,1.7-0.4,2.3
			c0.1,0.3,1.6,6.6,1.7,7s0.3,0.7,2.1,0.3L105.6,91.3z"/>
		<path class="st62" d="M106.2,90.9c-0.2,0-0.4,0-0.6,0.1s-0.4,0.1-0.6,0.1c-0.2,0-0.2,0.4-0.2,0.4c0.3,0,0.6-0.1,0.9-0.2
			s0.6-0.2,0.9-0.2C106.5,91,106.4,90.9,106.2,90.9z"/>
		<path class="st64" d="M106.1,91.3c0-0.1,0-0.1-0.1-0.1l0,0l-0.1,0.1H106.1L106.1,91.3z"/>
		<path class="st64" d="M105.9,91.4c0-0.1,0-0.1-0.1-0.1c-0.1,0-0.1,0-0.1,0.1H105.9z"/>
		<path class="st64" d="M106.4,91.2c0-0.1,0-0.1-0.1-0.1c-0.1,0-0.1,0-0.1,0.1l0,0C106.3,91.3,106.4,91.3,106.4,91.2z"/>
		<path class="st64" d="M105.5,91.3c-0.1,0-0.1,0-0.1,0.1c0,0,0,0,0,0L105.5,91.3L105.5,91.3z"/>
		<path class="st64" d="M105.2,91.4c-0.1,0-0.1,0-0.1,0.1c0,0,0,0,0,0L105.2,91.4C105.3,91.4,105.3,91.4,105.2,91.4z"/>
		<path class="st64" d="M104.9,91.6h0.2C105.1,91.5,105.1,91.5,104.9,91.6L104.9,91.6C104.9,91.5,104.9,91.5,104.9,91.6L104.9,91.6z
			"/>
	</g>
</g>
<g>
	<defs>
		<path id="SVGID_11_" d="M108.4,89.6l3.1,13.4c0.1,0.3,1.2,0.3,2.4,0s2.2-0.8,2.1-1.1l-3.1-13.4L108.4,89.6z"/>
	</defs>
	<clipPath id="SVGID_12_">
		<use xlink:href="#SVGID_11_"  style="overflow:visible;"/>
	</clipPath>
	<g class="st65">
		<path class="st66" d="M112.9,94.1c-0.3-0.6-1.2-3.7-1.2-3.7s0.1-0.3-0.1-0.5c-0.1-0.1-0.2-0.2-0.2-0.4l-0.7,0.1l-0.7,0.3v0.4
			c0,0.2,0,0.4,0.1,0.4s0.5,3.2,0.6,3.9c0.1,1.2-0.6,1.3-0.3,2.4c0.2,0.7,1.5,6.5,1.7,7c0.2,0.7,0.8,0.6,2.1,0.3s1.9-0.5,1.7-1.2
			c-0.1-0.5-1.5-6.3-1.7-7C114,95,113.3,95.2,112.9,94.1z"/>
		<path class="st67" d="M114.1,104.2c-1,0.2-1.6,0.3-1.9,0.1c0.3,0.4,0.9,0.3,2,0.1s1.7-0.5,1.7-1
			C115.7,103.8,115.1,104,114.1,104.2z"/>
		<path class="st68" d="M111.5,89.9c0,0-0.2,0.1-0.7,0.3s-0.7,0.1-0.7,0.1v0.3c0,0.1,0.1,0.2,0.8,0s0.7-0.3,0.7-0.4
			C111.6,90.1,111.6,90,111.5,89.9z"/>
		<path class="st69" d="M111.4,89.7l-0.6,0.2c-0.2,0.1-0.5,0.1-0.7,0.1v0.1c0.2,0,0.5,0,0.7-0.1C111,90,111.2,89.9,111.4,89.7
			L111.4,89.7z"/>
		<path class="st70" d="M112.7,94.1c-0.1-0.4-0.8-2.7-0.9-3.1s-0.5-0.4-0.8-0.3l0,0c-0.3,0.1-0.6,0.2-0.6,0.6s0.5,2.8,0.5,3.2
			s0.3,0.8,1.1,0.6l0,0C112.8,94.9,112.8,94.5,112.7,94.1z"/>
		<path class="st70" d="M112,95.2c-1.1,0.3-1.7,0.9-1.4,2s1.4,6,1.5,6.4s0.3,0.7,0.7,0.5c0.4-0.2,0.8-0.3,1.2-0.4
			c0.4-0.1,0.8-0.1,1.2-0.1c0.5,0,0.5-0.4,0.4-0.8s-1.3-5.3-1.5-6.4S113.2,95,112,95.2z"/>
		<path class="st68" d="M112.1,95.4c0.9-0.2,1.5-0.1,1.9,0.4c-0.3-0.7-1-0.9-2-0.6s-1.5,0.7-1.5,1.5C110.7,96,111.4,95.5,112.1,95.4
			z"/>
		<path class="st71" d="M112.1,91.7c-0.2,0.2-0.5,0.3-0.8,0.4c-0.3,0.1-0.6,0.1-0.9,0c0.1,0.4,0.1,0.9,0.2,1.4
			c0.2-0.3,0.6-0.4,0.9-0.5c0.3-0.1,0.7-0.1,1,0C112.4,92.6,112.3,92.1,112.1,91.7z"/>
		<path class="st1" d="M111.3,92.2c0.4-0.1,0.7-0.2,0.8-0.4v-0.1C111.9,92,111.6,92.1,111.3,92.2h-0.9v0.1
			C110.7,92.3,111,92.3,111.3,92.2z"/>
		<path class="st1" d="M112.5,92.8c-0.3-0.1-0.7-0.1-1,0c-0.3,0.1-0.6,0.2-0.9,0.4v0.1c0.3-0.2,0.6-0.3,0.9-0.4
			C111.8,92.8,112.2,92.8,112.5,92.8z"/>
		<path class="st36" d="M110.7,98.2c0.3,1.3,0.8,3.4,1.1,4.7c0.7,0.2,1.3,0.2,2,0c0.6-0.1,1.3-0.4,1.8-0.8c-0.3-1.3-0.8-3.4-1.1-4.7
			c-0.6,0.3-1.2,0.6-1.8,0.7C112,98.2,111.4,98.2,110.7,98.2z"/>
		<path class="st72" d="M110.8,98.4c0.3,1.2,0.7,2.9,1,4.1c0.7,0.2,1.3,0.2,2,0c0.6-0.1,1.3-0.4,1.8-0.8c-0.3-1.2-0.7-2.9-1-4.1
			c-0.5,0.4-1.2,0.6-1.8,0.7C112.2,98.5,111.5,98.5,110.8,98.4z"/>
		<polygon class="st73" points="112.8,98.6 111.4,100.9 113.7,102.3 115.1,100 		"/>
		<path class="st38" d="M110.8,89.6L110.8,89.6l-0.7,0.3v0.4c0,0.2,0,0.4,0.1,0.4s0.5,3.2,0.6,3.9c0.1,1.2-0.6,1.3-0.3,2.4
			c0.2,0.7,1.5,6.5,1.7,7c0.2,0.7,0.8,0.6,2.1,0.3l0,0L110.8,89.6z"/>
		<path class="st71" d="M111.3,89.4c-0.2,0-0.4,0-0.6,0.1s-0.4,0.1-0.6,0.1c-0.2,0-0.2,0.4-0.2,0.4c0.3,0,0.6-0.1,0.9-0.2
			s0.6-0.2,0.9-0.2C111.7,89.6,111.5,89.3,111.3,89.4z"/>
		<path class="st74" d="M111.3,89.7c0-0.1,0-0.1-0.1-0.1c-0.1,0-0.1,0-0.1,0.1c0,0,0,0,0,0l0,0C111.1,89.8,111.2,89.7,111.3,89.7z"
			/>
		<path class="st74" d="M111,89.8c0-0.1,0-0.1-0.1-0.1l0,0l-0.1,0.1H111L111,89.8z"/>
		<path class="st74" d="M111.5,89.6c0-0.1,0-0.1-0.1-0.1c-0.1,0-0.1,0-0.1,0.1c0,0,0,0,0,0l0,0C111.4,89.7,111.5,89.7,111.5,89.6z"
			/>
		<path class="st74" d="M110.6,89.8c-0.1,0-0.1,0-0.1,0.1c0,0,0,0,0,0L110.6,89.8C110.7,89.8,110.7,89.8,110.6,89.8z"/>
		<path class="st74" d="M110.4,89.8c-0.1,0-0.1,0-0.1,0.1c0,0,0,0,0,0L110.4,89.8C110.5,89.8,110.5,89.8,110.4,89.8z"/>
		<path class="st74" d="M110,90h0.2c0-0.1,0-0.1-0.1-0.1C110.1,89.9,110,89.9,110,90C110,90,110,90,110,90z"/>
	</g>
</g>
<g>
	<defs>
		<path id="SVGID_13_" d="M113.6,88.4l3.1,13.4c0.1,0.3,1.2,0.3,2.4,0s2.2-0.8,2.1-1.1l-3.1-13.4L113.6,88.4z"/>
	</defs>
	<clipPath id="SVGID_14_">
		<use xlink:href="#SVGID_13_"  style="overflow:visible;"/>
	</clipPath>
	<g class="st75">
		<path class="st76" d="M118,92.5c-0.3-1.3-0.7-2.6-1.2-3.8c0.2-0.2-0.3-0.7-0.3-0.7l-0.7,0.2l-0.7,0.2c0,0-0.2,0.7,0.1,0.8
			c0.1,1.3,0.3,2.6,0.6,3.9c0.2,0.8-0.5,1.8-0.4,2.4c0.1,0.4,1.6,6.8,1.7,7.2s0.4,0.9,2.1,0.5s1.8-0.9,1.7-1.4s-1.6-6.9-1.7-7.2
			C119.3,93.9,118.2,93.3,118,92.5z"/>
		<path class="st77" d="M119.3,102.9c-1.8,0.4-2,0-2.1-0.5c0,0.1,0,0.2,0.1,0.2c0.1,0.4,0.4,0.9,2.1,0.5s1.8-0.9,1.7-1.4
			c0-0.1,0-0.1-0.1-0.2C121.2,102,121.1,102.5,119.3,102.9z"/>
		<path class="st78" d="M116.7,88.9l-0.6,0.2c-0.2,0.1-0.4,0.1-0.6,0.1c0,0,0.4,2.7,0.6,3.6c0.1,0.5,0.5,0.8,1,0.7c0,0,0.1,0,0.1,0
			c0.5-0.1,0.8-0.5,0.7-1c0,0,0-0.1,0-0.1C117.6,91.5,116.7,88.9,116.7,88.9z"/>
		<path class="st78" d="M117.2,93.7c-0.8,0.2-1.7,0.9-1.4,1.9s1.6,6.6,1.6,7s0.7,0.4,1.9,0.2s1.7-0.7,1.6-1s-1.4-6-1.6-7
			c-0.2-0.9-1.1-1.4-2-1.1C117.3,93.7,117.3,93.7,117.2,93.7z"/>
		<path class="st79" d="M117.2,93.7c-0.8,0.2-1.7,0.9-1.4,1.9v0.2c-0.1-1,0.7-1.9,1.7-2c0.8,0,1.5,0.4,1.8,1.1v-0.2
			C119,93.8,118.1,93.4,117.2,93.7C117.2,93.7,117.2,93.7,117.2,93.7z"/>
		<path class="st78" d="M116.8,88.5c-0.1-0.1-0.1-0.2-0.2-0.3l-0.6,0.2l0,0c-0.2,0.1-0.5,0.1-0.7,0.1c0,0-0.1,0.1,0,0.3
			s0.3,0.2,0.8,0.1S116.9,88.7,116.8,88.5z"/>
		<path class="st80" d="M116.8,92c0.4-0.1,0.7-0.2,1-0.3c-0.2-0.7-0.4-1.4-0.6-2c-0.3,0.1-0.6,0.2-0.9,0.3c-0.3,0.1-0.6,0.1-0.9,0.1
			c0.1,0.6,0.2,1.3,0.3,2C116.1,92.1,116.5,92.1,116.8,92z"/>
		<path class="st81" d="M117.3,90.1"/>
		<path class="st81" d="M117.3,90.3"/>
		<path class="st81" d="M117.4,90.4"/>
		<path class="st81" d="M117.3,90"/>
		<path class="st81" d="M117.2,89.8"/>
		<path class="st81" d="M117.2,89.9"/>
		<path class="st81" d="M117.4,90.6"/>
		<path class="st81" d="M117.5,90.9"/>
		<path class="st81" d="M117.5,90.7"/>
		<path class="st81" d="M117.7,91.5"/>
		<path class="st81" d="M117.6,91.1"/>
		<path class="st81" d="M117.7,91.3"/>
		<path class="st81" d="M116.3,90c0.3-0.1,0.6-0.2,0.9-0.3v-0.1C117,89.7,116.7,89.8,116.3,90c-0.2,0-0.5,0-0.8,0v0.1
			C115.8,90.1,116.1,90.1,116.3,90z"/>
		<path class="st81" d="M117.6,91"/>
		<path class="st81" d="M117.8,91.6c-0.3,0.2-0.7,0.3-1,0.3c-0.4,0-0.8,0.1-1,0.1v0.2c0.3,0,0.7-0.1,1-0.1c0.3-0.1,0.7-0.2,1-0.3
			V91.6z"/>
		<path class="st81" d="M115.4,90.2"/>
		<path class="st81" d="M115.6,91.2"/>
		<path class="st81" d="M115.7,91.7C115.6,91.7,115.6,91.6,115.7,91.7C115.6,91.6,115.6,91.7,115.7,91.7z"/>
		<path class="st81" d="M115.6,91.4"/>
		<path class="st81" d="M115.7,92"/>
		<path class="st81" d="M115.7,91.8"/>
		<path class="st81" d="M115.6,91.5"/>
		<path class="st81" d="M115.5,90.6"/>
		<path class="st81" d="M115.5,90.5"/>
		<path class="st81" d="M115.4,90.4"/>
		<path class="st81" d="M115.5,90.9"/>
		<path class="st81" d="M115.5,91"/>
		<path class="st81" d="M115.5,90.8"/>
		<path class="st81" d="M115.9,97.1c0.4,1.6,0.9,3.9,1.2,5c0.7,0,1.3-0.1,2-0.2c0.7-0.1,1.3-0.4,1.9-0.7c-0.3-1.1-0.8-3.4-1.2-5
			c-0.6,0.4-1.2,0.7-1.9,0.8C117.3,97.2,116.6,97.2,115.9,97.1z"/>
		<path class="st80" d="M116,97.3c0.3,1.5,0.8,3.5,1.1,4.6c0.7,0.1,1.3,0,2-0.1c0.7-0.1,1.3-0.4,1.9-0.8c-0.3-1.1-0.7-3.1-1.1-4.6
			c-0.6,0.4-1.2,0.7-1.9,0.8C117.4,97.4,116.7,97.4,116,97.3z"/>
		<ellipse transform="matrix(0.9734 -0.229 0.229 0.9734 -19.5912 29.7801)" class="st1" cx="118.5" cy="99.3" rx="1.9" ry="1.9"/>
		<ellipse transform="matrix(0.9734 -0.229 0.229 0.9734 -19.5912 29.7801)" class="st81" cx="118.5" cy="99.3" rx="1.8" ry="1.8"/>
		<g class="st32">
			<polygon class="st1" points="116.5,97.6 116.6,97.8 116.9,97.8 116.7,97.9 116.7,98.2 116.6,98 116.3,98 116.5,97.8 			"/>
			<polygon class="st1" points="119.5,96.9 119.6,97.1 119.9,97.1 119.6,97.2 119.6,97.5 119.5,97.3 119.3,97.3 119.5,97.1 			"/>
			<polygon class="st1" points="117.4,101.1 117.5,101.4 117.7,101.4 117.5,101.5 117.5,101.7 117.4,101.5 117.1,101.5 117.4,101.4 
							"/>
			<polygon class="st1" points="120.3,100.4 120.4,100.7 120.7,100.7 120.5,100.8 120.5,101 120.4,100.8 120.1,100.8 120.3,100.7 
							"/>
		</g>
		<path class="st38" d="M115.9,88.2l-0.7,0.2c0,0-0.2,0.7,0.1,0.8c0.1,1.3,0.3,2.6,0.6,3.9c0.2,0.8-0.5,1.8-0.4,2.4
			c0.1,0.4,1.6,6.8,1.7,7.2s0.4,0.9,2.1,0.5L115.9,88.2z"/>
		<path class="st80" d="M116.5,87.8c-0.2,0-0.4,0-0.6,0.1s-0.4,0.1-0.6,0.1c-0.2,0-0.2,0.4-0.2,0.4c0.3,0,0.6-0.1,0.9-0.2
			s0.6-0.2,0.9-0.2C116.8,87.9,116.7,87.8,116.5,87.8z"/>
		<path class="st82" d="M116.4,88.2c0-0.1,0-0.1-0.1-0.1l0,0l-0.1,0.1H116.4L116.4,88.2z"/>
		<path class="st82" d="M116.1,88.2c0-0.1,0-0.1-0.1-0.1c-0.1,0-0.1,0-0.1,0.1c0,0,0,0,0,0l0,0C116,88.3,116.1,88.3,116.1,88.2z"/>
		<path class="st82" d="M116.7,88.1c0-0.1,0-0.1-0.1-0.1c-0.1,0-0.1,0-0.1,0.1l0,0C116.6,88.2,116.6,88.1,116.7,88.1z"/>
		<path class="st82" d="M115.8,88.2c-0.1,0-0.1,0-0.1,0.1c0,0,0,0,0,0L115.8,88.2L115.8,88.2z"/>
		<path class="st82" d="M115.5,88.3c-0.1,0-0.1,0-0.1,0.1c0,0,0,0,0,0L115.5,88.3C115.6,88.3,115.6,88.3,115.5,88.3z"/>
		<path class="st82" d="M115.2,88.5h0.2C115.4,88.4,115.4,88.4,115.2,88.5L115.2,88.5C115.2,88.4,115.1,88.4,115.2,88.5L115.2,88.5z
			"/>
	</g>
</g>
<path class="st0" d="M123.5,98.4c-1.6,1-5.8,2.2-7.4,2.8c-4.2,1.6-9,3.7-13.2,5.6c-2.4,1.1-6.2,5.1-8.5,3.6
	c-0.8-0.5-1.4-3.1-2.9-2.2s0.4,3.5,0.9,4.1c-2,0-7.6-0.6-7.2,1.7c-0.3,1.3,4.3,0.6,5.7,0.4c-0.9,0.5-7.1,2.4-6.2,4.2
	c0.7,1.5,6-1.1,6.9-1.2c-0.9,0.6-6.3,3.1-5.1,4.5s5.2-1.7,6.6-2c-0.7,1.2-5,5-2,5.4c1.8,0.3,3-2.8,3.7-4s0.3-1,1.9-1
	c6.1-0.3,12-1.4,17.8-3.3c4.2-1.3,18.5-6.8,19.9-8.8c0,0,3.6-4.5-0.8-9.5S123.6,98.4,123.5,98.4z"/>
</svg>
