<svg id="Objects" xmlns="http://www.w3.org/2000/svg" viewBox="0 0 297.23 484.49"><defs><style>.cls-1{fill:#2d2d2d;}.cls-2{fill:#4c5557;opacity:0.4;}.cls-2,.cls-8{isolation:isolate;}.cls-3{fill:#ffc003;}.cls-4{fill:#f6bfab;}.cls-5,.cls-8{fill:#fff;}.cls-6{fill:#ff9700;}.cls-7{fill:#a8a8a8;}.cls-8{font-size:12px;font-family:Arial-BoldMT, Arial;font-weight:700;}</style></defs><title>how-1</title><path class="cls-1" d="M208,0H54.61A18.78,18.78,0,0,0,35.83,18.78V357.22A18.78,18.78,0,0,0,54.61,376H208a18.78,18.78,0,0,0,18.78-18.78V18.78A18.78,18.78,0,0,0,208,0Z" transform="translate(0.01)"/><circle class="cls-2" cx="130.54" cy="350.35" r="16.48"/><polygon class="cls-3" points="48.84 48 48.84 63 48.84 268 48.84 325 212.84 325 212.84 268 212.84 63 212.84 48 48.84 48"/><path class="cls-4" d="M52.92,399.75c9.59,2.9,24.57-8.44,40.53-23.75H54.9C46.29,386.18,41.36,396.25,52.92,399.75Z" transform="translate(0.01)"/><path class="cls-4" d="M10.09,202.78c5.57,7.61,15.82,9.79,25.74,9.81v-39.5C23.4,178.1.41,189.55,10.09,202.78Z" transform="translate(0.01)"/><path class="cls-4" d="M5.74,283.8c8.32,6.08,20,4.21,30.09.49V237.05C18.64,247.58-13,270.13,5.74,283.8Z" transform="translate(0.01)"/><rect class="cls-5" x="67.04" y="67.88" width="127" height="27.54"/><rect class="cls-5" x="67.84" y="100.88" width="127" height="27.54"/><path class="cls-6" d="M81.6,145.55h99.46a13.77,13.77,0,0,1,13.77,13.77h0a13.77,13.77,0,0,1-13.77,13.77H81.6a13.77,13.77,0,0,1-13.77-13.77h0A13.77,13.77,0,0,1,81.6,145.55Z" transform="translate(0.01)"/><rect class="cls-7" x="48.84" y="186.5" width="164" height="140.37"/><text class="cls-8" transform="translate(89.24 163.2)">REGISTRARME</text><path class="cls-4" d="M261.89,182.58c-11.22-24.38-17.67-53.81-34.89-53.95l-1,142.5s-36.54-88.79-38.39-99.79-9.55-44.13-25.42-45.87S140.7,152.4,146,171.61c10.2,36.88,19.74,58.17,21.42,86.56,1.55,26.14-23.69,45,6.06,118L155.69,376s-4.27,11.3,13.14,35.74c7.67,10.77,7.18,47.91,6.11,70.35l106.4,2.4c1.26-44.56,8.57-162.9,14.7-199.74C303.8,238.1,271.17,202.74,261.89,182.58Z" transform="translate(0.01)"/></svg>