<svg id="Layer_1" data-name="Layer 1" xmlns="http://www.w3.org/2000/svg" viewBox="0 0 700.3 494.04"><defs><style>.cls-1{fill:#fdfcea;}.cls-2{fill:#fff;}.cls-3{fill:#e5e5e5;}.cls-4{fill:#ffc003;}.cls-5{fill:#2d2d2d;}.cls-6{fill:#ff9700;}.cls-7{fill:#f9f6ec;}</style></defs><title>how-2</title><ellipse class="cls-1" cx="79.79" cy="426.67" rx="30.04" ry="33.09"/><ellipse class="cls-1" cx="548.71" cy="424.64" rx="30.55" ry="34.11"/><polygon class="cls-2" points="511.04 150.21 511.04 275.46 615.92 268.33 616.94 254.07 588.43 161.41 511.04 150.21"/><rect class="cls-3" x="628.96" y="349.47" width="55.26" height="32.77"/><path class="cls-4" d="M437,75.56H18.16A16.23,16.23,0,0,0,2,91.77V330.93a16.23,16.23,0,0,0,16.21,16.2H437a16.21,16.21,0,0,0,16.22-16.2h0V91.77A16.2,16.2,0,0,0,437,75.56Z"/><path class="cls-5" d="M544.84,357.72A68.16,68.16,0,1,0,613,425.88h0A68.16,68.16,0,0,0,544.84,357.72Zm13.75,83.13a20.35,20.35,0,1,1,6.6-15A20.35,20.35,0,0,1,558.59,440.85Z"/><path class="cls-5" d="M82.12,357.72h-.33a68.15,68.15,0,1,0,.33,0Zm13.59,83.13a20.35,20.35,0,0,1-34.1-15,20.69,20.69,0,0,1,.35-3.69,20.34,20.34,0,1,1,33.75,18.66Z"/><path class="cls-6" d="M57.47,357.72H0v56.56H10.51a4.48,4.48,0,0,1,.11-.72A72.17,72.17,0,0,1,57.47,357.72Z"/><path class="cls-6" d="M686,378.88c-.28-31.11.58-61.94-.57-93.06-9.92-4.54-19.94-9.1-30-13.76-7-3.25-13.94-6.54-20.85-9.93a22.79,22.79,0,0,1-2.61-1.22c-14.14-7.59-13.69-26.67-19.09-40.16-5.59-22.89-14.81-45.13-20.41-68-3.55-14.48-5.64-29.2-4.42-44.48-40.68-.58-81.09-.29-121.49,0h-.39v.07l-.21-.18v50.07l.2.17c-.14,66.4-.68,132.88,0,199.28H106.44a72.16,72.16,0,0,1,46.86,55.84,4.48,4.48,0,0,0,.11.72H467.09c10-31.68,34.82-62.23,70.51-64.22,39.39-5.71,75.92,24.55,84.48,62.22,26,.29,52,.29,77.93.29,0-10.85.29-22,.29-32.83ZM519.9,256.72c-.28-30.25-.85-60.51.29-90.76,20.26,0,40.82-.29,61.08.57,8,30,17.7,59.65,25.69,89.91C577.84,257,549,256.72,519.9,256.72ZM682.74,381.15c-17.64.61-35.58.61-53.21.31-.31-10.64-.31-21,0-31.62q26.45-.46,52.9,0C683,360.48,683,370.82,682.74,381.15Z"/><circle class="cls-5" cx="239.81" cy="167.54" r="167.54"/><path class="cls-7" d="M107.76,167.54a132,132,0,0,0,132,132v-264a132,132,0,0,0-132,132Z"/><path class="cls-3" d="M239.81,35.49V299.58a132,132,0,0,0,0-264.09Z"/><circle class="cls-5" cx="239.81" cy="167.54" r="21.3"/><path class="cls-5" d="M247.86,136.94c0,2.84-3.5,5.15-7.81,5.15h0c-4.31,0-7.81-2.3-7.81-5.15V59.21c0-2.84,3.5-5.15,7.81-5.15h0c4.31,0,7.81,2.3,7.81,5.15Z"/><path class="cls-5" d="M171.34,216c-4.37,2.16-9.78.12-12.09-4.55h0c-2.31-4.67-.64-10.21,3.73-12.37l43-21.33c4.38-2.16,9.79-.12,12.1,4.55h0c2.31,4.67.64,10.21-3.73,12.37Z"/></svg>