<svg id="Layer_1" data-name="Layer 1" xmlns="http://www.w3.org/2000/svg" xmlns:xlink="http://www.w3.org/1999/xlink" viewBox="0 0 400 400"><defs><style>.cls-1{fill:none;}.cls-2{fill:#efefef;}.cls-3{fill:#fddcbe;}.cls-4{fill:#a8a8a8;}.cls-5{fill:#533e29;}.cls-6{fill:#939393;}.cls-7{fill:#544b43;}.cls-8{fill:#bea58f;}.cls-9{fill:#2d2d2d;}.cls-10{clip-path:url(#clip-path);}.cls-11{fill:#5c170e;}.cls-12{fill:#762f24;opacity:0.6;isolation:isolate;}.cls-13{fill:#b98f60;}.cls-14{fill:#816544;}.cls-15{fill:#ff9700;}.cls-16{fill:#ffc003;}</style><clipPath id="clip-path"><path class="cls-1" d="M229.06,76.73l44.33,191.63c1.43,4.29,17.16,4.29,34.32,0,18.59-4.29,31.46-11.44,30-15.73L293.42,61Z"/></clipPath></defs><title>how-3</title><circle class="cls-2" cx="74.5" cy="65.5" r="52.5"/><circle class="cls-2" cx="362" cy="366" r="21"/><circle class="cls-2" cx="200" cy="200" r="200"/><path class="cls-3" d="M200.1,337.4S202.4,118.2,75.4,209c0,0-25,17.9-37.4,132.6C103.6,446.5,200.1,337.4,200.1,337.4Z"/><path class="cls-4" d="M37.9,341.6s89.3,10.7,161.9-16.8l4,74.2H41.8Z"/><path class="cls-5" d="M169.6,119.7s68.1,100.7-101,118.7l1.2,34.8s-16.2-14.6-21.3,3.4c-5.2,18.3,20.7,9.9,20.7,9.9C66.9,291.4,53,324.8,38,341.6c-1.1,1.3-62.3-132.4-11.1-133.9-2.5-31,19.8-51.5,52.2-59C129.1,137.1,149.6,187.5,169.6,119.7Z"/><path class="cls-6" d="M71.4,399c-1.7-14.2-4.2-27-5.4-43.6l-22.4,2.1c.6,13,2.2,28.8,3.5,41.5Z"/><path class="cls-4" d="M74.8,399c-3.4-15.1-6-27.8-9.1-45.8l-22.1,4.3c2,13.3,4.6,28.6,7.4,41.5Z"/><path class="cls-7" d="M118.2,271.1c1.1,3.4-.7,6-3.7,6.9s-6-.1-7.2-3.5.7-6,3.7-6.9S117.1,267.7,118.2,271.1Z"/><path class="cls-7" d="M175.3,254.5c1.1,3.4-.7,6-3.7,6.9s-6-.1-7.2-3.5.7-6,3.7-6.9S174.2,251.1,175.3,254.5Z"/><path class="cls-4" d="M65.7,353.2l-22.1,4.3c1,6.8,2.2,14.1,3.5,21.4l22.5-4.5C68.3,367.8,67,361,65.7,353.2Z"/><path class="cls-3" d="M195.6,324.3s-14.9,46.5-36.1,74.7H134.2s27.6-33.9,38.7-72.1c0,0-8.2-8.1-6.4-11.1s6.7,6,8.9,3.7c5.1-5.5,1.3-20.5,5.1-20.9s3.7,12.8,2.8,15.3c1.9-2.9,5-1.7,4.1,2.1,2.1-3.2,5.7-.6,4.6,2.8C194.8,315.9,197.7,318.9,195.6,324.3Z"/><path class="cls-8" d="M196.4,319.9a1.88,1.88,0,0,0-.2-.8,3,3,0,0,0-.4-.8,4.35,4.35,0,0,0-.7-.6,1.49,1.49,0,0,0-.9-.2h-.4c-.1,0-.3.1-.4.1a.76.76,0,0,0-.4.2l-.4.2c-.1,0-.1.1-.2.1a1.09,1.09,0,0,1,.1-.5v-.5a.75.75,0,0,0-.1-.5.76.76,0,0,0-.2-.5c-.1-.2-.2-.3-.3-.5s-.2-.3-.3-.5l-.4-.4c-.2-.1-.3-.2-.5-.3s-.4-.1-.6-.2h-.6a1.27,1.27,0,0,0-.6.1c-.2.1-.4.1-.5.2s-.3.2-.5.3l-.1.1h0v-1a3,3,0,0,0-.4-1,1.38,1.38,0,0,0-.3-.4l-.2-.2-.2-.1c-.2-.1-.3-.2-.5-.2h-.6a1.27,1.27,0,0,0-.6.1c-.2,0-.3.1-.5.2a1.38,1.38,0,0,0-.4.3c-.1,0-.1.1-.2.2,0-.2.1-.5.1-.7a13.4,13.4,0,0,0,.1-2,26.7,26.7,0,0,0,0-4,27.33,27.33,0,0,0-.5-4,15.19,15.19,0,0,0-.6-2,3.33,3.33,0,0,0-1.4-1.7l-.3-.1-.3-.1h-.6a2.38,2.38,0,0,0-1.1.6,7.22,7.22,0,0,0-.9,2,27.11,27.11,0,0,0-.4,4,66.65,66.65,0,0,1-.5,7.8,17.46,17.46,0,0,1-.9,3.8,5.07,5.07,0,0,1-.9,1.6c-.2.3-.3.5-.5.8l-.3.4c-.1.1-.2.2-.3.2a1.54,1.54,0,0,1-1.5-.4l-1.5-1.2a38.76,38.76,0,0,0-3.1-2.6,3,3,0,0,0-1-.4,1.13,1.13,0,0,0-1.1.3,2.42,2.42,0,0,0-.6,2,12.21,12.21,0,0,0,1.6,3.7,18.31,18.31,0,0,0,2.4,3.1,35.69,35.69,0,0,0,2.7,2.8l-2,6.8,2.3-6.8v-.1h0a35.84,35.84,0,0,1-2.6-2.9,37.11,37.11,0,0,1-2.3-3.2,9.08,9.08,0,0,1-1.5-3.5,1.6,1.6,0,0,1,.5-1.6c.4-.4,1-.1,1.5.2a23.48,23.48,0,0,1,2.9,2.6,17.38,17.38,0,0,0,1.5,1.3,3.13,3.13,0,0,0,1,.5,1.67,1.67,0,0,0,1.2-.1,1,1,0,0,0,.5-.4l.3-.4.6-.9.9-1.8a18.32,18.32,0,0,0,.9-3.9,69.82,69.82,0,0,0,.5-7.9,25.79,25.79,0,0,1,.4-3.9,3.29,3.29,0,0,1,.7-1.6.86.86,0,0,1,.6-.3h.5l.2.1a3.48,3.48,0,0,1,1.1,1.3,12.67,12.67,0,0,1,.6,1.8,17.37,17.37,0,0,1,.5,3.9,25.39,25.39,0,0,1,0,3.9,15.83,15.83,0,0,1-.5,3.8c-.1.2,0,.4.2.4s.3,0,.4-.1l.3-.4.3-.3.3-.3a.52.52,0,0,1,.4-.2c.1-.1.3-.1.4-.2s.3-.1.4-.1h.4c.1,0,.3.1.4.1l.2.1.1.1c.1.1.2.2.2.3.1.3.2.5.3.8v1c0,.3-.1.6-.1.9h0c0,.1.1.3.2.3a.37.37,0,0,0,.3-.1l.3-.4a1.38,1.38,0,0,0,.3-.4,1.38,1.38,0,0,1,.4-.3.76.76,0,0,1,.4-.2.6.6,0,0,1,.4-.1h.5c.2,0,.3.1.4.1s.3.1.4.2.3.2.4.3a1.38,1.38,0,0,1,.3.4,3.55,3.55,0,0,1,.4.9c0,.2.1.3.1.5v.5a.9.9,0,0,1-.1.5l-.1.5v.2a.19.19,0,0,0,.3,0h0a2.65,2.65,0,0,1,.6-.5l.3-.2c.1-.1.2-.1.4-.2s.2-.1.4-.1h.4a1.45,1.45,0,0,1,.7.2c.1.1.2.1.3.2l.3.3a1.61,1.61,0,0,1,.4.7,1.88,1.88,0,0,1,.2.8c0,.3.1.5.1.8v.8c0,.3-.1.5-.1.8l-.2.8a2.35,2.35,0,0,0-.2.8l-1,3.2,1.1-3.1c.1-.3.2-.5.3-.8l.2-.8a2.2,2.2,0,0,0,.1-.8v-.8C196.2,320.5,196.4,320.2,196.4,319.9Z"/><path class="cls-9" d="M37.9,341.6,2,273,0,189.8l17.4,14.5,41.8-77.8,17.5,21.6,42.4-43.4,32.3,37.7,25.8-38.5,9.5,58.7,22.6-19.1L173,213.1l-21.7,11.4L84.2,238.3C84.2,238.4,75.9,306.1,37.9,341.6Z"/><g class="cls-10"><path class="cls-11" d="M337.75,271.22,313.44,169.68c-2.86-11.44-12.87-8.58-18.59-22.88-4.29-10-17.16-52.91-17.16-52.91s1.43,0,1.43-2.86c0-1.43-2.86-2.86-2.86-4.29A14.25,14.25,0,0,1,274.83,81l-10,2.86-10,2.86a14.25,14.25,0,0,0,1.43,5.72c0,1.43-1.43,2.86,0,5.72,0,1.43,2.86,1.43,2.86,1.43s7.15,45.76,8.58,55.77c1.43,14.3-8.58,17.16-7.15,28.6l24.31,101.53c1.43,5.72,0,5.72,2.86,7.15a117.73,117.73,0,0,0,25.74-2.86c12.87-2.86,22.88-7.15,24.31-8.58C340.61,276.94,339.18,276.94,337.75,271.22Z"/><path class="cls-12" d="M276.26,88.17C274.83,89.6,272,91,267.67,91s-7.15,1.43-8.58,1.43a3.13,3.13,0,0,0,1.43,4.29c2.86,0,7.15,0,10-1.43,2.86,0,7.15-1.43,8.58-2.86C279.12,91,276.26,88.17,276.26,88.17Z"/><path class="cls-12" d="M283.41,161.1c-12.87,2.86-20,15.73-18.59,24.31s10,40,10,40,10,44.33,12.87,51.48c1.43,5.72,15.73,4.29,25.74,2.86s22.88-7.15,21.45-12.87c-1.43-7.15-12.87-51.48-12.87-51.48s-7.15-32.89-10-40C309.15,165.39,296.28,158.24,283.41,161.1Z"/><path class="cls-12" d="M283.41,161.1c-12.87,2.86-20,15.73-18.59,24.31s10,40,10,40,10,44.33,12.87,51.48c1.43,5.72,15.73,4.29,25.74,2.86s22.88-7.15,21.45-12.87c-1.43-7.15-12.87-51.48-12.87-51.48s-7.15-32.89-10-40C309.15,165.39,296.28,158.24,283.41,161.1Z"/><path class="cls-12" d="M266.24,83.88a30.63,30.63,0,0,1-8.58,1.43l1.43,4.29a40,40,0,0,0,8.58-1.43,46.11,46.11,0,0,0,8.58-2.86L274.82,81C274.82,82.45,270.53,83.88,266.24,83.88Z"/><ellipse class="cls-13" cx="297.32" cy="219.06" rx="23.3" ry="34.94" transform="translate(-42.27 73.91) rotate(-13.24)"/><path class="cls-13" d="M274.11,79a50.56,50.56,0,0,0-8.58,1.43,50.56,50.56,0,0,1-8.58,1.43c-2.86,0-2.86,5.72-2.86,5.72s2.86,0,12.87-2.86,12.87-2.86,12.87-2.86S277,77.59,274.11,79Z"/><path class="cls-14" d="M272.68,83.31a1.43,1.43,0,1,0-2.86,0h0a2,2,0,0,0,2.86,0Z"/><path class="cls-14" d="M269.82,84.74a1.4,1.4,0,0,0-1.43-1.43L267,84.74h2.86Z"/><path class="cls-14" d="M277,81.88a1.4,1.4,0,0,0-1.43-1.43l-1.43,1.43h0c1.43,1.43,2.86,1.43,2.86,0Z"/><path class="cls-14" d="M264.1,83.31a1.4,1.4,0,0,0-1.43,1.43h2.86Z"/><path class="cls-14" d="M259.81,84.74a1.4,1.4,0,0,0-1.43,1.43h2.86C261.24,84.74,261.24,84.74,259.81,84.74Z"/><path class="cls-14" d="M255.52,87.6h2.86a1.4,1.4,0,0,0-1.43-1.43c-1.43,0-1.43,0-1.43,1.43Z"/></g><path class="cls-12" d="M112.73,298.59l49,6.7S143.73,329.59,112.73,298.59Z"/><polygon class="cls-15" points="235.87 207.8 240.33 221.88 254.47 226.19 242.45 234.79 242.72 249.56 230.83 240.79 216.86 245.61 221.53 231.59 212.63 219.8 227.4 219.91 235.87 207.8"/><polygon class="cls-16" points="327.67 135.83 329.9 142.87 336.96 145.03 330.95 149.32 331.09 156.71 325.14 152.32 318.16 154.74 320.5 147.73 316.05 141.83 323.43 141.88 327.67 135.83"/><polygon class="cls-16" points="304.01 222.75 319.13 253.4 352.95 258.31 328.48 282.17 334.26 315.85 304.01 299.95 273.76 315.85 279.54 282.17 255.06 258.31 288.88 253.4 304.01 222.75"/></svg>