<svg id="Layer_1" data-name="Layer 1" xmlns="http://www.w3.org/2000/svg" viewBox="0 0 348.96 379.04"><defs><style>.cls-1{fill:#f4f4f5;}</style></defs><title>includes-item-</title><path class="cls-1" d="M285.37,78.27H265.11V58a10.31,10.31,0,0,0-12-10.17L69.46,78.41a10.28,10.28,0,0,0-8.62,10.17V328A10.33,10.33,0,0,0,71.15,338.3H285.37A10.33,10.33,0,0,0,295.69,328V88.58A10.33,10.33,0,0,0,285.37,78.27ZM275.06,98.9V317.67H195.91l60.58-10.09a10.28,10.28,0,0,0,8.62-10.17V98.9ZM244.48,70.16V288.67l-163,27.15V97.32Z"/><path class="cls-1" d="M113.55,147.27a10.76,10.76,0,0,0,1.59-.12L214,131.84a10.31,10.31,0,1,0-3.16-20.38L112,126.76a10.32,10.32,0,0,0,1.57,20.51Z"/></svg>