<svg id="Layer_1" data-name="Layer 1" xmlns="http://www.w3.org/2000/svg" viewBox="0 0 348.96 379.04"><defs><style>.cls-1{fill:#f4f4f5;}</style></defs><title>includes-item-</title><path class="cls-1" d="M128.86,2.39,83.73,4.77A16.32,16.32,0,0,0,71.3,11.72a13.24,13.24,0,0,0-2.11,10.14l1,18.66a13.47,13.47,0,0,0,3.27,10,15.47,15.47,0,0,0,2.75,2.51c-1.42,10.58-2.76,23.49-3.93,37.76v0c-1,12.46-1.93,25.95-2.64,39.8-14.68,9.6-29.08,35.12-27.8,59.35l8.45,160.33c.81,15.43,15,27.27,31.6,26.4l44-2.32h0l44-2.32a32.32,32.32,0,0,0,8.3-1.53,30.71,30.71,0,0,0,12.22-7.45,26.87,26.87,0,0,0,8.13-20.59l-1.16-22.05h0L190,182.2c-1.28-24.23-18.28-48.09-33.88-56.1-3.1-19.61-6.51-38.44-9.83-54.58l0-.14c-1.67-8.08-3.31-15.48-4.89-22a15.61,15.61,0,0,0,4.76-12.05L145.06,17A15.44,15.44,0,0,0,128.86,2.39ZM87.38,22.73l39.73-2.09.82,15.56-.2.08-.19.07-.6.26-.2.1-.57.32-.16.1c-.23.14-.45.3-.66.46l-.2.17-.41.35-.24.23-.33.34-.22.25-.31.4-.17.23c-.13.19-.26.38-.37.58l-.06.09c-.14.24-.26.48-.38.73l-.07.16c-.09.19-.17.39-.24.59l-.08.25q-.09.26-.16.52l-.07.3c0,.16-.07.33-.1.49s0,.22-.05.34,0,.32,0,.48,0,.24,0,.35,0,.47,0,.71,0,.56.08.84c0,.06,0,.12,0,.18l0,.12c0,.27.1.54.17.81,1.52,5.74,3.13,12.55,4.78,20.15L91.51,78.75c1.13-11.69,2.36-22,3.63-30.23,0-.26.07-.53.08-.79,0,0,0-.1,0-.14s0-.11,0-.16c0-.29,0-.58,0-.87s0-.47-.07-.7,0-.22-.06-.33S95,45.18,95,45s-.05-.21-.08-.31-.1-.34-.15-.51l-.09-.27c-.07-.18-.14-.36-.22-.54l-.09-.21c-.1-.21-.21-.42-.33-.62l-.06-.1q-.22-.36-.46-.7l0,0c-.15-.2-.31-.39-.47-.58l-.19-.2-.37-.37-.24-.22-.36-.31-.27-.21-.43-.29-.24-.16c-.22-.14-.45-.26-.69-.38l-.22-.1-.55-.24-.24-.09-.59-.19-.22-.06-.2-.05Zm-6,122.09a9.06,9.06,0,0,0,6-8.11c.64-13.26,1.45-26.24,2.38-38.36l40.72-13.24c2.34,12,4.69,25.25,6.91,39l-2.29.12a9.06,9.06,0,0,0,1,18.1l10.75-.57c7.07,2.66,19.33,16.39,23.58,32.41L60.41,180C63.08,162.77,74.77,147.17,81.42,144.82Zm97.32,167.54-112,5.9L60.38,198.1l112-5.9Zm-1.2,37.92a13.18,13.18,0,0,1-8.67,3.71l-44,2.32h0l-44,2.32c-6.52.34-12.27-3.89-12.55-9.25l-.69-13,112-5.9.69,13A9,9,0,0,1,177.53,350.29Z"/><path class="cls-1" d="M106.1,143.9h.22a9.06,9.06,0,0,0-1-18.1h-.22a9.06,9.06,0,1,0,1,18.1Z"/><path class="cls-1" d="M244.38,236.21l10.55-10.55a7.29,7.29,0,0,0-10.31-10.31l-10.55,10.55-10.55-10.55a7.29,7.29,0,0,0-10.31,10.31l10.55,10.55L213.2,246.76a7.29,7.29,0,1,0,10.31,10.31l10.55-10.55,10.55,10.55a7.29,7.29,0,1,0,10.31-10.31Z"/><path class="cls-1" d="M292.65,244.17a21.25,21.25,0,0,1-7.89-3.18,23.25,23.25,0,0,1-5.93-5.65,26.78,26.78,0,0,1-3.78-7.33,25.53,25.53,0,0,1-1.35-8.22,24.56,24.56,0,0,1,2.1-10.88,23.59,23.59,0,0,1,4.53-6.58,20.85,20.85,0,0,1,5.09-3.92,28,28,0,0,1,5.46-2.29,31,31,0,0,1,5.14-1.07,37.29,37.29,0,0,1,4.2-.28,27,27,0,0,1,10.83,2.1,25,25,0,0,1,8.31,5.74,26.17,26.17,0,0,1,5.37,8.5,27.78,27.78,0,0,1,1.92,10.27,29.38,29.38,0,0,1-2.1,11,61.19,61.19,0,0,1-5.32,10.32,122.13,122.13,0,0,1-7.1,9.95q-3.88,4.9-7.52,9.95a4.83,4.83,0,0,1-1.59,1.31,4.1,4.1,0,0,1-2,.56h-18.4a1.07,1.07,0,0,1-.93-1.87l11.86-16.25a1.29,1.29,0,0,0,.28-1.35A1.56,1.56,0,0,0,292.65,244.17ZM292,219.71a7.75,7.75,0,0,0,.61,3,7.24,7.24,0,0,0,1.68,2.47,8.15,8.15,0,0,0,2.52,1.63,8.37,8.37,0,0,0,6.26,0,8.19,8.19,0,0,0,2.52-1.63,7.87,7.87,0,0,0,1.73-2.47,7.31,7.31,0,0,0,.65-3q0-4.11-2.38-6a8.88,8.88,0,0,0-5.65-1.87,8.55,8.55,0,0,0-5.6,1.92Q292,215.69,292,219.71Z"/></svg>