<svg id="Layer_1" data-name="Layer 1" xmlns="http://www.w3.org/2000/svg" viewBox="0 0 348.96 379.04"><defs><style>.cls-1{fill:#f4f4f5;}</style></defs><title>includes-item-</title><path class="cls-1" d="M313.79,136.55h0C303.12,125,288,118.63,271.1,118.63H231.36V97.37a10.12,10.12,0,0,0-8.93-10l-194.1,0H28A10.19,10.19,0,0,0,17.84,97.53V266.9A10.19,10.19,0,0,0,28,277.07a6.89,6.89,0,0,0,.74,0c.27,0,.54,0,.82,0h28.8v0l.05.2a32.73,32.73,0,0,0,63.61-.23H236.3a33,33,0,0,0,31.83,25.12A32.6,32.6,0,0,0,300,277.07h21a10.11,10.11,0,0,0,10.1-10.1V187.21C331.12,166.38,325.12,148.86,313.79,136.55Zm-2.87,50.74V257H298.31a33.08,33.08,0,0,0-30.17-20.16A32.59,32.59,0,0,0,238,257h-6.53V138.83h39.74C296.06,138.83,310.92,156.95,310.92,187.29Zm-30.24,82.24A12.54,12.54,0,1,1,268.14,257,12.66,12.66,0,0,1,280.68,269.53Zm-65.88-167V257H131.2l-10.82,0a33.08,33.08,0,0,0-30.17-20.16A32.59,32.59,0,0,0,60,256.93l-23.57,0V102.49Zm-114,160.32.28.46.22.38c.15.29.29.57.42.88l.12.3c.11.26.21.53.32.87l.05.16a12.54,12.54,0,1,1-17.79-7.44l.61-.33a12.55,12.55,0,0,1,10.39,0l.6.32a12.69,12.69,0,0,1,4.33,3.74l.4-.29h0l-.32.41C100.56,262.45,100.68,262.63,100.79,262.81Z"/></svg>