<?xml version="1.0" encoding="utf-8"?>
<!-- Generator: Adobe Illustrator 21.1.0, SVG Export Plug-In . SVG Version: 6.00 Build 0)  -->
<svg version="1.1" id="Layer_1" xmlns="http://www.w3.org/2000/svg" xmlns:xlink="http://www.w3.org/1999/xlink" x="0px" y="0px"
	 viewBox="0 0 390.4 334.5" style="enable-background:new 0 0 390.4 334.5;" xml:space="preserve">
<style type="text/css">
	.st0{fill:#FFFFFF;}
</style>
<g id="Layer_2">
	<path class="st0" d="M11,321c0,0-34.7-236,184.2-226c0,0,11.8,12,11.8-24s-17-76,43-24s128,107,128,107L212,291l-7-78
		C205,213,79,187,11,321z"/>
</g>
<path d="M386.4,144.5L214,2.5c-4.6-3.8-11.4-3.1-15.1,1.4c-1.6,1.9-2.5,4.4-2.5,6.9v74.9c-83.7,3-141.2,32.6-171.1,87.8
	C-0.4,221.2-0.2,277.7,0,315v8.6c0,4.9,3.3,9.2,8.1,10.5c0.9,0.2,1.8,0.3,2.7,0.3c3.9,0,7.5-2,9.4-5.4
	c58.4-103,106.5-107.9,176.2-108.2v74.7c0,4.2,2.4,8,6.2,9.8s8.3,1.2,11.5-1.4l172.3-142.6c2.5-2.1,3.9-5.1,3.9-8.3
	C390.4,149.7,388.9,146.6,386.4,144.5z M218,272.5V210c0-2.9-1.1-5.6-3.2-7.6c-2-2-4.7-3.2-7.6-3.2c-43.5,0-76.9,1.2-109.3,16.3
	c-28,13-52.2,35.2-76.2,70c1-31.8,5.1-69.7,22.5-101.8c27.5-50.9,80.8-76.1,163-76.8c5.9,0,10.7-4.9,10.8-10.8V33.7L362.5,153
	L218,272.5z"/>
</svg>
