<svg id="Layer_1" data-name="Layer 1" xmlns="http://www.w3.org/2000/svg" viewBox="0 0 316.36 316.65"><defs><style>.cls-1{fill:#f7961d;}.cls-2{fill:#fff;}</style></defs><title>why-item-01</title><path class="cls-1" d="M205.39,25a80.31,80.31,0,0,1,57.15,23.69l5.12,5.12a80.78,80.78,0,0,1,0,114.31l-119,119L29.25,167.68l119-119A80.31,80.31,0,0,1,205.39,25m0-25a105.49,105.49,0,0,0-74.83,31L4.14,157.44a14.75,14.75,0,0,0,0,20.48l134.3,134.3a14,14,0,0,0,20.48,0L285.34,185.8a105.78,105.78,0,0,0,0-149.66L280.22,31A105.49,105.49,0,0,0,205.39,0Z"/><path class="cls-2" d="M172.31,49.53,266.83,144a5.71,5.71,0,0,1,0,8.27L153,265.75a5.71,5.71,0,0,1-8.27,0L50.22,171.22a5.71,5.71,0,0,1,0-8.27L164,49.13C166.4,47.16,170.34,47.16,172.31,49.53Z"/><path class="cls-1" d="M105.75,205.1l8.66-8.66C104.57,184.22,99.05,170,97.87,153.5l19.3-1.58c.79,12.6,4.33,23.24,10.24,31.51L151,159.8c-7.09-11.42-10.63-20.87-11.42-28.75S142,115.69,149.07,109s15-10.24,24.42-9.85,18.12,4.33,26.39,11.82l5.91-5.91,7.88,7.88-5.91,5.91a69.39,69.39,0,0,1,16.15,34.26L205,156.26a58.73,58.73,0,0,0-10.24-24.42l-22.84,22.84.39.39q10.63,17.13,11.82,29.54c.79,8.27-2.76,15.75-9.45,22.84-7.09,7.09-15.36,10.24-24.81,9.85s-18.51-4.73-27.18-12.6L114,213.37Zm69.71-86.65c-3.94-.39-7.09,1.18-9.85,3.54-2.76,2.76-3.94,5.51-3.94,8.66s1.58,7.88,4.73,13.78l20.87-20.87A22.24,22.24,0,0,0,175.46,118.45Zm-27.57,78.77a12.27,12.27,0,0,0,10.24-3.54c2.76-2.76,4.33-5.91,3.94-9.45s-2-8.27-5.12-14.57l-21.66,21.66C139.62,194.86,143.56,196.82,147.89,197.22Z"/><circle class="cls-1" cx="235.77" cy="75.91" r="17.33"/></svg>