<svg id="Layer_1" data-name="Layer 1" xmlns="http://www.w3.org/2000/svg" viewBox="0 0 313.26 214.8"><defs><style>.cls-1{fill:#f8971d;}</style></defs><title>why-item-06</title><path class="cls-1" d="M296,49.18h0c-10.67-11.55-25.79-17.92-42.69-17.92H213.52V10a10.12,10.12,0,0,0-8.93-10H10.16A10.19,10.19,0,0,0,0,10.16V179.53A10.19,10.19,0,0,0,10.16,189.7a6.9,6.9,0,0,0,.74,0H40.52l0,.2a32.73,32.73,0,0,0,63.61-.23H218.46a33,33,0,0,0,31.83,25.12,32.6,32.6,0,0,0,31.87-25.09h21a10.11,10.11,0,0,0,10.1-10.1V99.84C313.28,79,307.28,61.49,296,49.18Zm-2.87,50.74v69.71H280.47a33.08,33.08,0,0,0-30.17-20.16,32.59,32.59,0,0,0-30.14,20.16h-6.53V51.46h39.74c24.85,0,39.71,18.12,39.71,48.46Zm-30.24,82.24a12.54,12.54,0,1,1-12.55-12.53h0a12.66,12.66,0,0,1,12.54,12.53ZM197,15.16V169.63H102.54a33.08,33.08,0,0,0-30.17-20.16,32.59,32.59,0,0,0-30.21,20.09H18.59V15.12ZM83,175.48l.28.46.22.38c.15.29.29.57.42.88l.12.3c.11.26.21.53.32.87l.05.16a12.54,12.54,0,1,1-17.79-7.44l.61-.33a12.55,12.55,0,0,1,10.39,0l.6.32a12.69,12.69,0,0,1,4.33,3.74l.4-.29h0l-.32.41a3.2,3.2,0,0,1,.36.5Z"/></svg>