<?xml version="1.0" encoding="utf-8"?>
<!-- Generator: Adobe Illustrator 21.1.0, SVG Export Plug-In . SVG Version: 6.00 Build 0)  -->
<svg version="1.1" id="Layer_1" xmlns="http://www.w3.org/2000/svg" xmlns:xlink="http://www.w3.org/1999/xlink" x="0px" y="0px"
	 viewBox="0 0 303.5 412.5" style="enable-background:new 0 0 303.5 412.5;" xml:space="preserve">
<style type="text/css">
	.st0{fill:#F89721;}
</style>
<title>why-item-04</title>
<g>
	<path class="st0" d="M155.6,228.5c-0.9,0-2.3-0.1-3.8-0.1c-1.5,0-2.9,0-3.8,0.1c-21.6,0.9-39.1,19.7-39.1,41.9
		c-0.1,9.4,3.1,18.6,8.9,26v46.1c0,12.2,9.9,22.1,22.1,22.2h19.9v0l4,0c12.2,0,22.1-10,22.1-22.2v-46.1c5.8-7.4,8.9-16.6,8.9-26
		C194.7,248.2,177.1,229.4,155.6,228.5z M139.6,285.9l-2.2-2.2c-3.5-3.5-5.5-8.4-5.4-13.3c0-10.1,7.6-18.5,17-18.9h2.9
		c1.3,0,2.3,0,2.9,0c9.4,0.4,17.1,8.9,17.1,18.9c0.1,5-1.9,9.9-5.5,13.4l-2.2,2.2l-1.2,1.2v1.7v52.7h-22.1v-52.8v-1.7L139.6,285.9z"
		/>
	<path class="st0" d="M294.7,183.1c-4.9-6-11.3-9.7-18.2-10.9v-46.6C276.5,57.5,222.2,1.2,155.3,0l0,0h0h-7h0l0,0
		C81.4,1.2,27,57.6,27,125.6v1.3c0,19.3,15.7,34.9,34.9,34.9s34.9-15.7,34.9-34.9v-1.3c0-30.6,24.6-55.5,54.9-55.5
		c30.3,0,54.9,24.9,54.9,55.5v46.2H31.4C14.1,171.8,0,188.3,0,208.6v167c0,20.3,14.1,36.9,31.4,36.9h240.8c8.5,0,16.5-3.9,22.4-11.1
		c5.8-6.9,9-16.1,9-25.8v-167C303.5,199,300.4,190,294.7,183.1z M50,126.9v-1.3C50,70,94.2,24,148.6,23h6.3
		c54.4,1,98.6,47,98.6,102.6v65.3v4h4h14.6c4,0,8.4,5.9,8.4,13.8v167c0,7.9-4.4,13.9-8.4,13.9H31.4c-4,0-8.4-5.9-8.4-13.9v-167
		c0-7.9,4.4-13.8,8.4-13.8h194.2h4v-4v-65.3c0-43.3-34.9-78.5-77.9-78.5c-42.9,0-77.9,35.2-77.9,78.5v1.3c0,6.6-5.4,11.9-11.9,11.9
		l0,2c0,0,0,0,0,0v-2C55.4,138.8,50,133.5,50,126.9z"/>
</g>
</svg>
