<svg id="Layer_1" data-name="Layer 1" xmlns="http://www.w3.org/2000/svg" viewBox="0 0 407.54 415.42"><defs><style>.cls-1{fill:#f8971d;}.cls-2{fill:none;stroke:#f8971d;stroke-miterlimit:10;stroke-width:25px;}</style></defs><title>why-item-05</title><path class="cls-1" d="M205.16,415.42a38,38,0,0,1-28.24-12.59l-6.68-7.48a12.83,12.83,0,0,0-14.68-3.25L146.31,396a37.86,37.86,0,0,1-51.39-24.28l-2.79-9.57a13,13,0,0,0-11.91-9.33l-9.95-.4a37.92,37.92,0,0,1-35.83-44.19l1.68-9.85a12.84,12.84,0,0,0-6.6-13.51l-8.83-4.73A38,38,0,0,1,7.59,224.87l5.76-8.16a13,13,0,0,0-.14-15.12l-5.89-8A37.89,37.89,0,0,1,19.49,138l8.7-4.87a12.84,12.84,0,0,0,6.46-13.6l-1.84-9.83A37.9,37.9,0,0,1,67.89,65l10-.56a12.77,12.77,0,0,0,11.68-9.45l2.64-9.67A38,38,0,0,1,143.3,20.19L152.59,24a13,13,0,0,0,14.69-3.47l6.55-7.51A38,38,0,0,1,202.17,0h.27a37.86,37.86,0,0,1,28.21,12.62l6.65,7.45A12.82,12.82,0,0,0,252,23.31l9.26-3.94a37.85,37.85,0,0,1,51.38,24.28l2.79,9.56a13,13,0,0,0,11.91,9.33l9.94.4a37.91,37.91,0,0,1,35.83,44.19L371.41,117a12.84,12.84,0,0,0,6.6,13.51l8.82,4.73a38,38,0,0,1,13.11,55.34l-5.76,8.16a13,13,0,0,0,.13,15.12l5.91,8.07A37.86,37.86,0,0,1,388,277.42l-8.65,4.84a12.84,12.84,0,0,0-6.46,13.6l1.84,9.83a37.9,37.9,0,0,1-35.08,44.78l-10,.56a12.76,12.76,0,0,0-11.68,9.45l-2.64,9.68a38,38,0,0,1-51.06,25.07l-9.3-3.84a13,13,0,0,0-14.69,3.47l-6.56,7.51a37.73,37.73,0,0,1-28.14,13.05ZM160.65,366a37.82,37.82,0,0,1,28.24,12.67l6.64,7.43a13,13,0,0,0,9.76,4.28,12.6,12.6,0,0,0,9.52-4.43l6.61-7.58a37.94,37.94,0,0,1,43.07-10.13l9.29,3.84a12.73,12.73,0,0,0,10.57-.34,12.89,12.89,0,0,0,6.84-8.25l2.63-9.63a37.69,37.69,0,0,1,34.46-27.83l9.94-.56a12.9,12.9,0,0,0,11.93-15.23l-1.84-9.83a37.8,37.8,0,0,1,18.87-40l8.68-4.86a12.64,12.64,0,0,0,6.37-8.45,12.84,12.84,0,0,0-2.2-10.48l-5.9-8.05a38,38,0,0,1-.37-44.28l5.76-8.16a12.77,12.77,0,0,0,2-10.42,12.9,12.9,0,0,0-6.54-8.49l-8.78-4.71a37.79,37.79,0,0,1-19.46-39.75l1.68-9.84a12.91,12.91,0,0,0-12.2-15l-10-.4A38,38,0,0,1,291.4,60.19l-2.8-9.58a12.85,12.85,0,0,0-17.52-8.26l-9.26,3.94a37.76,37.76,0,0,1-43.18-9.58L212,29.27A12.67,12.67,0,0,0,202.45,25h-.1a12.78,12.78,0,0,0-9.67,4.47L186.11,37A37.94,37.94,0,0,1,143,47.14l-9.29-3.84a12.73,12.73,0,0,0-10.57.34,12.9,12.9,0,0,0-6.85,8.25l-2.62,9.62A37.71,37.71,0,0,1,79.25,89.35l-9.94.56a12.9,12.9,0,0,0-11.93,15.23L59.22,115a37.8,37.8,0,0,1-18.87,40l-8.68,4.86a12.89,12.89,0,0,0-4.19,18.9l5.92,8.08a38,38,0,0,1,.37,44.28L28,239.28a13,13,0,0,0,4.51,18.91l8.78,4.71a37.79,37.79,0,0,1,19.46,39.76l-1.68,9.84a12.92,12.92,0,0,0,12.2,15l10,.4a38,38,0,0,1,34.87,27.33l2.79,9.59a12.86,12.86,0,0,0,17.52,8.26l9.25-3.94A37.66,37.66,0,0,1,160.65,366Z"/><path class="cls-1" d="M151.81,160.19a14.36,14.36,0,1,1-14.36,14.36,14.38,14.38,0,0,1,14.36-14.36m0-25a39.36,39.36,0,1,0,39.36,39.36,39.33,39.33,0,0,0-39.36-39.36Z"/><path class="cls-1" d="M159.41,276.07a9.6,9.6,0,0,1-14.8-12.24l103.28-124.4a9.6,9.6,0,0,1,14.8,12.24Z"/><path class="cls-1" d="M255.57,226.43a14.36,14.36,0,1,1-14.36,14.36,14.38,14.38,0,0,1,14.36-14.36m0-25a39.36,39.36,0,1,0,39.36,39.36,39.33,39.33,0,0,0-39.36-39.36Z"/><path class="cls-2" d="M255.57,280.15"/></svg>