<?xml version="1.0" encoding="utf-8"?>
<!-- Generator: Adobe Illustrator 21.1.0, SVG Export Plug-In . SVG Version: 6.00 Build 0)  -->
<svg version="1.1" id="Layer_1" xmlns="http://www.w3.org/2000/svg" xmlns:xlink="http://www.w3.org/1999/xlink" x="0px" y="0px"
	 viewBox="0 0 409.4 516" style="enable-background:new 0 0 409.4 516;" xml:space="preserve">
<style type="text/css">
	.st0{fill:#FF9700;}
</style>
<title>why-item-03</title>
<g>
	<path class="st0" d="M204.6,68c3.4,0.1,6.6-1.1,9-3.4c2.5-2.3,3.9-5.5,4-8.8c0.2-7-5.3-12.8-12.3-13.1c-0.3,0-0.5,0-0.7,0
		c0,0,0,0,0,0c-68.8,0-129,46.5-146.4,113.1c-0.9,3.3-0.5,6.7,1.2,9.6c1.7,2.9,4.4,5.1,7.6,6c1.1,0.3,2.3,0.5,3.4,0.5
		c5.5,0,10.6-3.7,12.2-9.3c0-0.1,0.1-0.3,0.1-0.4C97.2,106.7,147.3,68,204.6,68L204.6,68z"/>
	<path class="st0" d="M66.7,175.1L66.7,175.1c-7-0.3-12.9,5.1-13.2,12.1c-0.1,2.2-0.2,4.5-0.2,6.8c0,7,5.7,12.7,12.7,12.7
		c0,0,0,0,0,0c7,0,12.7-5.7,12.7-12.7c0-1.9,0-3.8,0.1-5.7c0.1-3.4-1-6.6-3.3-9.1C73.2,176.7,70.1,175.3,66.7,175.1z"/>
	<path class="st0" d="M204.7,320C204.7,320,204.7,320,204.7,320c-7,0-12.7,5.7-12.7,12.7s5.7,12.7,12.7,12.7c0,0,0,0,0.1,0
		c68.8,0,129-46.5,146.4-113.2c1.6-6.8-2.5-13.7-9.3-15.3c-6.7-1.6-13.3,2.3-15.2,8.9C312.1,281.3,262,320,204.7,320z"/>
	<path class="st0" d="M342.6,212.9l0.6,0c6.8,0,12.3-5.3,12.6-12.1c0.1-2.2,0.2-4.5,0.2-6.8c0-7-5.7-12.7-12.7-12.7c0,0,0,0,0,0
		c-7,0-12.7,5.7-12.7,12.7c0,1.9,0,3.8-0.1,5.7c-0.1,3.4,1,6.6,3.3,9.1C336.1,211.3,339.3,212.7,342.6,212.9z"/>
	<path class="st0" d="M240.3,265.5c1.7,0,3.3-0.4,4.8-1.3l0.2-0.1c1.4-1.1,2.1-2.9,2.1-5.7v-13.2c0-4.7-2.9-7.3-8-7.3h-13.2v-99
		c0-8.5-3.5-13.8-10.3-15.5l1.3-0.7h-8.3c-5.6,0-11.8,1.4-18.6,4.3l-24,9.6l-0.1,0c-3.5,1.6-4.2,4-4.2,5.7c0,1.2,0.6,4,4.8,15.8
		c0.7,2.6,2.9,4.3,5.6,4.3c1.9,0,3.7-0.4,5.4-1.1l16.8-6.4v83h-17.5c-5.1,0-8,2.7-8,7.3v12.7c0,4.8,2.9,7.5,8,7.5h62.5
		C239.8,265.4,240.1,265.5,240.3,265.5z"/>
	<path class="st0" d="M407.7,428.7l-0.6-1h-0.1l-59.4-102.8c32.9-35.8,51-82.2,51-130.9c0-107-87-194-194-194c-107,0-194,87-194,194
		c0,48.7,18.1,95.1,51,130.9L1.7,428.7c-1.7,2.9-2.1,6.3-1.3,9.6c0.9,3.3,3,6,5.9,7.7c2.9,1.7,6.3,2.1,9.6,1.3L97,425.6l21.7,81.1
		c1.3,5,5.5,8.6,10.6,9.3c0.5,0.1,1.1,0.1,1.6,0.1c0,0,0,0,0,0c4.5,0,8.7-2.4,11-6.3l62.7-108.8l62.8,108.9c2.3,3.9,6.5,6.3,11,6.3
		c0.5,0,1.1,0,1.7-0.1c5.1-0.7,9.2-4.3,10.6-9.3l21.7-81.1l81.1,21.7c3.3,0.9,6.7,0.4,9.6-1.3c2.9-1.7,5-4.4,5.9-7.7
		C409.9,435.1,409.4,431.7,407.7,428.7z M328.9,342.9l41.6,72l-63.7-17.1l0,0c-6.7-1.8-13.7,2.2-15.5,9l-17.1,63.7l-48.3-83.7
		C263.9,382.7,299.4,367.6,328.9,342.9z M183.4,386.8l-48.2,83.7l-17.1-63.7c-0.9-3.3-3-6-5.9-7.7c-2-1.1-4.1-1.7-6.3-1.7
		c-1.1,0-2.2,0.1-3.3,0.4l-63.8,17.1l41.6-72C109.9,367.5,145.3,382.7,183.4,386.8z M373.3,194c0,93-75.7,168.7-168.7,168.7
		C111.7,362.7,36,287,36,194c0-93,75.7-168.7,168.7-168.7C297.7,25.3,373.3,101,373.3,194z"/>
</g>
</svg>
