<svg id="Layer_1" data-name="Layer 1" xmlns="http://www.w3.org/2000/svg" viewBox="0 0 149.59 371.75"><defs><style>.cls-1{fill:#ff9700;}</style></defs><title>why-item-02</title><path class="cls-1" d="M95.47,0,50.28.32A16.32,16.32,0,0,0,37.55,6.7a13.24,13.24,0,0,0-2.57,10l.15,18.69a13.47,13.47,0,0,0,2.81,10.14,15.47,15.47,0,0,0,2.63,2.63c-1.9,10.5-3.83,23.34-5.65,37.54h0c-1.57,12.4-3.11,25.84-4.45,39.64-15.1,8.92-30.65,33.76-30.47,58L1.14,343.94c.11,15.45,13.74,27.92,30.37,27.81l44.06-.31h0l44.06-.31A32.32,32.32,0,0,0,128,370a30.71,30.71,0,0,0,12.55-6.89,26.87,26.87,0,0,0,9.06-20.2l-.15-22.08h0l-1.08-138.4c-.18-24.26-16.07-48.87-31.29-57.58-2.2-19.73-4.75-38.7-7.33-55v-.14c-1.3-8.15-2.6-15.61-3.88-22.2a15.61,15.61,0,0,0,5.3-11.82L111,15.33A15.44,15.44,0,0,0,95.47,0ZM53.11,18.43l39.78-.28L93,33.73l-.2.07-.19.06L92,34.1l-.2.09-.58.29-.16.09a7.75,7.75,0,0,0-.68.43l-.21.16-.43.33-.25.22-.35.32-.23.24-.33.39-.18.22c-.14.18-.28.37-.4.56l-.06.09c-.15.23-.28.47-.41.71l-.08.16a6.07,6.07,0,0,0-.27.58l-.09.25q-.1.26-.18.51l-.08.3a2.84,2.84,0,0,1-.12.48,1.53,1.53,0,0,1-.07.34,1.54,1.54,0,0,0,0,.48l0,.35,0,.71a3.14,3.14,0,0,0,0,.84v.3a3.35,3.35,0,0,0,.13.82C88,50.16,89.28,57,90.58,64.7l-35.9,9.88c1.66-11.63,3.36-21.87,5-30,0-.26.09-.53.12-.79v-.3l0-.87a2.19,2.19,0,0,0,0-.7c-.06-.23,0-.22,0-.33a1.36,1.36,0,0,1-.07-.53.69.69,0,0,0-.07-.31l-.13-.52-.08-.27c-.06-.18-.12-.37-.2-.55l-.08-.21c-.09-.21-.19-.43-.3-.63l-.06-.1q-.2-.37-.43-.72h0c-.14-.21-.29-.4-.44-.6l-.18-.21-.35-.39-.23-.23-.35-.33-.26-.22-.42-.31-.23-.17a7.62,7.62,0,0,0-.67-.41L55,34.72l-.54-.26-.24-.1-.58-.22-.22-.07-.2-.06ZM41.56,140.12a9.06,9.06,0,0,0,6.36-7.83c1.24-13.22,2.64-26.15,4.12-38.21L93.32,82.71c1.79,12.09,3.54,25.44,5.13,39.27l-2.29,0a9.06,9.06,0,0,0,.17,18.13L107.1,140c6.94,3,18.56,17.25,22.08,33.45L19,174.31c3.45-17.09,15.84-32.14,22.59-34.19Zm89.59,171.8L19,312.71l-.84-120.32,112.15-.79Zm-2.93,37.83a13.18,13.18,0,0,1-8.83,3.31l-44.06.31h0l-44.06.31c-6.53,0-12.08-4.44-12.12-9.81l-.1-13,112.15-.79.1,13a9,9,0,0,1-3.06,6.68Z"/><path class="cls-1" d="M64.2,136.92h.22a9.06,9.06,0,0,0-1-18.1H63.2a9.06,9.06,0,0,0,1,18.1Z"/></svg>