<svg id="Layer_1" data-name="Layer 1" xmlns="http://www.w3.org/2000/svg" viewBox="0 0 348.84 379"><defs><style>.cls-1{fill:#fff;}.cls-2{fill:#f7961d;}</style></defs><title>why-item-08</title><g id="Layer_2" data-name="Layer 2"><polygon class="cls-1" points="9.1 95.56 174.42 10.96 337 89.96 337 292.96 183.76 353.96 160 361.96 9.1 288.96 9.1 95.56"/></g><path class="cls-2" d="M348.8,89.32a9.93,9.93,0,0,0-1-4.24A9.27,9.27,0,0,0,341.36,80L178.4,1A9.66,9.66,0,0,0,170,1L5.44,80.68A9.63,9.63,0,0,0,0,89v200.6a9.52,9.52,0,0,0,5.44,8.64L170,378c.08,0,.08,0,.16.08a2.91,2.91,0,0,1,.72.32c.08,0,.16.08.32.08l.72.24c.08,0,.16.08.24.08.24.08.56.08.8.16h.24c.32,0,.72.08,1,.08a4.7,4.7,0,0,0,1-.08h.24a2.91,2.91,0,0,0,.8-.16c.08,0,.16-.08.24-.08l.72-.24c.08,0,.16-.08.32-.08a2.82,2.82,0,0,0,.72-.32c.08,0,.08,0,.16-.08l165-80a9.68,9.68,0,0,0,5.44-8.64V89.56c-.16-.08-.16-.16-.16-.24ZM174.16,20.2,316.88,89.4,264.32,115,121.6,45.72Zm0,138.4L31.44,89.4l68.16-33,142.72,69.2Zm-155-53.76,145.36,70.48V354L19.2,283.48ZM183.76,354V175.32L252,142.2V189a9.6,9.6,0,0,0,19.2,0V132.84l58.4-28.32V283.16Z"/></svg>